<svg xmlns="http://www.w3.org/2000/svg" width="45.19" height="32.063" viewBox="0 0 45.19 32.063">
  <g id="Group_1578" data-name="Group 1578" transform="translate(0 0.75)">
    <g id="Rectangle_196" data-name="Rectangle 196" transform="translate(21.98 6.5)" fill="none" stroke="#131c4c" stroke-width="1.5">
      <rect width="15" height="4" rx="2" stroke="none"/>
      <rect x="0.75" y="0.75" width="13.5" height="2.5" rx="1.25" fill="none"/>
    </g>
    <g id="Path_638" data-name="Path 638" transform="translate(9.332 31.313) rotate(-138)" fill="#fff">
      <path d="M 6.947126388549805 9.588410377502441 C 6.947011947631836 9.588410377502441 6.947089672088623 9.588410377502441 6.946975231170654 9.588410377502441 C 4.914794921875 9.588410377502441 3.495005130767822 9.37721061706543 2.478835105895996 8.923760414123535 C 1.299345016479492 8.397420883178711 0.7499950528144836 7.556820392608643 0.7499950528144836 6.278340339660645 C 0.7499950528144836 4.801670551300049 1.325035095214844 3.413390398025513 2.369194984436035 2.369230508804321 C 3.413355112075806 1.32507050037384 4.801635265350342 0.7500304579734802 6.278305053710938 0.7500304579734802 C 9.326635360717773 0.7500304579734802 11.8066349029541 3.230030536651611 11.8066349029541 6.278360366821289 C 11.80664539337158 8.053440093994141 11.19712543487549 8.646900177001953 10.66612529754639 8.965610504150391 C 9.93882942199707 9.402133941650391 8.826457977294922 9.588410377502441 6.947126388549805 9.588410377502441 Z" stroke="none"/>
      <path d="M 6.947064876556396 8.838410377502441 C 8.098625183105469 8.838410377502441 9.518155097961426 8.779770851135254 10.28005504608154 8.322470664978027 C 10.53212547302246 8.171170234680176 11.0566349029541 7.856350421905518 11.0566349029541 6.278360366821289 C 11.0566349029541 3.643580436706543 8.913084983825684 1.500030398368835 6.278285026550293 1.500030398368835 C 3.643525123596191 1.500030398368835 1.499995112419128 3.643570423126221 1.499995112419128 6.278340339660645 C 1.499995112419128 7.263740539550781 1.872135043144226 7.831740379333496 2.784465074539185 8.238850593566895 C 3.688555002212524 8.642290115356445 5.050125122070312 8.838410377502441 6.946975231170654 8.838410377502441 L 6.947064876556396 8.838410377502441 M 6.946975231170654 10.33841037750244 C 3.479555130004883 10.33841037750244 -4.932708634441951e-06 9.745760917663574 -4.932708634441951e-06 6.278340339660645 C -4.932708634441951e-06 2.810920476913452 2.810884952545166 2.044754000962712e-05 6.278305053710938 3.044753975700587e-05 C 9.745724678039551 3.044753975700587e-05 12.5566349029541 2.810940504074097 12.5566349029541 6.278360366821289 C 12.55664539337158 9.745779991149902 10.41439533233643 10.33842086791992 6.946975231170654 10.33841037750244 Z" stroke="none" fill="#131c4c"/>
    </g>
    <g id="Path_637" data-name="Path 637" transform="translate(31.541 14.511)" fill="#fff">
      <path d="M 6.278313159942627 13.2359037399292 C 3.229993104934692 13.2359037399292 0.7500031590461731 10.75590419769287 0.7500031590461731 7.707573890686035 C 0.7500031590461731 7.163963794708252 0.9528031349182129 6.814063549041748 1.407553195953369 6.57305383682251 C 1.845583200454712 6.340913772583008 2.51287317276001 6.218203544616699 3.337283134460449 6.218203544616699 C 4.720833301544189 6.218203544616699 6.080703258514404 6.557413578033447 6.094273090362549 6.560843944549561 L 6.278353214263916 6.607303619384766 L 6.462852954864502 6.560713768005371 C 6.475953102111816 6.557413578033447 7.8356032371521 6.218203544616699 9.219343185424805 6.218203544616699 C 10.04363346099854 6.218203544616699 10.71089363098145 6.340933799743652 11.14899349212646 6.573123931884766 C 11.60380363464355 6.814173698425293 11.8066234588623 7.164053916931152 11.8066234588623 7.707573890686035 C 11.8066234588623 10.75590419769287 9.326633453369141 13.2359037399292 6.278313159942627 13.2359037399292 Z" stroke="none"/>
      <path d="M 3.337283134460449 6.968203544616699 C 2.40306282043457 6.968203544616699 1.947293281555176 7.135824203491211 1.758763313293457 7.235743522644043 C 1.578853607177734 7.331083297729492 1.500002861022949 7.404533386230469 1.500002861022949 7.707573890686035 C 1.500002861022949 10.34235382080078 3.643543243408203 12.4859037399292 6.278313159942627 12.4859037399292 C 8.913083076477051 12.4859037399292 11.0566234588623 10.34235382080078 11.0566234588623 7.707573890686035 C 11.0566234588623 7.40467357635498 10.97775268554688 7.331223487854004 10.7977933883667 7.235843658447266 C 10.60922336578369 7.135913848876953 10.15341281890869 6.968254089355469 9.218852996826172 6.968203544616699 C 7.934863090515137 6.968203544616699 6.658273220062256 7.284934043884277 6.647473335266113 7.287633895874023 L 6.278473377227783 7.38032341003418 L 5.911213397979736 7.288164138793945 C 5.898463249206543 7.284963607788086 4.62134313583374 6.968203544616699 3.337283134460449 6.968203544616699 M 3.337284088134766 5.468207359313965 C 4.838093280792236 5.468207359313965 6.278313159942627 5.833773612976074 6.278313159942627 5.833773612976074 C 6.278312683105469 5.833773612976074 12.5566234588623 4.240142822265625 12.5566234588623 7.707573890686035 C 12.5566234588623 11.17499351501465 9.745733261108398 13.9859037399292 6.278313159942627 13.9859037399292 C 2.810893058776855 13.9859037399292 2.86102294921875e-06 11.17499351501465 2.86102294921875e-06 7.707573890686035 C 2.86102294921875e-06 5.900844573974609 1.704505920410156 5.468207359313965 3.337284088134766 5.468207359313965 Z" stroke="none" fill="#131c4c"/>
    </g>
    <path id="Path_636" data-name="Path 636" d="M-12712.579,523.351l-3.877-1.428s-.678,5.064,0,6.315,2.787-1.131,2.787-1.131Z" transform="translate(12724.736 -521.551)" fill="none" stroke="#131c4c" stroke-width="1.5"/>
    <line id="Line_62" data-name="Line 62" x2="5.17" transform="translate(15.66 2.537)" fill="none" stroke="#131c4c" stroke-width="2"/>
    <line id="Line_63" data-name="Line 63" x2="5.17" transform="translate(31.761 15.228)" fill="none" stroke="#131c4c" stroke-width="1.5"/>
    <line id="Line_64" data-name="Line 64" x2="5.17" transform="translate(32.649 17.444)" fill="none" stroke="#131c4c" stroke-width="1.5"/>
    <path id="Path_635" data-name="Path 635" d="M-12753.115,521.42h-3.205l-4.131,14.58s-.067,4.2,1.813,5a10.126,10.126,0,0,1,3.392,2.741h17.962s-.224-1.546.938-1.619,11.779,0,11.779,0,.415-9.652-6.057-9.922-13.836,0-13.836,0a5.213,5.213,0,0,0,.663,2.606c.654.789,1.86,2.8,1.266,3.785s-1.994,3.353-5.2,2.408-7.24-4.663-6.919-7.924S-12753.115,521.42-12753.115,521.42Z" transform="translate(12768.994 -521.42)" fill="none" stroke="#131c4c" stroke-width="1.5"/>
    <g id="Ellipse_1057" data-name="Ellipse 1057" transform="translate(35.216 20)" fill="none" stroke="#131c4c" stroke-width="1" stroke-dasharray="1 1">
      <ellipse cx="2.5" cy="2.5" rx="2.5" ry="2.5" stroke="none"/>
      <ellipse cx="2.5" cy="2.5" rx="2" ry="2" fill="none"/>
    </g>
    <g id="Ellipse_1058" data-name="Ellipse 1058" transform="translate(6.216 20)" fill="none" stroke="#131c4c" stroke-width="1" stroke-dasharray="1 1">
      <ellipse cx="2.5" cy="2.5" rx="2.5" ry="2.5" stroke="none"/>
      <ellipse cx="2.5" cy="2.5" rx="2" ry="2" fill="none"/>
    </g>
  </g>
</svg>
