<svg xmlns="http://www.w3.org/2000/svg" width="640" height="455.726" viewBox="0 0 640 455.726">
  <g id="Group_1734" data-name="Group 1734" transform="translate(-960 -2117)">
    <rect id="Rectangle_23" data-name="Rectangle 23" width="394" height="358" rx="35" transform="translate(1206 2117)" fill="#ebe3ca"/>
    <g id="Group_1190" data-name="Group 1190" transform="translate(898.906 2100.393)">
      <g id="BACKGROUND">
        <g id="Group_1133" data-name="Group 1133">
          <g id="Group_1132" data-name="Group 1132">
            <path id="Path_207" data-name="Path 207" d="M599.248,73.492c-36.672-8.818-78.469,4.682-106.754,21.487s-49.473,44.891-85.467,53.151c-64.379,14.768-132.187-10.716-199.849-8.8-44.167,1.252-88.976,14.331-117.254,36.792-77.808,61.81,13.761,213.786,133.221,237.318,106.46,20.962,229.9.069,319.382-45.466,85.35-43.454,142.459-102.248,144.108-191.476C687.01,156.291,690.641,95.473,599.248,73.492Z" fill="#ebe3ca" opacity="0.4"/>
            <g id="Group_1131" data-name="Group 1131">
              <path id="Path_208" data-name="Path 208" d="M449.3,102.107V89.267H418.275v12.841H398.838V61.172H390.6V54.1h-4.815V47.645h-8.254V54.1h-8.585v7.069h-7.513v75.02H331.473V83.517h-22.76V74.146l-37.4-11.388v73.434h-23.49V55.969h-3.611V50.633H232.637V47.645H200.849v2.989h-5.876v5.335h-3.1v50.156H173.105V75.879H146.738V71.04l-25.529-8.283V288.717H471.865V102.107Z" fill="#e1dcd7" style="mix-blend-mode: multiply;isolation: isolate"/>
              <path id="Path_209" data-name="Path 209" d="M135.278,174.345V138.371l-32.141,16.563v19.412H82.475V288.717h69.638V174.345Z" fill="#b5b5b5"/>
              <path id="Path_210" data-name="Path 210" d="M260.526,190.315v-19.76l-16.071,15.527v4.233H234.125v98.4h34.819v-98.4Z" fill="#b5b5b5"/>
              <path id="Path_211" data-name="Path 211" d="M210.271,147.247v-13.5H202.3V120.665H181.642v13.082h-8.1v13.5H161.747v141.47H222.2V147.247Z" fill="#b5b5b5"/>
              <path id="Path_212" data-name="Path 212" d="M327.486,147.247v-13.5H319.52V120.665H298.858v13.082h-8.1v13.5H278.962v141.47h60.453V147.247Z" fill="#b5b5b5"/>
              <path id="Path_213" data-name="Path 213" d="M445.879,164.154V152.267H432.814V140.749H398.945v11.518H385.66v11.887H366.327V288.717h99.1V164.154Z" fill="#b5b5b5"/>
            </g>
          </g>
        </g>
      </g>
      <g id="OBJECTS">
        <g id="Group_1189" data-name="Group 1189">
          <path id="Path_214" data-name="Path 214" d="M422.541,170.73c-17.852-10.777-40.439-30.759-35.016-59.491,6.59-34.9,27.563-66.321,60.725-75.234,11.555-3.106,33.344-2.015,31.1,13.472-4.52,31.168-41.594,15.128-29.4,3.236,19.569-19.085,47.735-9.421,65.4-4.423,49.572,14.02,96.777,81.77,36.771,190.209-15.322,27.692-26.381,57.119-44.48,63.749-15.03,5.507-26.276-.991-20.225-13.8,3.457-7.322,13.125-9.735,27.07-8.59,11.217.923,44.84,13.006,53.354,35.932" fill="none" stroke="#282b4d" stroke-width="0.75" stroke-dasharray="2.012 2.012"/>
          <g id="Group_1159" data-name="Group 1159">
            <path id="Path_215" data-name="Path 215" d="M672.637,461.2c0,7.03-27.4,11.135-69.43,11.135s-69.43-3.449-69.43-10.48,28.061-15.719,70.084-15.719S672.637,454.168,672.637,461.2Z" fill="#b5b5b5" opacity="0.5" style="mix-blend-mode: multiply;isolation: isolate"/>
            <g id="Group_1134" data-name="Group 1134">
              <path id="Path_216" data-name="Path 216" d="M614.713,266.679c-3.643-11.7-12.633-20.062-16.047-24.724a7.177,7.177,0,0,0-8.408-2.6s-16.076,42.12-19.766,75.788-3.584,32.584-6.515,66.654-6.7,65.541-6.7,65.541a2.842,2.842,0,0,1-.656,1.252A45.805,45.805,0,0,1,551.5,451.6c-2.375,1.226-5.639,1.763-5.6,2.435a2.857,2.857,0,0,0,1.113,2.16c.967.954,2.853.607,6.371-.174s11.906-3.436,12.828-4.737,5.02-19.784,9.588-35.286c5.369-18.234,7.035-28.285,9.684-39.074s5.912-30.776,5.912-30.776l23.9-63.708S618.352,278.377,614.713,266.679Z" fill="#e8755d"/>
              <path id="Path_217" data-name="Path 217" d="M566.723,449.941c-3.039,2.933-6.813,3.492-10.85,4.821-3.9,1.276-6.248,1.65-8.973-1.53a.741.741,0,0,1-.1-.166c-.014.008-.039,0-.053,0-4.75,1.414-6.941,4.488-5.387,5.63s12.069,1.238,15.352.111,5.578-2.21,5.578-2.21l.746,3.423,2.883.086a36.968,36.968,0,0,1,1.373-5.417C567.525,454.053,567.439,452.318,566.723,449.941Z" fill="#f8c331"/>
            </g>
            <g id="Group_1135" data-name="Group 1135">
              <path id="Path_218" data-name="Path 218" d="M644.682,263.489c-7.385-9.777-18.674-14.608-23.463-17.841a7.176,7.176,0,0,0-8.789.4s-.889,45.073,7.023,78.008,7.647,31.878,16.4,64.931,15.854,63.947,15.854,63.947a2.839,2.839,0,0,1-.193,1.4,45.888,45.888,0,0,1-3.8,4.562c-1.823,1.955-4.713,3.565-4.451,4.187s.546,1.08,1.779,1.656,2.89-.4,5.933-2.32,10.045-7.26,10.473-8.8-1.965-20.315-2.908-36.45c-1.113-18.975-2.943-29-4.1-40.046s-4.841-30.962-4.841-30.962l.945-68.036S652.06,273.269,644.682,263.489Z" fill="#e8755d"/>
              <path id="Path_219" data-name="Path 219" d="M661.484,452.185c-1.869,3.787-5.23,5.589-8.58,8.205-3.238,2.519-5.322,3.665-8.961,1.6a.836.836,0,0,1-.148-.125c-.01.012-.039.01-.049.02-3.994,2.935-5.016,6.568-3.166,7.119s11.773-2.917,14.484-5.087,4.5-3.967,4.5-3.967l1.86,2.969,2.742-.893a36.989,36.989,0,0,1-.539-5.562C663.629,455.782,662.963,454.18,661.484,452.185Z" fill="#f8c331"/>
            </g>
            <g id="Group_1158" data-name="Group 1158">
              <g id="Group_1136" data-name="Group 1136">
                <path id="Path_220" data-name="Path 220" d="M664.568,353.446c.592-5.269-.056-53.325-5.033-83.894-5.1-31.35-27.746-55.928-27.746-55.928s-43.285-.3-46.193,6.81c-14.442,35.31-20.377,65.08-22.766,84.845-.654,5.438-4.408,39.639-3.812,44.909Z" fill="#282b4d"/>
                <path id="Path_221" data-name="Path 221" d="M659.535,269.552c-5.1-31.35-27.746-55.928-27.746-55.928s-43.285-.3-46.193,6.81c-2.082,5.092-3.967,10.053-5.713,14.9.5-.028.99-.066,1.494-.066,25.894,0,46.885,37.441,46.885,83.629a141.487,141.487,0,0,1-3.875,33.306l40.181,1.241C665.16,348.177,664.512,300.121,659.535,269.552Z" fill="#282b4d" opacity="0.2" style="mix-blend-mode: multiply;isolation: isolate"/>
              </g>
              <g id="Group_1138" data-name="Group 1138">
                <g id="Group_1137" data-name="Group 1137">
                  <path id="Path_222" data-name="Path 222" d="M594.135,150.249c-3.967-2.692-6.1-3.122-12.705,6.211l-27.358,37.366-33.65-22.831-7.084,6.017,36.535,35.079a10.866,10.866,0,0,0,4.418,1.75c3.508.993,10.225-2.707,13.057-5.308C579.465,197.4,590.6,179.058,590.6,179.058,593.295,175.089,598.109,152.943,594.135,150.249Z" fill="#e8755d"/>
                  <path id="Path_223" data-name="Path 223" d="M534.924,197.725l4.912-13.1s-9.158-8.649-10.949-10.444-4.881-11.867-4.881-11.867-.653-4.733-2.108-4.219-2.812,1.867-2.015,4.59l.8,2.724-10.43-9.782s-3.3-2.388-3.891-.793,7.006,9.356,7.006,9.356-9.119-5.619-10.1-6.1-.832,1.442-.473,2.326,9.836,7.4,9.836,7.4-10-4.737-11.068-4.415-1.227,1.64-.581,2.854,9.122,6.018,9.122,6.018l-7.782-1.582s-3.716,1.019-.816,2.691,11.058,3.964,14.426,6S534.924,197.725,534.924,197.725Z" fill="#e8755d"/>
                </g>
                <path id="Path_224" data-name="Path 224" d="M590.355,147.507c-8.154,1.685-13.478,11.167-19.734,16.158-4.574,3.65-12.771,12.773-18.34,19,3.338,4.736,23.908,24.235,23.908,24.235s17.125-14.72,20.161-18.679c6.25-8.149,12.369-17.774,8.88-28.17-2.23-6.644-9.459-13.123-16.6-12.245" fill="#427985"/>
              </g>
              <g id="Group_1143" data-name="Group 1143">
                <path id="Path_225" data-name="Path 225" d="M572.611,229.9a12.512,12.512,0,0,0,10.455,11.308c5.653,1.049,11.319-2.71,16.7-1.006,2.8.884,4.848,3.759,7.532,4.926,3.806,1.655,8.32.6,11.881-1.219,3.791-1.94,6.033-5.177,10.406-5.83,3.359-.5,5.789.729,9.082-.8,2.275-1.056,5.685-3.152,6.785-5.33,1.393-2.76,1.473-4.667-2.211-8.351-3.738-3.74-4.666-4.176-9.824-8.6-8.207,5.045-20.555,5.687-30.139,4.594-3.416-.39-17.945,1.079-17.685.839C585.6,220.434,572.5,228.755,572.611,229.9Z" fill="#6fadae"/>
                <g id="Group_1142" data-name="Group 1142">
                  <g id="Group_1139" data-name="Group 1139">
                    <path id="Path_226" data-name="Path 226" d="M633.244,215.837c-.236-6.6-.127-13.053,2.088-19.371,3.668-10.485,8.787-19.907,6.619-31.4-.924-4.908-.2-14.3-7.006-16.46-14.463-4.592-23.017-4.932-28.359-4.492a80.157,80.157,0,0,0-15.928,3.233c-11.039,3.1-16.75,27.012-15.365,34.884,1.094,6.223,4.769,8.627,6.377,13.725a89.3,89.3,0,0,1,3.607,24.474c3.51,1.175,26.658,2.059,35.489.4,4-.751,9.945-1.033,12.5-4.494C633.258,216.169,633.25,216,633.244,215.837Z" fill="#6fadae"/>
                  </g>
                  <g id="Group_1140" data-name="Group 1140">
                    <path id="Path_227" data-name="Path 227" d="M581.945,190.629c4.145,3.226,10.557,6.234,15.375,8.269,3.846,1.622,14.756,5.159,20,2.538" fill="none" stroke="#282b4d" stroke-width="0.75"/>
                    <path id="Path_228" data-name="Path 228" d="M591.443,202.419a35,35,0,0,0,22.924,9.17" fill="none" stroke="#282b4d" stroke-width="0.75"/>
                    <path id="Path_229" data-name="Path 229" d="M592.1,209.623c2.169,1.8,7.476,7.525,9.824,9.171" fill="none" stroke="#282b4d" stroke-width="0.75"/>
                  </g>
                  <g id="Group_1141" data-name="Group 1141">
                    <path id="Path_230" data-name="Path 230" d="M641.951,165.069c-.924-4.908-.2-14.3-7.006-16.46-3.218-1.022-.828-.516-3.49-1.155,2.3,3.965-1.105,6.836-.117,11.238a21.347,21.347,0,0,1-1.727,14.991c-2.256,4.419-5.179,8.513-6.558,13.332-2,6.978-2.739,14.262-4.315,21.337-.959,4.3-1.418,10.141-3.5,14.263,2.424-.147,15.469-2.82,18.022-6.281-.006-.165-.014-.334-.02-.5-.236-6.6-.127-13.053,2.088-19.371C639,185.981,644.119,176.559,641.951,165.069Z" fill="#427985"/>
                  </g>
                </g>
                <path id="Path_231" data-name="Path 231" d="M585.6,220.434c9.506,5.865,24.324,4.979,43.648-1.258" fill="none" stroke="#282b4d" stroke-width="0.75"/>
              </g>
              <g id="Group_1151" data-name="Group 1151">
                <g id="Group_1144" data-name="Group 1144">
                  <path id="Path_232" data-name="Path 232" d="M620.484,128.069c-1.256,10.771-1.675,12.934,3.4,17.44,2.406,2.136-21.016,8.746-21.285,4.438-.2-3.141.05-4.929-.02-7.611a94.566,94.566,0,0,0-1.209-12.954C606.227,129.336,615.34,128.767,620.484,128.069Z" fill="#e8755d"/>
                </g>
                <g id="Group_1145" data-name="Group 1145">
                  <path id="Path_233" data-name="Path 233" d="M602.656,143.921c-.185-3.807-.73-11.1-1.283-14.539,4.439-.042,13.637-.672,19.111-1.313C616.258,135.064,609.932,142.468,602.656,143.921Z" fill="#ff6a29" opacity="0.3" style="mix-blend-mode: multiply;isolation: isolate"/>
                </g>
                <g id="Group_1150" data-name="Group 1150">
                  <path id="Path_234" data-name="Path 234" d="M619.164,107.309a8.472,8.472,0,0,1,4.963,6.045,14.744,14.744,0,0,1-.617,7.932,24.735,24.735,0,0,1-6.957,10.641,15.322,15.322,0,0,1-8.145,4.091c-7.48.949-12.094-3.245-12.707-8.842-.465-4.261,1.576-9.821,2.834-13.9s4.264-7.819,8.408-8.936c4.951-1.336,10.149,1.252,12.221,2.968" fill="#e8755d"/>
                  <g id="Group_1146" data-name="Group 1146">
                    <path id="Path_235" data-name="Path 235" d="M620.162,100.417c1.49-.129,3.664,1.1,4.789,2.1a10.078,10.078,0,0,1,2.481,3.682c1.959,4.588,1.312,9.791-.477,14.39a9.532,9.532,0,0,1-2.324,3.145c-1.067.231-2.91-.845-3.879-.325.357-2.9,1.6-5.719,1.027-8.6a11.7,11.7,0,0,0-6.072-7.295c.68-1.837,4.455-7.1,4.455-7.1" fill="#d82429"/>
                    <path id="Path_236" data-name="Path 236" d="M620.473,100.411a63.988,63.988,0,0,0-4.766,7.11c-3.2-2.338-7.926-2.545-11.557-1.1-4.373,1.752-4.474,4.239-6.173,8.763-1.239-4.536,1.173-14.986,11.679-17.4,3.344-.773,8.071,0,10.592,2.5Z" fill="#d82429"/>
                  </g>
                  <path id="Path_237" data-name="Path 237" d="M622.215,121.461c1.392-.677,3.322-1.238,4.957.195a3.882,3.882,0,0,1,1.293,3.415,5.08,5.08,0,0,1-1.5,2.522A9.858,9.858,0,0,1,624,130.02a5.435,5.435,0,0,1-4.32.094,3.7,3.7,0,0,1-2.143-1.878,2.409,2.409,0,0,1-.033-1.3A8.07,8.07,0,0,1,622.215,121.461Z" fill="#e8755d"/>
                  <g id="Group_1149" data-name="Group 1149">
                    <g id="Group_1147" data-name="Group 1147">
                      <path id="Path_238" data-name="Path 238" d="M616.416,118.211a3.985,3.985,0,0,0-4.49-3.257" fill="none" stroke="#282b4d" stroke-linecap="round" stroke-width="0.5"/>
                      <path id="Path_239" data-name="Path 239" d="M606.584,112.579c-2.133-1.347-3.465-1.761-5.111-1.173" fill="none" stroke="#282b4d" stroke-linecap="round" stroke-width="0.5"/>
                      <path id="Path_240" data-name="Path 240" d="M606.1,114.647c-.711,3.9-5.61,5.386-1.854,7.913" fill="none" stroke="#282b4d" stroke-linecap="round" stroke-width="0.5"/>
                      <path id="Path_241" data-name="Path 241" d="M606.883,122.892a3.506,3.506,0,0,1-1.131.051" fill="none" stroke="#282b4d" stroke-linecap="round" stroke-width="0.5"/>
                      <path id="Path_242" data-name="Path 242" d="M600.291,123.84c1.051,2,2.852,4.737,7.107,3" fill="none" stroke="#282b4d" stroke-linecap="round" stroke-width="0.5"/>
                    </g>
                    <g id="Group_1148" data-name="Group 1148">
                      <path id="Path_243" data-name="Path 243" d="M610.713,117.893a1.066,1.066,0,0,0,1.01,1.118,1.064,1.064,0,0,0,.115-2.125A1.071,1.071,0,0,0,610.713,117.893Z" fill="#282b4d"/>
                      <path id="Path_244" data-name="Path 244" d="M601.324,114.08a1.065,1.065,0,0,0,1,1.122,1.052,1.052,0,0,0,1.119-1.009,1.066,1.066,0,0,0-1.006-1.126A1.081,1.081,0,0,0,601.324,114.08Z" fill="#282b4d"/>
                    </g>
                  </g>
                </g>
                <path id="Path_245" data-name="Path 245" d="M597.293,116.805c-1.168,5.062-5.59,13.5,2.709,17.624,11.18,5.551,16.588-.843,20.058-5.385-7.73-5.722-8.193-7.152-16.433-10.591A21.537,21.537,0,0,0,597.293,116.805Z" fill="#fff"/>
                <path id="Path_246" data-name="Path 246" d="M623.875,122.939c1.244.246,2.34.559,1.955,2.122a3.828,3.828,0,0,1-2.846,2.4" fill="none" stroke="#282b4d" stroke-linecap="round" stroke-width="0.5"/>
                <path id="Path_247" data-name="Path 247" d="M620.625,103.337c2.049-5.5-.072-13.805,7.9-13.684,3.184.048,4.662-.066,6.877-2.4,3.407-3.6,5.075-7.657,10.67-8.462,7.17-1.031,11.873,3.453,14.9,9.244,3.084,5.9,7.757,5.792,13.445,3.514,8.412-3.373,13.584-.509,18.2,7.34,6.189,10.512,1.033,20.4-7.436,27.643A26.605,26.605,0,0,1,678,131.166c1.182,2.6,3.187,4.279,2.787,7.438-.49,3.873-4.256,6.128-7.021,8.4-5.184,4.265-9.934,2.342-16.092,1.1a18.779,18.779,0,0,1-12.405-7.724c-3.31-4.5-3.222-8.4-3.558-13.646-.5-7.681-5.393-8.339-11.168-11-4.358-2.005-4.182-10.818-9.51-9.866a3.378,3.378,0,0,1-.064-3.363" fill="#d82429"/>
              </g>
              <g id="Group_1157" data-name="Group 1157">
                <g id="Group_1156" data-name="Group 1156">
                  <g id="Group_1154" data-name="Group 1154">
                    <g id="Group_1152" data-name="Group 1152">
                      <path id="Path_248" data-name="Path 248" d="M646,279.633a4.18,4.18,0,0,0-2.361-5.367l-30.274-12.149a4.073,4.073,0,0,0-5.34,2.272l-6.459,16.574a4.179,4.179,0,0,0,2.367,5.364l30.27,12.154a4.082,4.082,0,0,0,5.344-2.273Z" fill="#427985"/>
                      <path id="Path_249" data-name="Path 249" d="M641.449,279.82a3.317,3.317,0,0,0-1.867-4.267l-24.029-9.735a3.25,3.25,0,0,0-4.256,1.8l-5.174,13.157A3.33,3.33,0,0,0,608,285.041l24.029,9.734a3.232,3.232,0,0,0,4.246-1.795Z" fill="#b5b5b5"/>
                    </g>
                    <g id="Group_1153" data-name="Group 1153">
                      <path id="Path_250" data-name="Path 250" d="M618.135,276.652c1.34-2.45,5.826-.77,7.353-.283a7.009,7.009,0,0,0,6.559-.618c-.311,4.378-2.526,9.644-4.936,13.423a22.093,22.093,0,0,0-2.222-3.709c-.85-1.176-5.227-3.1-6.5-3.788C616.389,280.581,617.23,278.307,618.135,276.652Z" fill="#282b4d"/>
                      <line id="Line_44" data-name="Line 44" x2="2.426" y2="3.175" transform="translate(614.795 269.845)" fill="none" stroke="#fff" stroke-width="0.5"/>
                      <line id="Line_45" data-name="Line 45" x1="3.83" y2="0.527" transform="translate(610.834 281.639)" fill="none" stroke="#fff" stroke-width="0.5"/>
                      <line id="Line_46" data-name="Line 46" x1="3.701" y1="1.409" transform="translate(611.842 276.087)" fill="none" stroke="#fff" stroke-width="0.5"/>
                    </g>
                  </g>
                  <g id="Group_1155" data-name="Group 1155">
                    <path id="Path_251" data-name="Path 251" d="M650.863,158.915c-2.476-5.155-11.277-5.744-16.554-3.549s-12.11,12.73-5,25.824c5,9.212,19.873,36.919,19.873,36.919l-22.328,42.7,15.5-2.271,26.165-37.806c1.878-2.867,1.5-6.243.269-9.205C668.631,211.155,659.41,176.7,650.863,158.915Z" fill="#e8755d"/>
                    <path id="Path_252" data-name="Path 252" d="M636.449,242.265s-7.933,16.215-9.265,17.872-3.008,3.735-2.51,4.819a23.634,23.634,0,0,1,.765,8.821c-.462,2.7-1.279,4.247-.332,5.35s2.391,1.808,3.272.771c.314-.373.519-.617.668-.79a1.018,1.018,0,0,0,.066.172.166.166,0,0,0,.266.011c.1.737.615,2.009,2.818,2.655.7.209,1.668-.731,1.9-1.557.027-.036.044-.074.068-.11.142,1.234,2.684,2.294,3.883,1.247.562-.493,1.6-.693,2.492-3.727,1.156-3.907.986-5.711.818-10.972s1.012-8.479,1.557-9.411,7.123-9.911,7.123-9.911Z" fill="#e8755d"/>
                  </g>
                  <path id="Path_253" data-name="Path 253" d="M621.23,265.389l4,1.469,2.361-3.951-1.254-1.6Z" fill="#e8755d"/>
                </g>
                <path id="Path_254" data-name="Path 254" d="M627.279,149.173c-8.9,6.024-5.916,17.1-4.455,27.017,1.369,9.309,3.971,21.742,8.057,30.079,4.957-7.949,11.16-8.989,20.142-9.773,9-.787,11.938-5.73,17.6-12.3-9.088-3.051-11.721-21.147-17.111-28.292-3.262-4.323-6-6.488-11.625-7.912a38.8,38.8,0,0,0-7.864-.619A28.483,28.483,0,0,0,627.279,149.173Z" fill="#6fadae"/>
              </g>
            </g>
          </g>
          <g id="Group_1188" data-name="Group 1188">
            <path id="Path_255" data-name="Path 255" d="M488.105,460.218c0,6.69-29,12.115-64.769,12.115s-64.769-5.425-64.769-12.115,29-12.118,64.769-12.118S488.105,453.524,488.105,460.218Z" fill="#b5b5b5" opacity="0.5" style="mix-blend-mode: multiply;isolation: isolate"/>
            <g id="Group_1169" data-name="Group 1169">
              <g id="Group_1164" data-name="Group 1164">
                <g id="Group_1161" data-name="Group 1161">
                  <path id="Path_256" data-name="Path 256" d="M459.162,439.6c5.924,5.757,12.8,4.25,19.924,7.785a6.678,6.678,0,0,1,2.43,1.8,4.485,4.485,0,0,1,.757,3.63,5.327,5.327,0,0,1-4.134,3.82,18.052,18.052,0,0,1-6.147.027q-11.484-1.254-22.967-2.506a6.552,6.552,0,0,1-3.154-.913c-1.773-1.228-1.826-10.528-1.9-12.6,4.824.255,11.863,1.788,15.187-1.043" fill="#304585"/>
                  <g id="Group_1160" data-name="Group 1160">
                    <path id="Path_257" data-name="Path 257" d="M467.348,443.706a6.529,6.529,0,0,1-3.258,5.479c-.28.148-.684.253-.875-.025a.667.667,0,0,1-.08-.42c.078-.807.777-1.348,1.322-1.906a6.113,6.113,0,0,0,1.5-2.649,2.283,2.283,0,0,1,.324-.828.557.557,0,0,1,.762-.151c.228.2.189.567.3.5"/>
                    <path id="Path_258" data-name="Path 258" d="M465.045,442.5a3.772,3.772,0,0,1-.91,3.179,19.816,19.816,0,0,1-2.994,3.332,2.435,2.435,0,0,1-.967.605.892.892,0,0,1-1-.363,1.074,1.074,0,0,1,.221-1.2,3.781,3.781,0,0,1,1.054-.694,7.089,7.089,0,0,0,3.276-4.119c.129-.419.267-.9.646-1.059a.628.628,0,0,1,.7.181c.17.209.205.529-.027.138"/>
                    <path id="Path_259" data-name="Path 259" d="M463,441.4a5.292,5.292,0,0,1-3.1,4.822,1.511,1.511,0,0,1-.742.143.7.7,0,0,1-.588-.459.782.782,0,0,1,.223-.733,1.879,1.879,0,0,1,.662-.4,4.307,4.307,0,0,0,2.3-1.758,4.538,4.538,0,0,0,.369-1.463c.031-.206.076-.443.254-.53.232-.114.5.157.541.429s-.063.545.084-.054"/>
                  </g>
                  <path id="Path_260" data-name="Path 260" d="M479.4,460.335c-8.132,2.115-24.775.733-33.505-2.045-2.061-.653-1.231-5.392-1.213-7.94,2.88,4.475,9,4.43,26.8,5.484,4.824.288,9.285,1.4,11.005-4.11C483.894,455.974,481.293,459.843,479.4,460.335Z" fill="#fff"/>
                  <ellipse id="Ellipse_1042" data-name="Ellipse 1042" cx="2.5" cy="3" rx="2.5" ry="3" transform="translate(378.094 449.607)" fill="#fff" opacity="0.949"/>
                  <g id="Group_1530" data-name="Group 1530" transform="translate(379.84 450.803)" opacity="0.998" style="mix-blend-mode: normal;isolation: isolate">
                    <path id="Path_17" data-name="Path 17" d="M128.381,133.661l-.73,1.461.73.113-.612,1.364,1.453-1.477-.761-.152.761-1.157Z" transform="translate(-127.651 -132.712)" fill="#ba8606" opacity="0.704"/>
                    <ellipse id="Ellipse_1002" data-name="Ellipse 1002" cx="0.412" cy="0.411" rx="0.412" ry="0.411" transform="translate(0.85 0)" fill="#ba8606" opacity="0.704"/>
                  </g>
                </g>
                <g id="Group_1163" data-name="Group 1163">
                  <g id="Group_1162" data-name="Group 1162">
                    <path id="Path_261" data-name="Path 261" d="M443.777,443.358s-9.812-40.737-9.939-93.1c-.033-13.065-9.715-71.322-13.166-95.911a127.68,127.68,0,0,1,.7-39.179l37.994,6.746s8.106,95.311,8.18,114.054c.113,27.17-4.135,33.256-4.135,33.256l-.533,72.9Z" fill="#2d2d2f"/>
                    <path id="Path_262" data-name="Path 262" d="M450.445,442.923l-6.668.432s-9.816-40.729-9.935-93.093c-.037-13.061-11.594-69.44-15.035-94.032-2.983-21.356,2.566-41.054,2.566-41.054l6.389,24.575c9.927,30.049,23.736,99.874,20.216,111.5C438.947,381.1,453.885,416.657,450.445,442.923Z" fill="#212121"/>
                  </g>
                </g>
                <path id="Path_263" data-name="Path 263" d="M453.867,387.838c-.609-3.916,4.352-11.793,6.551-14.082" fill="none" stroke="#282b4d" stroke-width="0.75"/>
                <path id="Path_264" data-name="Path 264" d="M455.832,405.523a48.164,48.164,0,0,1,1.891-12.853c.691-2.726,3.7-9.758,3.349-11.709" fill="none" stroke="#282b4d" stroke-width="0.75"/>
              </g>
              <g id="Group_1168" data-name="Group 1168">
                <g id="Group_1166" data-name="Group 1166">
                  <path id="Path_265" data-name="Path 265" d="M388.439,445.584c4.661,6.82,11.7,6.71,17.979,11.591a6.678,6.678,0,0,1,2.023,2.247,4.49,4.49,0,0,1,.022,3.707,5.336,5.336,0,0,1-4.815,2.923,18.04,18.04,0,0,1-6.029-1.2q-11-3.51-22.01-7.021a6.57,6.57,0,0,1-2.908-1.523c-1.494-1.555.3-10.681.646-12.725,4.678,1.209,11.272,4.11,15.092,2" fill="#304585"/>
                  <g id="Group_1165" data-name="Group 1165">
                    <path id="Path_266" data-name="Path 266" d="M395.644,451.236a6.523,6.523,0,0,1-4.281,4.722c-.3.089-.72.111-.855-.2a.693.693,0,0,1,.006-.427c.238-.776,1.031-1.168,1.677-1.605a6.133,6.133,0,0,0,2-2.3,2.26,2.26,0,0,1,.481-.746.556.556,0,0,1,.777,0c.186.238.074.594.2.55"/>
                    <path id="Path_267" data-name="Path 267" d="M393.627,449.6a3.762,3.762,0,0,1-1.524,2.933,19.858,19.858,0,0,1-3.6,2.672,2.443,2.443,0,0,1-1.067.4.893.893,0,0,1-.912-.557,1.074,1.074,0,0,1,.455-1.131,3.744,3.744,0,0,1,1.172-.47,7.078,7.078,0,0,0,4.028-3.386c.211-.384.443-.831.843-.91a.629.629,0,0,1,.655.319c.127.238.1.558-.053.13"/>
                    <path id="Path_268" data-name="Path 268" d="M391.844,448.108a5.29,5.29,0,0,1-4,4.11,1.51,1.51,0,0,1-.756-.008.7.7,0,0,1-.485-.566.785.785,0,0,1,.364-.675,1.877,1.877,0,0,1,.728-.257,4.3,4.3,0,0,0,2.6-1.266,4.47,4.47,0,0,0,.652-1.361c.072-.194.164-.418.358-.467.248-.065.457.253.443.528s-.168.522.092-.038"/>
                  </g>
                  <path id="Path_269" data-name="Path 269" d="M404.148,469.929c-8.39.457-24.427-4.207-32.43-8.665-1.89-1.051-.133-5.531.39-8.025,1.935,4.96,7.935,6.131,25.171,10.7,4.672,1.241,8.821,3.221,11.6-1.84C409.42,466.549,406.1,469.824,404.148,469.929Z" fill="#fff"/>
                  <ellipse id="Ellipse_1041" data-name="Ellipse 1041" cx="2.5" cy="3" rx="2.5" ry="3" transform="translate(378.094 449.607)" fill="#fff" opacity="0.949"/>
                  <g id="Group_1529" data-name="Group 1529" transform="translate(379.84 450.803)" opacity="0.998" style="mix-blend-mode: normal;isolation: isolate">
                    <path id="Path_17-2" data-name="Path 17" d="M128.381,133.661l-.73,1.461.73.113-.612,1.364,1.453-1.477-.761-.152.761-1.157Z" transform="translate(-127.651 -132.712)" fill="#ba8606" opacity="0.704"/>
                    <ellipse id="Ellipse_1002-2" data-name="Ellipse 1002" cx="0.412" cy="0.411" rx="0.412" ry="0.411" transform="translate(0.85 0)" fill="#ba8606" opacity="0.704"/>
                  </g>
                </g>
                <g id="Group_1167" data-name="Group 1167">
                  <path id="Path_270" data-name="Path 270" d="M399.943,219.447s-8.666,7.074-13.752,47.539c-3.834,30.516.776,52.263-3.234,74.313-5,27.466-11.163,105.213-11.163,105.213s11.694,1.752,15.919,1.914c4.258.163,5.24-2.292,5.24-2.292s13.6-68.62,18.344-74.735c6.14-7.917,20.605-89.637,24.1-133.9C436.607,222.2,420.865,223.539,399.943,219.447Z" fill="#2d2d2f"/>
                  <path id="Path_271" data-name="Path 271" d="M394.949,266.831c4.039-32.113,16.024-41.887,18.449-45.094-4.123-.635-17.57-2.246-22.384-3.186,0,0,.242,8.032-4.842,48.5-3.836,30.513.775,52.263-3.237,74.314-5,27.467-11.163,105.212-11.163,105.212l15,1.833-.515-.746a192.35,192.35,0,0,1-1.223-44.765s2.821-31.955,5.707-44.164c1.834-7.748,6.131-13.283,6.678-16.281C401.424,320.4,391.115,297.351,394.949,266.831Z" fill="#1d1d1d"/>
                </g>
                <path id="Path_272" data-name="Path 272" d="M390.006,396.353c3.806-7.458,8.769-15.067,15.719-20.632" fill="none" stroke="#282b4d" stroke-width="0.75"/>
                <path id="Path_273" data-name="Path 273" d="M395.9,395.371c.924-2.835,4.2-5.257,5.241-7.533" fill="none" stroke="#282b4d" stroke-width="0.75"/>
              </g>
              <path id="Path_274" data-name="Path 274" d="M463,242.16a1.058,1.058,0,0,0-.688-1.192c-2.24-.267-4.41.348-6.625.78-3.328.652-6.781.251-10.135.376-6.561.246-13.126.044-19.686.1-6.531.058-13.058.188-19.587-.083-4.864-.2-11.265,1.181-15.779-1.717-.751-.484-1.275.606-1.13,1.5a.15.15,0,0,1-.005.036.522.522,0,0,0-.241.482c0,.671-.028,1.335-.055,2a5.09,5.09,0,0,0-.1,1.759c-.008.121-.014.238-.025.357-.213,1.547-.4-.594-.427.986-.012.564.409.759.649.494,0,.278.2.529.386.293,1.163-1.439,2.068-.335,3.6-.293,1.41.022,3.5-.587,5.655-.623,3.227.369,6.447.945,9.683,1.386,5.944.821,11.894,1.689,17.856,2.191a79.079,79.079,0,0,0,17.071-.529,94.329,94.329,0,0,1,10.591-1.226,30.225,30.225,0,0,0,8.356-.933,1.126,1.126,0,0,0,.627-1.245A22.791,22.791,0,0,1,463,242.16Z" transform="translate(-1)" fill="#43271f"/>
            </g>
            <g id="Group_1170" data-name="Group 1170">
              <path id="Path_275" data-name="Path 275" d="M397.7,131.21c-17.148,4.958-7.392,41.108-6.48,61.466a275.3,275.3,0,0,1-2.52,47.65s26.477,3.436,45.133,2.985c13.215-.318,29.621-1.15,29.621-1.15s-1.767-48.966-1.24-62.238c.447-11.389,3.383-27.239.193-38.249-3.3-11.393-29.726-14.02-37.834-14.7S411.568,127.207,397.7,131.21Z" fill="#3f439b"/>
              <path id="Path_276" data-name="Path 276" d="M463.451,242.161c-3.748.363-19.117,1.606-30.379,1.873-18.656.457-45.24-3.8-45.24-3.8a276.022,276.022,0,0,0,2.514-47.644c-.911-20.366-10.668-56.509,6.482-61.465,12.395-3.584,17.639-4.7,24.4-4.407.592.316,1.184.633,1.77.913-8.356.3-9.6,20.088-6.978,35.971,22.977,8.421,8.637,17.235,2.654,22.633,1.92,6.465,10.635,3.677,14.4,9.421,4.229,6.451,8.012,14.024,13.737,18.574,5.285,4.183,3.154,8.111,4.591,13.83C452.627,232.953,464.1,223.189,463.451,242.161Z" fill="#2b3471"/>
            </g>
            <g id="Group_1175" data-name="Group 1175">
              <g id="Group_1172" data-name="Group 1172">
                <g id="Group_1171" data-name="Group 1171">
                  <rect id="Rectangle_157" data-name="Rectangle 157" width="44.95" height="53.02" transform="translate(456.221 167.138) rotate(-89.888)" fill="#6fadae"/>
                  <rect id="Rectangle_158" data-name="Rectangle 158" width="33.416" height="42.66" transform="translate(466.602 155.624) rotate(-89.887)" fill="#b4d3d3"/>
                </g>
                <rect id="Rectangle_159" data-name="Rectangle 159" width="19.683" height="10.157" transform="translate(486.68 128.291) rotate(-0.563)" fill="#f8c331"/>
                <line id="Line_47" data-name="Line 47" x2="0.336" y2="34.101" transform="translate(460.332 125.017)" fill="none" stroke="#282b4d" stroke-width="0.75"/>
              </g>
              <g id="Group_1174" data-name="Group 1174">
                <g id="Group_1173" data-name="Group 1173">
                  <rect id="Rectangle_160" data-name="Rectangle 160" width="71.846" height="93.865" transform="translate(435.773 238.425) rotate(-89.889)" fill="#b5b5b5"/>
                  <rect id="Rectangle_161" data-name="Rectangle 161" width="51.568" height="72.754" transform="translate(456.777 218.187) rotate(-89.887)" fill="#e1dcd7"/>
                </g>
                <rect id="Rectangle_162" data-name="Rectangle 162" width="36.41" height="11.6" transform="translate(465.159 182.719) rotate(-0.566)" fill="#f6c130"/>
                <rect id="Rectangle_163" data-name="Rectangle 163" width="36.411" height="11.6" transform="matrix(1, -0.01, 0.01, 1, 489.673, 202.215)" fill="#ffd757"/>
                <line id="Line_48" data-name="Line 48" x2="0.48" y2="48.799" transform="translate(447.039 176.931)" fill="none" stroke="#282b4d" stroke-width="0.75"/>
              </g>
            </g>
            <g id="Group_1184" data-name="Group 1184">
              <g id="Group_1176" data-name="Group 1176">
                <path id="Path_277" data-name="Path 277" d="M425.5,110.755c-1.9,6.689-1.7,10.749-5.549,17.6-1.615,2.882,22.59,11.115,23.264,6.734.49-3.193.4-5.043.723-7.78a97.023,97.023,0,0,1,2.431-13.133C441.408,113.68,430.691,111.943,425.5,110.755Z" fill="#a25946"/>
              </g>
              <g id="Group_1177" data-name="Group 1177">
                <path id="Path_278" data-name="Path 278" d="M444.246,124.917a95.829,95.829,0,0,1,2.119-10.741c-4.537-.453-13.881-1.946-19.42-3.107C430.623,118.611,436.939,122.76,444.246,124.917Z" fill="#bc624d"/>
              </g>
            </g>
            <g id="Group_1187" data-name="Group 1187">
              <path id="Path_295" data-name="Path 295" d="M380.316,181.28s-3.726,30.705.061,40.252c3.555,8.966,7.269,8.63,15.566,9.246s37.3-2.836,37.3-2.836l-7.894-12.81-22.26-4.985,1.664-11.72,1.91-21.49Z" fill="#a25946"/>
              <path id="Path_296" data-name="Path 296" d="M379.547,188.964l-.635,9.179,22.7-7.849.369-7.258-22.238,2.892Z" fill="#c6573f" opacity="0.4" style="mix-blend-mode: multiply;isolation: isolate"/>
              <path id="Path_297" data-name="Path 297" d="M402.223,131.53s-14.3-4.78-22.043,15.927c-3.315,8.862-2.758,22.477-4.01,31.741-.69,5.1,3.2,9.083,3.2,9.083h22.858s4.619-2.034,5.685-5.725c2.611-9.04,3.618-27.476,3.041-33.962C409.471,132.024,402.223,131.53,402.223,131.53Z" fill="#3f439b"/>
              <g id="Group_1186" data-name="Group 1186">
                <g id="Group_1185" data-name="Group 1185">
                  <path id="Path_298" data-name="Path 298" d="M425.344,215.132l1.328,13.483,17.289-1.251s13.371.2,15.228-4.667c5.159-13.509-11.545-8.6-11.545-8.6,1.165-3.219,3.713-6.109,2.948-6.878-2.951-2.963-9.34,7.217-17.194,7.86C430.6,215.313,425.344,215.132,425.344,215.132Z" fill="#fff"/>
                </g>
                <path id="Path_299" data-name="Path 299" d="M455.383,218.031a27.333,27.333,0,0,1,4.605-1.535" fill="none" stroke="#282b4d" stroke-width="0.5"/>
                <path id="Path_300" data-name="Path 300" d="M455.383,220.671a36.851,36.851,0,0,0,4.728-.921" fill="none" stroke="#282b4d" stroke-width="0.5"/>
                <path id="Path_301" data-name="Path 301" d="M455.506,223.5a17.817,17.817,0,0,0,3.683-.8" fill="none" stroke="#282b4d" stroke-width="0.5"/>
                <path id="Path_302" data-name="Path 302" d="M448.014,213.978a16.457,16.457,0,0,0,2.808-.6,12.168,12.168,0,0,1,2.041-.261,29.412,29.412,0,0,0,4.865-.86,13.7,13.7,0,0,0,2.8-1.644c.5-.367,4-2.99,5.237-1.979,1.351,1.106-5.069,7.1-5.957,7.43-1.016.377-1.948.037-3.057,0a14.486,14.486,0,0,1-4.266-.306,3.218,3.218,0,0,1-1.765-2.15" fill="#fff"/>
              </g>
              <ellipse id="Ellipse_1040" data-name="Ellipse 1040" cx="6" cy="6.5" rx="6" ry="6.5" transform="translate(387.094 164.607)" fill="#fff" opacity="0.949"/>
              <g id="Group_1527" data-name="Group 1527" transform="translate(391.094 166.607)" opacity="0.998" style="mix-blend-mode: normal;isolation: isolate">
                <path id="Path_17-3" data-name="Path 17" d="M129.323,133.661l-1.672,3.345,1.672.259-1.4,3.123,3.329-3.382-1.743-.348,1.743-2.649Z" transform="translate(-127.651 -131.487)" fill="#ba8606" opacity="0.704"/>
                <ellipse id="Ellipse_1002-3" data-name="Ellipse 1002" cx="0.942" cy="0.942" rx="0.942" ry="0.942" transform="translate(1.947 0)" fill="#ba8606" opacity="0.704"/>
              </g>
            </g>
            <path id="Path_544" data-name="Path 544" d="M330.619,216.17l-4.831,6.791,13.023,9.567,6.859-4.958,4.365,4.571,9.509-8.113-6.079-3.734h-9.848Z" transform="translate(90.28 -89.5)" fill="#2b3471"/>
            <g id="Group_1528" data-name="Group 1528" transform="matrix(0.996, 0.087, -0.087, 0.996, 417.124, 60.904)">
              <g id="Shirt" transform="translate(0.538 42.006)">
                <path id="Path_476" data-name="Path 476" d="M844.2,272.5" transform="translate(-841.538 -268.356)" fill="#9f5848" stroke="#060707" stroke-width="1.064"/>
                <path id="Path_477" data-name="Path 477" d="M929.348,277.82" transform="translate(-900.543 -272.044)" fill="#b56652" stroke="#060707" stroke-width="1.064"/>
                <path id="Path_480" data-name="Path 480" d="M835.519,259.006" transform="translate(-835.519 -259.006)" fill="#1f285c" stroke="#060707" stroke-width="0.942"/>
              </g>
              <g id="Head" transform="translate(-1 6)">
                <path id="Path_482" data-name="Path 482" d="M954.947,213.3a17.476,17.476,0,0,1,3.229,7.78s1.237,6.132-2.759,10.834h0s.78-14.015-.633-16.885" transform="translate(-917.058 -184.026)" fill="#b56652"/>
                <path id="Path_483" data-name="Path 483" d="M862.1,184.519c-.352.184.687,8.193,2.427,9.037-.164.32,4.169,5.793,4.758,5.187.08-.082,4.221-4.038,5-4.612a13.011,13.011,0,0,1,9.238-4.871s5.8-.72,9.146.017c0,0,1.179-.44.936-2.676l.123-1.912-1-5.826s.346-5.676-.689-8.016-.049-.156-.049-.156l-1.939-6.367c.035-.041-1.047,3.021-8.813,1.513,0,0-11.964-2.435-18.081,4.653a13.446,13.446,0,0,1-.761,7.124A10.094,10.094,0,0,0,862.1,184.519Z" transform="translate(-853.279 -150.082)" fill="#b56652"/>
                <path id="Path_484" data-name="Path 484" d="M880.861,196.923s2.351-5.356,6.036-7.164l1.465-1.554-.611-.158s-6.353-1.651-5-4.369l-2.561,6.857a36.993,36.993,0,0,0-1.165,3.63C879.093,194.391,880.861,196.923,880.861,196.923Z" transform="translate(-865.349 -163.495)" fill="#9f5848"/>
                <path id="Path_485" data-name="Path 485" d="M864.638,178.961l4.445-4.2a16.1,16.1,0,0,1,1.814,6.647c.047,3.456-1.537,5.434-2.005,7.413a11.313,11.313,0,0,0,2.341,8.344,15.611,15.611,0,0,1,1.956,5.53c-.406.3-1.759.986-1.759.986l-1.962-1.843s-4.471-8.756-4.455-10.086S865.386,181.225,864.638,178.961Z" transform="translate(-855.378 -157.318)" fill="#9f5848"/>
                <path id="Path_486" data-name="Path 486" d="M864.437,179.164l4.445-4.2a16.1,16.1,0,0,1,1.814,6.647c.048,3.456-1.537,5.434-2,7.413a11.313,11.313,0,0,0,2.341,8.344,15.613,15.613,0,0,1,1.956,5.53c-.406.3-1.76.986-1.76.986l-1.962-1.843s-4.471-8.757-4.455-10.087S865.185,181.428,864.437,179.164Z" transform="translate(-855.239 -157.459)" fill="#9f5848"/>
                <path id="Path_487" data-name="Path 487" d="M875.906,177.43l4.445-4.2a16.1,16.1,0,0,1,1.814,6.647c.048,3.456-1.536,5.434-2,7.413a11.313,11.313,0,0,0,2.341,8.344,15.606,15.606,0,0,1,1.956,5.53c-.406.3-1.76.985-1.76.985l-1.962-1.843s-4.471-8.756-4.455-10.086S876.654,179.694,875.906,177.43Z" transform="translate(-863.187 -156.257)" fill="#9f5848"/>
                <path id="Path_488" data-name="Path 488" d="M856.639,183.58l4.521-4.229a16.119,16.119,0,0,1,1.845,6.7c.048,3.483-1.563,5.477-2.039,7.471a11.324,11.324,0,0,0,2.381,8.409,15.634,15.634,0,0,1,1.989,5.573c-.412.3-1.79.993-1.79.993l-2-1.857s-4.547-8.825-4.531-10.165S857.4,185.862,856.639,183.58Z" transform="translate(-849.835 -160.496)" fill="#8f4f42"/>
                <path id="Path_489" data-name="Path 489" d="M944.686,173.142s3.9,1.494,4.707,4.716l.707-1.8-1.845-5.392-3.787,2.382Z" transform="translate(-910.701 -154.475)" fill="#8f4f42"/>
                <path id="Path_490" data-name="Path 490" d="M904.666,196.252s4.782-.929,5.559.239a7.23,7.23,0,0,1,1.82,3.839s-.922-5.268-2.039-7.282l-2.646.658Z" transform="translate(-883.118 -169.989)" fill="#9f5848"/>
                <path id="Path_491" data-name="Path 491" d="M936.055,190.3s-1.408,1.359-.8,4.879c0,0,1.752-4.712,3.777-4.165V190.3L937.2,190Z" transform="translate(-904.21 -167.879)" fill="#9f5848"/>
                <path id="Path_492" data-name="Path 492" d="M889.02,238.24s5,5.288,7.671,2.327a34.841,34.841,0,0,1-1.425,4.628c-.565,1.1-3.478,3.237-3.478,3.237Z" transform="translate(-872.275 -201.307)" fill="#9f5848"/>
                <path id="Path_493" data-name="Path 493" d="M849.986,160.641c1.713.2,2.269,0,2.448-.144.655-.536,2.219-2.395,3.059-2.768.922-.411,6.716-1.675,6.716-1.675,3.5-.964,8.411-.7,8.842-.364,5.151,3.99,3.739-3.123,3.739-3.123l-.126-1.552c2.24,3.876,2.457,11.23,2.457,11.23-1.029,7.234-4.6,8.69-4.6,8.69-4.215,2.945-10.017,3.19-10.017,3.19a20.861,20.861,0,0,1-8.618-.933A23.282,23.282,0,0,1,849.5,171.1c-.984-.485-2.937-2.16-5.122-5.631-.032-.051.1.192-1.286-2.511-1.422-2.771-1.246-3.8-1.246-3.8,2.929-.369.518-5.974.518-5.974-2.694-4.329-5.914-3.478-5.914-3.478-3.3-6.311-1.46-14.072-1.46-14.072,2.859-8.739,13.892-12.778,13.892-12.778,16.81.674,18.854-4.929,18.854-4.929,2.2,2.557,3.762,11.606,3.762,11.606,1,.809,2.428,6.764,2.428,6.764,1.295,7.638-.034,9.833.03,9.736s-.861-6.12-.861-6.12c-.13-2.1-2.3-6.464-2.3-6.464-2.33,1.91-6.742.486-6.742.486a52.332,52.332,0,0,0-6.052-.518c-9.742.162-13.076,5.081-13.076,5.081,1.812,3.366-.426,7.428-.426,7.428-1.672,1.586-.428,5.568-.428,5.568a19.346,19.346,0,0,0,2.637,6.9,4.373,4.373,0,0,0,2.173,1.9Z" transform="translate(-834.474 -117.932)" fill="#090a0a"/>
                <path id="Path_494" data-name="Path 494" d="M896.943,207.1s2.966-4.409,7.521-1.557c0,0,1.335,2.1-1.906,3.386C899.147,210.288,896.943,207.1,896.943,207.1Z" transform="translate(-877.766 -177.985)" fill="#0a0a0a"/>
                <path id="Path_495" data-name="Path 495" d="M943.991,199.967s-3.6-2.4-5.179.8c0,0,.1,2.955,3.657,2.146A2.479,2.479,0,0,0,943.991,199.967Z" transform="translate(-906.781 -174.185)" fill="#0a0a0a"/>
                <path id="Path_496" data-name="Path 496" d="M898.96,207.511s2.347-3.39,6.9-1.286c0,0,1.512,2.068-2.283,3.314C903.579,209.54,900.158,210.462,898.96,207.511Z" transform="translate(-879.164 -178.644)" fill="#fff"/>
                <path id="Path_497" data-name="Path 497" d="M943.706,200.442a2.042,2.042,0,0,1-1.092,2.731,2.943,2.943,0,0,1-3.37-.834s-1.243-1.764,1.658-2.516A4.5,4.5,0,0,1,943.706,200.442Z" transform="translate(-906.898 -174.664)" fill="#f1f1f2"/>
                <path id="Path_498" data-name="Path 498" d="M901.053,208.533s.54,1.826,3.179,1.656a3.224,3.224,0,0,1-3.889-1.911s1.953-2.822,5.705-1.063C906.049,207.215,902.508,206.417,901.053,208.533Z" transform="translate(-880.123 -179.407)" fill="#d5d5d5"/>
                <path id="Path_499" data-name="Path 499" d="M939.867,201.839s1.231-2.413,4.228-.549c0,0-2.851-.433-3.632.6a1.294,1.294,0,0,0,.634,1.632A1.523,1.523,0,0,1,939.867,201.839Z" transform="translate(-907.512 -175.211)" fill="#d5d5d5"/>
                <ellipse id="Ellipse_1030" data-name="Ellipse 1030" cx="1.547" cy="1.547" rx="1.547" ry="1.547" transform="translate(20.58 27.708)" fill="#1a1a1a"/>
                <ellipse id="Ellipse_1031" data-name="Ellipse 1031" cx="1.547" cy="1.547" rx="1.547" ry="1.547" transform="translate(32.5 25.542)" fill="#1a1a1a"/>
                <ellipse id="Ellipse_1032" data-name="Ellipse 1032" cx="1.135" cy="1.135" rx="1.135" ry="1.135" transform="translate(32.912 25.954)" fill="#040505"/>
                <ellipse id="Ellipse_1033" data-name="Ellipse 1033" cx="1.135" cy="1.135" rx="1.135" ry="1.135" transform="translate(20.909 28.12)" fill="#040505"/>
                <ellipse id="Ellipse_1034" data-name="Ellipse 1034" cx="0.317" cy="0.317" rx="0.317" ry="0.317" transform="translate(20.786 28.746)" fill="#fff"/>
                <ellipse id="Ellipse_1035" data-name="Ellipse 1035" cx="0.317" cy="0.317" rx="0.317" ry="0.317" transform="translate(32.844 26.404)" fill="#fff"/>
                <ellipse id="Ellipse_1036" data-name="Ellipse 1036" cx="0.166" cy="0.166" rx="0.166" ry="0.166" transform="translate(23.013 29.557)" fill="#fff"/>
                <ellipse id="Ellipse_1037" data-name="Ellipse 1037" cx="0.166" cy="0.166" rx="0.166" ry="0.166" transform="translate(34.779 27.537)" fill="#fff"/>
                <path id="Path_500" data-name="Path 500" d="M900.436,217.328s5.187-.12,6.449-2.573C906.885,214.755,905.663,217.595,900.436,217.328Z" transform="translate(-880.186 -185.032)" fill="#9f5848"/>
                <path id="Path_501" data-name="Path 501" d="M941.463,210.167a4.205,4.205,0,0,0,4.607.32A3.664,3.664,0,0,1,941.463,210.167Z" transform="translate(-908.618 -181.852)" fill="#9f5848"/>
                <path id="Path_502" data-name="Path 502" d="M887.238,197.124s4.52-6.156,10.991-4.184c0,0-.576-2.371-3.616-1.791,0,0-3.258.431-3.9,1.164C890.716,192.314,887.7,194.878,887.238,197.124Z" transform="translate(-871.04 -168.61)" fill="#0a0a0a"/>
                <path id="Path_503" data-name="Path 503" d="M935.534,190.184s-.532-1.378,1.255-2.07a7.693,7.693,0,0,1,2.324-.406,6.768,6.768,0,0,1,3.825,2.476S938.666,187.542,935.534,190.184Z" transform="translate(-904.458 -166.282)" fill="#0a0a0a"/>
                <path id="Path_504" data-name="Path 504" d="M932.7,266.979s2.694.631,4.466-.522c0,0-.194,1.024-.5,1.137l-.043-.178-2.391.255.026.329S932.835,267.634,932.7,266.979Z" transform="translate(-902.547 -220.862)" fill="#9f5848"/>
                <path id="Path_505" data-name="Path 505" d="M909.088,249.631a4.241,4.241,0,0,0-2.549,3.811c-.065.805,0,.121,0,.121s-.34,3.3,5.146,4.369c0,0,4.847.595,4.41-3.143l2.363-.279s.825,2.622,1.893,1.554c0,0,2.5-3.01,2.039-6.093,0,0,.316-2.549-5.34-1.991C917.05,247.98,909.816,248.9,909.088,249.631Z" transform="translate(-884.396 -208.002)" fill="#b56652"/>
                <path id="Path_506" data-name="Path 506" d="M916.283,251.929a7.346,7.346,0,0,0,6.489,4.45s4.046.388,4.24-2.751l.194-3.042a22.514,22.514,0,0,1-6.441,1.23,9.8,9.8,0,0,1-4.15,0Z" transform="translate(-891.169 -209.863)" fill="#0c0c0c"/>
                <path id="Path_507" data-name="Path 507" d="M927.222,249.2a49.306,49.306,0,0,1,5.62-.655,22.184,22.184,0,0,1-6.16.74Z" transform="translate(-898.375 -208.439)" fill="#9f5848"/>
                <path id="Path_508" data-name="Path 508" d="M917.057,251.932s2,1.881,6.043,1.428a23.213,23.213,0,0,0,3.156-.469,1.949,1.949,0,0,0,1.217-2.132,33.1,33.1,0,0,1-5.668,1.151A34.172,34.172,0,0,1,917.057,251.932Z" transform="translate(-891.705 -209.983)" fill="#fdfeff"/>
                <path id="Path_509" data-name="Path 509" d="M917.057,251.932l2.791.061a3.372,3.372,0,0,0,3.269,1.326c1.068-.162,3.536-.356,3.908-1.125a2.577,2.577,0,0,0,.448-1.436,2,2,0,0,1-1.217,2.132s-4.541.924-6.278.354A7.079,7.079,0,0,1,917.057,251.932Z" transform="translate(-891.705 -209.983)" fill="#cdcdcd"/>
                <path id="Path_510" data-name="Path 510" d="M928.568,235.8s-1.053,0-.066-.553c0,0,1.052-.4,1.327.13,0,0,2.431,1.3,3.208-.078a.544.544,0,0,1,.751-.453s.416.364-.749.522c0,0-.584,1.106-3.218.1A2.356,2.356,0,0,1,928.568,235.8Z" transform="translate(-899.344 -198.929)" fill="#9f5848"/>
                <path id="Path_511" data-name="Path 511" d="M926.011,233.472s-1.4-.279-.627-2.391C925.384,231.081,923.762,233.181,926.011,233.472Z" transform="translate(-897.083 -196.346)" fill="#9f5848"/>
                <path id="Path_512" data-name="Path 512" d="M944.389,230.733s1.226-.882-1.044-2.617C943.345,228.116,946.064,229.552,944.389,230.733Z" transform="translate(-909.923 -194.291)" fill="#9f5848"/>
                <path id="Path_513" data-name="Path 513" d="M907.447,203.785s3.665-.637,4.928.936c0,0-.461-1.14-.777-1.262A13.638,13.638,0,0,0,907.447,203.785Z" transform="translate(-885.045 -177.184)" fill="#6b3b35"/>
                <path id="Path_514" data-name="Path 514" d="M938.112,199.7s-.121-1.611.68-2.012a5.324,5.324,0,0,1,2.681-.206S938.743,197.691,938.112,199.7Z" transform="translate(-906.292 -172.975)" fill="#6b3b35"/>
                <path id="Path_515" data-name="Path 515" d="M936.373,222.833s2.355.7,2.234-1.7a10.282,10.282,0,0,0-2.473-5.12s3.808,5.34,1.587,6.53a1.871,1.871,0,0,1-1.844.092A2.242,2.242,0,0,0,936.373,222.833Z" transform="translate(-904.747 -185.903)" fill="#9f5848"/>
                <path id="Path_516" data-name="Path 516" d="M964.147,199.644l2.171-1.128s-.356-1.45-1.242-1.554l-.744.21Z" transform="translate(-924.339 -172.701)" fill="#161215"/>
                <path id="Path_517" data-name="Path 517" d="M844.922,199.792l11.5-2.313s.534.1.7.9a1.016,1.016,0,0,0,1.117.024s.825-4.369,7.573-3.738c0,0,1.942.631,2.355,1.651a.876.876,0,0,0,1.019-.728,2.052,2.052,0,0,1,2.379-.219s.752.874,1.311-.485c0,0,1.287-2.549,5.292-2.622,0,0,3.3-.364,4.272,2.063,0,0,1.165.219,1.262-.631,0,0-.219-.947.558-1.02,0,0,.971-1.942-1.651-1.748,0,0-8.957-.024-11.312,3.155a6.356,6.356,0,0,0-2.136.34s-5.68-2.136-12.865,1.117l-12.6,3.524Z" transform="translate(-840.869 -168.508)" fill="#0d0d0d"/>
                <path id="Path_518" data-name="Path 518" d="M891.572,204.909s1.643-3.247,7.954-1.936c0,0,4.284,1.974,1.764,5.906,0,0-4.591,5.341-7.913,1.408a9.488,9.488,0,0,1-1.8-3.86A3.227,3.227,0,0,1,891.572,204.909Z" transform="translate(-873.972 -176.651)" fill="#b9d3db" stroke="#0d0d0d" stroke-width="1.548" opacity="0.7"/>
                <path id="Path_519" data-name="Path 519" d="M891.314,204.862s1.643-3.247,7.954-1.936c0,0,4.284,1.975,1.764,5.907,0,0-4.591,5.341-7.913,1.408a9.486,9.486,0,0,1-1.8-3.859A3.227,3.227,0,0,1,891.314,204.862Z" transform="translate(-873.794 -176.618)" fill="none" stroke="#0d0d0d" stroke-width="1.548"/>
                <path id="Path_520" data-name="Path 520" d="M946.955,194.573s-2.474-2.669-8.18.331c0,0-3.125,2.325.4,5.707,0,0,5.415,4.325,7.524-.371a9.488,9.488,0,0,0,.671-4.207A3.228,3.228,0,0,0,946.955,194.573Z" transform="translate(-905.871 -170.287)" fill="#b9d3db" stroke="#0d0d0d" stroke-width="1.548" opacity="0.7"/>
                <path id="Path_521" data-name="Path 521" d="M946.955,194.7s-2.474-2.669-8.18.331c0,0-3.125,2.325.4,5.707,0,0,5.415,4.325,7.524-.371a9.488,9.488,0,0,0,.671-4.207A3.228,3.228,0,0,0,946.955,194.7Z" transform="translate(-905.871 -170.373)" fill="none" stroke="#0d0d0d" stroke-width="1.548"/>
                <path id="Path_522" data-name="Path 522" d="M952.722,195.673s3.3-.783,4.466.892A8.971,8.971,0,0,0,952.722,195.673Z" transform="translate(-916.421 -171.681)" fill="#f1f6f7" opacity="0.7"/>
                <path id="Path_523" data-name="Path 523" d="M958.953,196.492c-.027.177-.409.266-.853.2s-.782-.266-.755-.443.361-.139.8-.063S958.979,196.315,958.953,196.492Z" transform="translate(-919.624 -172.119)" fill="#f1f6f7" opacity="0.7"/>
                <path id="Path_524" data-name="Path 524" d="M935.574,269.1a6.026,6.026,0,0,0,3.585-.437" transform="translate(-904.537 -222.389)" fill="none" stroke="#040505" stroke-width="0.735"/>
                <path id="Path_525" data-name="Path 525" d="M944.334,248.995" transform="translate(-910.608 -208.761)" fill="none" stroke="#040505" stroke-width="0.595"/>
                <path id="Path_526" data-name="Path 526" d="M929.389,250.758" transform="translate(-900.251 -209.983)" fill="none" stroke="#040505" stroke-width="0.595"/>
                <path id="Path_527" data-name="Path 527" d="M838.566,220.038s-3.057.686-.661,5.055c0,0,3.34,5.449,5.638,5,0,0,1.262-.538,1.391-.935a8.775,8.775,0,0,0-.45-4.829s-1.663-2.541-2.342-2.864C842.14,221.46,839.778,219.513,838.566,220.038Z" transform="translate(-836.216 -188.631)" fill="#b56652"/>
                <path id="Path_528" data-name="Path 528" d="M839.587,224.527a1.232,1.232,0,0,1,1.687-.9c1.269.319,3.577,2.477,3.577,2.477-.035-.011,1.818,3.983.726,4.213-.081.026-1.165-.518-1.448-.388a6.022,6.022,0,0,1-.773.376c-.305.087-.749-.343-.786-.379a18.031,18.031,0,0,1-2.806-3.882C839.227,224.616,839.587,224.527,839.587,224.527Z" transform="translate(-837.936 -191.135)" fill="#9f5848"/>
                <path id="Path_529" data-name="Path 529" d="M843.561,223.135s5.054.651,5.054,5.846c0,0,.1.558-.071.752,0,0-.583.2-.68-.744a7.634,7.634,0,0,0-.1-1.606s-1.141.42-1.481-.142a1.324,1.324,0,0,1-.158-1.509,3.15,3.15,0,0,0-1.954-1.942S842.808,223.281,843.561,223.135Z" transform="translate(-840.615 -190.839)" fill="#7a4538"/>
                <path id="Path_530" data-name="Path 530" d="M840.216,228.233s-2.058-2.625-.965-3.548c0,0,.354-.267.323,0A5.671,5.671,0,0,0,840.216,228.233Z" transform="translate(-837.563 -191.832)" fill="#7a4538"/>
                <path id="Path_531" data-name="Path 531" d="M837.963,220.9a6.253,6.253,0,0,1,3.714-.342,2.66,2.66,0,0,0-2.594-.579S838.1,220.418,837.963,220.9Z" transform="translate(-836.892 -188.548)" fill="#9f5848"/>
                <path id="Path_532" data-name="Path 532" d="M852.486,246.539s.971-.607,1.626-.121A3.919,3.919,0,0,0,852.486,246.539Z" transform="translate(-846.956 -206.845)" fill="#9f5848"/>
                <path id="Path_533" data-name="Path 533" d="M851.98,250.006s1.333,1.25,2.461.376A2.294,2.294,0,0,1,851.98,250.006Z" transform="translate(-846.606 -209.461)" fill="#9f5848"/>
                <ellipse id="Ellipse_1038" data-name="Ellipse 1038" cx="1.438" cy="1.723" rx="1.438" ry="1.723" transform="translate(3.306 27.908) rotate(-19.643)" fill="#0a0b0b" stroke="#0a0b0b" stroke-width="0.929"/>
                <path id="Path_536" data-name="Path 536" d="M848.013,214.956a1.2,1.2,0,0,0,1.917.324A1.851,1.851,0,0,1,848.013,214.956Z" transform="translate(-843.857 -185.171)" fill="#313131"/>
                <path id="Path_537" data-name="Path 537" d="M847.749,208.385a1.2,1.2,0,0,1,1.917-.324A1.851,1.851,0,0,0,847.749,208.385Z" transform="translate(-843.674 -180.153)" fill="#313131"/>
                <path id="Path_538" data-name="Path 538" d="M850.97,212.1a.38.38,0,0,1-.734.2" transform="translate(-845.397 -183.194)" fill="#202020"/>
                <path id="Path_539" data-name="Path 539" d="M850.892,211.251a.38.38,0,1,0-.737.189" transform="translate(-845.333 -182.406)" fill="#202020"/>
              </g>
            </g>
            <path id="Path_545" data-name="Path 545" d="M875.537,278.5c3.212-4.3,3.491-3.222,3.491-3.222l-27.655-13.424c-2.148,0-1.88,1.074-1.88,1.074" transform="translate(-433.414 -135.88)" fill="#1d358c" stroke="#060707" stroke-width="0.942"/>
          </g>
        </g>
      </g>
    </g>
  </g>
</svg>
