<svg xmlns="http://www.w3.org/2000/svg" width="21" height="21" viewBox="0 0 21 21">
  <g id="clock-two" transform="translate(-1.5 -1.5)">
    <path id="Path_28" data-name="Path 28" d="M12,2A10,10,0,1,0,22,12,10,10,0,0,0,12,2Zm0,18a8,8,0,1,1,8-8A8,8,0,0,1,12,20ZM14.1,9.63l-1.1.64V7a1,1,0,0,0-2,0v5.06a1.42,1.42,0,0,0,0,.2,1.27,1.27,0,0,0,.06.18v.06a1.56,1.56,0,0,0,.16.2.92.92,0,0,0,.28.19h.08a.859.859,0,0,0,.76.04h.16l2.6-1.5a1,1,0,0,0-1-1.74Z" fill="#cdb468" stroke="#fff" stroke-width="1"/>
  </g>
</svg>
