<svg xmlns="http://www.w3.org/2000/svg" width="17.188" height="22.5" viewBox="0 0 17.188 22.5">
  <g id="ic_directions_run_24px" transform="translate(-2.302 -0.98)">
    <path id="Path_29" data-name="Path 29" d="M13.49,5.48a2,2,0,1,0-2-2A2.006,2.006,0,0,0,13.49,5.48Zm-3.6,13.9,1-4.4,2.1,2v6h2v-7.5l-2.1-2,.6-3a7.322,7.322,0,0,0,5.5,2.5v-2a4.919,4.919,0,0,1-4.3-2.4l-1-1.6a2.062,2.062,0,0,0-1.7-1c-.3,0-.5.1-.8.1l-5.2,2.2v4.7h2V9.58l1.8-.7-1.6,8.1-4.9-1-.4,2Z" fill="none" stroke="#cdb468" stroke-width="1"/>
  </g>
</svg>
