<svg xmlns="http://www.w3.org/2000/svg" width="11.755" height="13.564" viewBox="0 0 11.755 13.564">
  <g id="documents" transform="translate(-1)">
    <path id="Path_548" data-name="Path 548" d="M9.591.452l.25-.376L9.727,0H9.591ZM12.3,2.261h.452V2.018l-.2-.134Zm-.9,8.591H4.165v.9H11.4ZM3.713,10.4V1.356h-.9V10.4ZM4.165.9H9.591V0H4.165Zm7.686,1.356V10.4h.9V2.261ZM9.34.828l2.713,1.809.5-.752L9.841.076l-.5.752ZM4.165,10.851a.452.452,0,0,1-.452-.452h-.9a1.356,1.356,0,0,0,1.356,1.356Zm7.234.9A1.356,1.356,0,0,0,12.755,10.4h-.9a.452.452,0,0,1-.452.452ZM3.713,1.356A.452.452,0,0,1,4.165.9V0A1.356,1.356,0,0,0,2.809,1.356ZM1,3.165v9.043h.9V3.165Zm1.356,10.4H9.591v-.9H2.356Zm0-10.851h.9v-.9h-.9Zm8.591,9.495v-.9h-.9v.9ZM9.591,13.564a1.356,1.356,0,0,0,1.356-1.356h-.9a.452.452,0,0,1-.452.452ZM1,12.208a1.356,1.356,0,0,0,1.356,1.356v-.9a.452.452,0,0,1-.452-.452Zm.9-9.043a.452.452,0,0,1,.452-.452v-.9A1.356,1.356,0,0,0,1,3.165Z" fill="#131c4c"/>
  </g>
</svg>
