<svg xmlns="http://www.w3.org/2000/svg" width="19.969" height="17.66" viewBox="0 0 19.969 17.66">
  <g id="email-84" transform="translate(0.75 -0.25)">
    <path id="Path_50" data-name="Path 50" d="M17.314,1H1.154A1.154,1.154,0,0,0,0,2.154V16.006A1.154,1.154,0,0,0,1.154,17.16h16.16a1.154,1.154,0,0,0,1.154-1.154V2.154A1.154,1.154,0,0,0,17.314,1ZM16.16,14.851H2.309V7.606l6.353,3.63a1.152,1.152,0,0,0,1.145,0l6.353-3.63Zm0-9.9L9.234,8.906,2.309,4.948V3.309H16.16Z" stroke="#fff" stroke-width="1.5"/>
  </g>
</svg>
