<svg xmlns="http://www.w3.org/2000/svg" width="19.286" height="17" viewBox="0 0 19.286 17">
  <g id="email-84" transform="translate(0.5 -0.5)">
    <path id="Path_14" data-name="Path 14" d="M17.143,1h-16A1.143,1.143,0,0,0,0,2.143V15.857A1.143,1.143,0,0,0,1.143,17h16a1.143,1.143,0,0,0,1.143-1.143V2.143A1.143,1.143,0,0,0,17.143,1ZM16,14.714H2.286V7.541l6.29,3.594a1.14,1.14,0,0,0,1.134,0L16,7.541Zm0-9.806L9.143,8.827,2.286,4.909V3.286H16Z" fill="#cdb468" stroke="#fff" stroke-width="1"/>
  </g>
</svg>
