<svg xmlns="http://www.w3.org/2000/svg" width="41" height="41" viewBox="0 0 41 41">
  <g id="Group_1750" data-name="Group 1750" transform="translate(-372 -5030)">
    <circle id="Ellipse_999" data-name="Ellipse 999" cx="20.5" cy="20.5" r="20.5" transform="translate(372 5030)" fill="#454d77"/>
    <g id="twitter" transform="translate(384 5041.01)">
      <path id="Path_10" data-name="Path 10" d="M15.8,3a7.331,7.331,0,0,1-2.112,1.029A3.013,3.013,0,0,0,8.4,6.043v.673A7.17,7.17,0,0,1,2.345,3.669s-2.69,6.053,3.363,8.743A7.829,7.829,0,0,1,1,13.758c6.053,3.363,13.451,0,13.451-7.734a3.027,3.027,0,0,0-.054-.558A5.192,5.192,0,0,0,15.8,3Z" transform="translate(0 0)" fill="none" stroke="#fff" stroke-linecap="round" stroke-linejoin="round" stroke-width="1"/>
    </g>
  </g>
</svg>
