<svg xmlns="http://www.w3.org/2000/svg" width="13.506" height="13.506" viewBox="0 0 13.506 13.506">
  <g id="file-search-alt" transform="translate(-1.75 -1.75)">
    <path id="Path_549" data-name="Path 549" d="M8.5,13.7H3.95a.65.65,0,0,1-.65-.65V3.95a.65.65,0,0,1,.65-.65H7.2v1.95A1.95,1.95,0,0,0,9.151,7.2H11.1v.65a.65.65,0,1,0,1.3,0V6.512a.852.852,0,0,0-.039-.176V6.278a.7.7,0,0,0-.124-.182l-3.9-3.9a.7.7,0,0,0-.182-.124.208.208,0,0,0-.059,0A.572.572,0,0,0,7.883,2H3.95A1.95,1.95,0,0,0,2,3.95v9.1A1.95,1.95,0,0,0,3.95,15H8.5a.65.65,0,1,0,0-1.3Zm0-9.485L10.185,5.9H9.151a.65.65,0,0,1-.65-.65ZM5.251,5.9a.65.65,0,0,0,0,1.3H5.9a.65.65,0,1,0,0-1.3Zm9.563,7.99-.761-.754a2.236,2.236,0,0,0-.351-2.685,2.289,2.289,0,1,0-.566,3.6l.754.761a.653.653,0,1,0,.923-.923Zm-2.061-1.138a1,1,0,0,1-1.372,0,.975.975,0,0,1-.28-.683.949.949,0,0,1,.286-.689.971.971,0,0,1,1.664.689.975.975,0,0,1-.3.683ZM9.151,8.5h-3.9a.65.65,0,1,0,0,1.3h3.9a.65.65,0,0,0,0-1.3Zm-1.3,3.9a.65.65,0,1,0,0-1.3h-2.6a.65.65,0,0,0,0,1.3Z" transform="translate(0)" fill="#131c4c" stroke="#fff" stroke-width="0.5"/>
  </g>
</svg>
