<svg xmlns="http://www.w3.org/2000/svg" width="120" height="120" viewBox="0 0 120 120">
  <g id="Group_1546" data-name="Group 1546" transform="translate(-341 -22)">
    <circle id="Ellipse_983" data-name="Ellipse 983" cx="60" cy="60" r="60" transform="translate(341 22)" fill="#e0dff9"/>
    <circle id="Ellipse_1008" data-name="Ellipse 1008" cx="4.5" cy="4.5" r="4.5" transform="translate(426 46)" fill="#fff"/>
    <circle id="Ellipse_1009" data-name="Ellipse 1009" cx="3" cy="3" r="3" transform="translate(455 94)" fill="#d99f12"/>
    <circle id="Ellipse_1010" data-name="Ellipse 1010" cx="6" cy="6" r="6" transform="translate(356 29)" fill="#131c4c"/>
    <g id="archive-2" transform="translate(374 55)">
      <path id="Path_204" data-name="Path 204" d="M48.615,12H5.281A2.28,2.28,0,0,0,3,14.281V48.492a2.28,2.28,0,0,0,2.281,2.281H48.615A2.28,2.28,0,0,0,50.9,48.492V14.281A2.28,2.28,0,0,0,48.615,12Zm-11.4,17.106a1.14,1.14,0,0,1-1.14,1.14H17.825a1.14,1.14,0,0,1-1.14-1.14V24.544a1.14,1.14,0,0,1,2.281,0v3.421H34.931V24.544a1.14,1.14,0,1,1,2.281,0Z" transform="translate(0 1.404)" fill="none" stroke="#131c4c" stroke-width="1.2"/>
      <path id="Path_205" data-name="Path 205" d="M44.633,6H8.14A1.141,1.141,0,0,0,7,7.14v3.421H45.773V7.14A1.141,1.141,0,0,0,44.633,6Z" transform="translate(0.562 0.562)" fill="none" stroke="#131c4c" stroke-width="1.2"/>
      <path id="Path_206" data-name="Path 206" d="M39.51,2H12.14A1.141,1.141,0,0,0,11,3.14v1.14H40.65V3.14A1.141,1.141,0,0,0,39.51,2Z" transform="translate(1.123)" fill="none" stroke="#131c4c" stroke-width="1.2"/>
    </g>
  </g>
</svg>
