<svg xmlns="http://www.w3.org/2000/svg" width="31" height="31" viewBox="0 0 31 31">
  <g id="Group_1748" data-name="Group 1748" transform="translate(-1370 -4989)">
    <circle id="Ellipse_997" data-name="Ellipse 997" cx="15.5" cy="15.5" r="15.5" transform="translate(1370 4989)" fill="#454d77"/>
    <path id="Path_309" data-name="Path 309" d="M15.037,3.972a6.75,6.75,0,1,0-9.546,9.546l4.192,4.2a.8.8,0,0,0,1.13,0l4.224-4.24a6.722,6.722,0,0,0,0-9.506ZM13.9,12.34l-3.635,3.651L6.629,12.34a5.139,5.139,0,1,1,7.271,0ZM7.878,6.3a3.431,3.431,0,1,0,5.855,2.466,3.373,3.373,0,0,0-1-2.426A3.42,3.42,0,0,0,7.878,6.3Zm3.731,3.723a.766.766,0,1,0-.04,0Z" transform="translate(1375.484 4995.005)" fill="#fff" stroke="#454d77" stroke-width="0.5"/>
  </g>
</svg>
