<svg xmlns="http://www.w3.org/2000/svg" width="120.5" height="120" viewBox="0 0 120.5 120">
  <g id="Group_1744" data-name="Group 1744" transform="translate(-1240.5 -962)">
    <circle id="Ellipse_985" data-name="Ellipse 985" cx="60" cy="60" r="60" transform="translate(1241 962)" fill="#dff9ee"/>
    <g id="archive-2" transform="translate(1274 995)">
      <path id="Path_204" data-name="Path 204" d="M48.615,12H5.281A2.28,2.28,0,0,0,3,14.281V48.492a2.28,2.28,0,0,0,2.281,2.281H48.615A2.28,2.28,0,0,0,50.9,48.492V14.281A2.28,2.28,0,0,0,48.615,12Zm-11.4,17.106a1.14,1.14,0,0,1-1.14,1.14H17.825a1.14,1.14,0,0,1-1.14-1.14V24.544a1.14,1.14,0,0,1,2.281,0v3.421H34.931V24.544a1.14,1.14,0,1,1,2.281,0Z" transform="translate(0 1.404)" fill="none" stroke="#131c4c" stroke-width="1.2"/>
      <path id="Path_205" data-name="Path 205" d="M44.633,6H8.14A1.141,1.141,0,0,0,7,7.14v3.421H45.773V7.14A1.141,1.141,0,0,0,44.633,6Z" transform="translate(0.562 0.562)" fill="none" stroke="#131c4c" stroke-width="1.2"/>
      <path id="Path_206" data-name="Path 206" d="M39.51,2H12.14A1.141,1.141,0,0,0,11,3.14v1.14H40.65V3.14A1.141,1.141,0,0,0,39.51,2Z" transform="translate(1.123)" fill="none" stroke="#131c4c" stroke-width="1.2"/>
    </g>
    <circle id="Ellipse_1011" data-name="Ellipse 1011" cx="6" cy="6" r="6" transform="translate(1316.5 1055.738)" fill="#fff"/>
    <circle id="Ellipse_1012" data-name="Ellipse 1012" cx="5" cy="5" r="5" transform="translate(1240.5 995.738)" fill="#d99f12"/>
    <circle id="Ellipse_1013" data-name="Ellipse 1013" cx="4.5" cy="4.5" r="4.5" transform="translate(1344.5 1002.738)" fill="#131c4c"/>
  </g>
</svg>
