<svg xmlns="http://www.w3.org/2000/svg" width="31" height="31" viewBox="0 0 31 31">
  <g id="Group_1747" data-name="Group 1747" transform="translate(-1370 -4912)">
    <circle id="Ellipse_996" data-name="Ellipse 996" cx="15.5" cy="15.5" r="15.5" transform="translate(1370 4912)" fill="#454d77"/>
    <g id="phone" transform="translate(1376.891 4919)">
      <path id="Path_308" data-name="Path 308" d="M14.324,11.161V13a1.228,1.228,0,0,1-1.339,1.228,12.152,12.152,0,0,1-5.3-1.885A11.974,11.974,0,0,1,4,8.662,12.152,12.152,0,0,1,2.117,3.339,1.228,1.228,0,0,1,3.339,2H5.181A1.228,1.228,0,0,1,6.409,3.056a7.884,7.884,0,0,0,.43,1.725,1.228,1.228,0,0,1-.276,1.3l-.78.78a9.825,9.825,0,0,0,3.684,3.684l.78-.78a1.228,1.228,0,0,1,1.3-.276,7.884,7.884,0,0,0,1.725.43,1.228,1.228,0,0,1,1.056,1.247Z" transform="translate(0 0)" fill="none" stroke="#fff" stroke-linecap="round" stroke-linejoin="round" stroke-width="1"/>
    </g>
  </g>
</svg>
