<svg xmlns="http://www.w3.org/2000/svg" width="13.257" height="13.356" viewBox="0 0 13.257 13.356">
  <g id="robot" transform="translate(-0.15)">
    <path id="Path_551" data-name="Path 551" d="M6.779,2.242a4.485,4.485,0,0,1,4.485,4.485v5.382a.9.9,0,0,1-.9.9H3.191a.9.9,0,0,1-.9-.9V6.727A4.485,4.485,0,0,1,6.779,2.242Zm0,0V0M3.639,10.315H9.918M.5,7.176v3.588M13.057,7.176v3.588M4.985,8.521a.9.9,0,1,1,.9-.9A.9.9,0,0,1,4.985,8.521Zm3.588,0a.9.9,0,1,1,.9-.9A.9.9,0,0,1,8.573,8.521Z" fill="none" stroke="#131c4c" stroke-width="0.7"/>
  </g>
</svg>
