<svg xmlns="http://www.w3.org/2000/svg" width="37.181" height="27.5" viewBox="0 0 37.181 27.5">
  <g id="Group_3497" data-name="Group 3497" transform="translate(-1475 -581.5)">
    <g id="Group_3495" data-name="Group 3495" transform="translate(1472.784 582)">
      <g id="Rectangle_196" data-name="Rectangle 196" transform="translate(19.238 5.689)" fill="none" stroke="#fff" stroke-width="1">
        <rect width="13.129" height="3.501" rx="1.75" stroke="none"/>
        <rect x="0.5" y="0.5" width="12.129" height="2.501" rx="1.25" fill="none"/>
      </g>
      <path id="Path_636" data-name="Path 636" d="M-12713.1,523.173l-3.394-1.25s-.594,4.432,0,5.527,2.439-.99,2.439-.99Z" transform="translate(12723.741 -521.597)" fill="none" stroke="#fff" stroke-width="1"/>
      <line id="Line_62" data-name="Line 62" x2="4.525" transform="translate(13.707 2.22)" fill="none" stroke="#fff" stroke-width="1"/>
      <line id="Line_63" data-name="Line 63" x2="4.525" transform="translate(27.799 13.328)" fill="none" stroke="#fff" stroke-width="1"/>
      <line id="Line_64" data-name="Line 64" x2="4.525" transform="translate(28.576 15.267)" fill="none" stroke="#fff" stroke-width="1"/>
      <path id="Path_635" data-name="Path 635" d="M-12754.03,521.42h-2.806l-3.615,12.761s-.059,3.679,1.586,4.377a8.863,8.863,0,0,1,2.969,2.4h15.722s-.2-1.353.821-1.417,10.31,0,10.31,0,.363-8.448-5.3-8.684-12.11,0-12.11,0a4.566,4.566,0,0,0,.58,2.281c.573.691,1.629,2.448,1.108,3.313s-1.745,2.935-4.552,2.107-6.337-4.081-6.056-6.935S-12754.03,521.42-12754.03,521.42Z" transform="translate(12767.929 -521.42)" fill="none" stroke="#fff" stroke-width="1"/>
    </g>
    <g id="Ellipse_2115" data-name="Ellipse 2115" transform="translate(1475 600)" fill="none" stroke="#fff" stroke-width="1">
      <circle cx="4.5" cy="4.5" r="4.5" stroke="none"/>
      <circle cx="4.5" cy="4.5" r="4" fill="none"/>
    </g>
    <g id="Path_2105" data-name="Path 2105" transform="translate(1503 599)" fill="none">
      <path d="M4.5.5C6.985.5,9,2.015,9,4.5a4.5,4.5,0,0,1-9,0C0,2.015,2.015.5,4.5.5Z" stroke="none"/>
      <path d="M 4.5 1.502198696136475 C 2.75786018371582 1.502198696136475 1 2.429138660430908 1 4.499998569488525 C 1 6.429908752441406 2.570089817047119 7.999998569488525 4.5 7.999998569488525 C 6.429909706115723 7.999998569488525 8 6.429908752441406 8 4.499998569488525 C 8 2.429138660430908 6.24213981628418 1.502198696136475 4.5 1.502198696136475 M 4.5 0.5021982192993164 C 6.98528003692627 0.5021982192993164 9 2.014718532562256 9 4.499998569488525 C 9 6.985278606414795 6.98528003692627 8.999999046325684 4.5 8.999999046325684 C 2.01471996307373 8.999999046325684 0 6.985278606414795 0 4.499998569488525 C 0 2.014718532562256 2.01471996307373 0.5021982192993164 4.5 0.5021982192993164 Z" stroke="none" fill="#fff"/>
    </g>
  </g>
</svg>
