<svg xmlns="http://www.w3.org/2000/svg" width="31" height="31" viewBox="0 0 31 31">
  <g id="Group_1746" data-name="Group 1746" transform="translate(-1370 -4859)">
    <circle id="Ellipse_995" data-name="Ellipse 995" cx="15.5" cy="15.5" r="15.5" transform="translate(1370 4859)" fill="#454d77"/>
    <g id="email-84" transform="translate(1379 4868)">
      <path id="Path_307" data-name="Path 307" d="M12.389,1H.826A.826.826,0,0,0,0,1.826v9.911a.826.826,0,0,0,.826.826H12.389a.826.826,0,0,0,.826-.826V1.826A.826.826,0,0,0,12.389,1Zm-.826,9.911H1.652V5.727L6.2,8.324a.824.824,0,0,0,.819,0l4.546-2.6Zm0-7.086L6.607,6.657,1.652,3.825V2.652h9.911Z" fill="#fff" stroke="#454d77" stroke-width="0.5"/>
    </g>
  </g>
</svg>
