<svg xmlns="http://www.w3.org/2000/svg" width="310.552" height="297.807" viewBox="0 0 310.552 297.807">
  <g id="Group_1519" data-name="Group 1519" transform="translate(-29.229 -40.684)">
    <g id="Background_Complete" data-name="Background Complete" transform="translate(41.537 40.683)">
      <g id="Group_1230" data-name="Group 1230" transform="translate(143.782 214.962)">
        <g id="Group_1204" data-name="Group 1204">
          <g id="Group_1203" data-name="Group 1203">
            <g id="Group_1202" data-name="Group 1202">
              <g id="Group_1201" data-name="Group 1201">
                <path id="Path_319" data-name="Path 319" d="M270.345,427.722c-12.121-5.739-16.958-19.38-18.667-32.089-.286-2.121-.893-4.306-.2-6.326s2.818-3.681,4.857-3.112c1.691.472,2.682,2.179,3.813,3.537a12.512,12.512,0,0,0,5.746,3.888c1.461.47,3.195.615,4.4-.34,1.65-1.312,1.439-3.861,1.071-5.957q-1.03-5.859-2.057-11.717a19.813,19.813,0,0,1-.421-6.338,6.6,6.6,0,0,1,3.345-5.091c1.9-.9,4.564-.164,5.333,1.818a19.64,19.64,0,0,1,.5,2.6,2.238,2.238,0,0,0,1.642,1.858c.879.1,1.618-.632,2.141-1.353a28.279,28.279,0,0,0,3.729-8.407,39.236,39.236,0,0,1,3.351-8.592,11.506,11.506,0,0,1,6.957-5.612c2.977-.678,6.491.634,7.749,3.456s.044,6.121-1.428,8.833a47.494,47.494,0,0,1-8.178,10.943,3.912,3.912,0,0,0-1.334,2.03c-.219,1.476,1.341,2.64,2.8,2.866,1.651.257,3.321-.193,4.989-.277s3.562.338,4.442,1.779c1.222,2-.191,4.55-1.706,6.32A40.685,40.685,0,0,1,292.5,391.3a13.724,13.724,0,0,0-4.049,2.891c-1.061,1.3-1.493,3.308-.491,4.657s3.012,1.5,4.578.925a28.349,28.349,0,0,0,4.306-2.537c2.7-1.576,6.455-2.007,8.723.172a6.733,6.733,0,0,1,1.7,5.751,15.52,15.52,0,0,1-2.3,5.722A40.908,40.908,0,0,1,289.788,423.9c-6.295,3.451-12.386,5.127-19.443,3.82" transform="translate(-251.157 -346.316)" fill="#f5f5f5"/>
              </g>
            </g>
          </g>
        </g>
        <g id="Group_1209" data-name="Group 1209" transform="translate(21.109 1.266)">
          <g id="Group_1208" data-name="Group 1208">
            <g id="Group_1207" data-name="Group 1207">
              <g id="Group_1206" data-name="Group 1206">
                <g id="Group_1205" data-name="Group 1205">
                  <path id="Path_320" data-name="Path 320" d="M281.17,419.783a190.805,190.805,0,0,1,4.038-21.5l1.348-5.581c.447-1.831.889-3.647,1.432-5.4a95.384,95.384,0,0,1,3.7-9.872c1.327-3.083,2.7-5.961,4-8.642s2.576-5.154,3.827-7.36a75.488,75.488,0,0,1,6.671-9.961c.876-1.11,1.585-1.949,2.072-2.511l.558-.636a1.658,1.658,0,0,1,.2-.207,1.52,1.52,0,0,1-.169.234l-.529.66c-.468.579-1.156,1.433-2.014,2.555a79.916,79.916,0,0,0-6.549,10c-1.232,2.208-2.482,4.684-3.775,7.366s-2.648,5.563-3.963,8.643a96.426,96.426,0,0,0-3.659,9.842c-.537,1.74-.974,3.54-1.421,5.376l-1.345,5.579a195.426,195.426,0,0,0-4.061,21.452" transform="translate(-281.17 -348.117)" fill="#e0e0e0"/>
                </g>
              </g>
            </g>
          </g>
        </g>
        <g id="Group_1214" data-name="Group 1214" transform="translate(21.064 17.86)">
          <g id="Group_1213" data-name="Group 1213">
            <g id="Group_1212" data-name="Group 1212">
              <g id="Group_1211" data-name="Group 1211">
                <g id="Group_1210" data-name="Group 1210">
                  <path id="Path_321" data-name="Path 321" d="M288.077,394.271a4.334,4.334,0,0,1-.357-.86c-.208-.561-.482-1.382-.807-2.4-.65-2.039-1.452-4.885-2.323-8.025s-1.712-5.969-2.391-7.992c-.337-1.012-.618-1.829-.819-2.391a4.308,4.308,0,0,1-.272-.89,4.16,4.16,0,0,1,.413.834c.245.546.567,1.351.938,2.355.749,2.007,1.635,4.833,2.507,7.978l2.213,8.052c.271.966.5,1.782.686,2.435A4.261,4.261,0,0,1,288.077,394.271Z" transform="translate(-281.106 -371.71)" fill="#e0e0e0"/>
                </g>
              </g>
            </g>
          </g>
        </g>
        <g id="Group_1219" data-name="Group 1219" transform="translate(28.036 30.812)">
          <g id="Group_1218" data-name="Group 1218">
            <g id="Group_1217" data-name="Group 1217">
              <g id="Group_1216" data-name="Group 1216">
                <g id="Group_1215" data-name="Group 1215">
                  <path id="Path_322" data-name="Path 322" d="M317.136,390.13a5.891,5.891,0,0,1-1.054.311c-.682.179-1.669.432-2.879.784-2.425.684-5.742,1.747-9.35,3.08s-6.82,2.691-9.115,3.735c-1.152.514-2.073.956-2.711,1.257a5.855,5.855,0,0,1-1.009.436,5.815,5.815,0,0,1,.94-.574c.618-.343,1.523-.824,2.663-1.373,2.272-1.113,5.479-2.51,9.1-3.854a96.427,96.427,0,0,1,9.413-2.979c1.224-.318,2.224-.531,2.919-.663A5.872,5.872,0,0,1,317.136,390.13Z" transform="translate(-291.018 -390.124)" fill="#e0e0e0"/>
                </g>
              </g>
            </g>
          </g>
        </g>
        <g id="Group_1224" data-name="Group 1224" transform="translate(1.949 40.23)">
          <g id="Group_1223" data-name="Group 1223">
            <g id="Group_1222" data-name="Group 1222">
              <g id="Group_1221" data-name="Group 1221">
                <g id="Group_1220" data-name="Group 1220">
                  <path id="Path_323" data-name="Path 323" d="M273.336,435.665a1.4,1.4,0,0,1-.241-.3l-.626-.9c-.54-.781-1.293-1.933-2.2-3.369-1.824-2.87-4.219-6.913-6.8-11.41s-4.937-8.559-6.7-11.462l-2.1-3.433-.565-.937a1.4,1.4,0,0,1-.174-.343,1.472,1.472,0,0,1,.241.3c.17.243.376.538.626.9.541.782,1.293,1.934,2.2,3.369,1.824,2.87,4.219,6.913,6.8,11.412s4.936,8.557,6.7,11.461c.862,1.41,1.57,2.571,2.1,3.433l.565.937A1.4,1.4,0,0,1,273.336,435.665Z" transform="translate(-253.928 -403.515)" fill="#e0e0e0"/>
                </g>
              </g>
            </g>
          </g>
        </g>
        <g id="Group_1229" data-name="Group 1229" transform="translate(21.357 54.764)">
          <g id="Group_1228" data-name="Group 1228">
            <g id="Group_1227" data-name="Group 1227">
              <g id="Group_1226" data-name="Group 1226">
                <g id="Group_1225" data-name="Group 1225">
                  <path id="Path_324" data-name="Path 324" d="M315.409,424.181a1.452,1.452,0,0,1-.331.207l-.982.525-3.627,1.893c-3.063,1.6-7.268,3.856-11.91,6.357s-8.874,4.722-11.971,6.258c-1.548.769-2.807,1.378-3.685,1.781l-1.014.459a1.423,1.423,0,0,1-.366.135,1.5,1.5,0,0,1,.331-.207l.982-.524,3.627-1.893c3.062-1.6,7.268-3.856,11.912-6.357s8.872-4.721,11.969-6.258c1.548-.769,2.807-1.378,3.686-1.781l1.014-.459A1.45,1.45,0,0,1,315.409,424.181Z" transform="translate(-281.522 -424.179)" fill="#e0e0e0"/>
                </g>
              </g>
            </g>
          </g>
        </g>
      </g>
      <g id="Group_1254" data-name="Group 1254" transform="translate(63.865 145.207)">
        <g id="Group_1232" data-name="Group 1232" transform="translate(0 0)">
          <g id="Group_1231" data-name="Group 1231">
            <path id="Path_325" data-name="Path 325" d="M148.691,247.33s-8.357,1.161-3.665,19.464S153.7,294.53,153.7,294.53s.631,4.145-2.711,4.017-10.155-2.841-12.467.765c-2.4,3.74-.3,8.247,4.94,12.963s16.346,15.473,17.346,16.45c.983.958,1.727,2.989-.563,3.266s-18.558-1.632-19,6.142,16.317,18.515,18.127,19.724,2.1,2.156,1.689,3.207-5.812-.106-10.461-.459-10.1.051-9.981,4.558,8.92,15.893,34.6,24.359l12.154,3.144,8.985-8.848c18.074-20.107,20.053-34.361,17.917-38.331s-7.068-1.611-10.926,1.006-7.976,6.308-8.85,5.6-1.1-1.674-.128-3.623,10.177-19.6,5.929-26.124-17.415,3.216-19.541,4.113-2.488-1.235-2.112-2.555c.383-1.345,4.674-16.2,6.879-22.895s1.784-11.65-2.154-13.7c-3.8-1.981-8.363,3.759-11.2,5.531s-4.35-2.139-4.35-2.139-1.234-10.163-6.258-28.378-13.034-14.951-13.034-14.951" transform="translate(-137.532 -247.138)" fill="#ebebeb"/>
          </g>
        </g>
        <g id="Group_1235" data-name="Group 1235" transform="translate(15.333 16.59)">
          <g id="Group_1234" data-name="Group 1234">
            <g id="Group_1233" data-name="Group 1233">
              <path id="Path_326" data-name="Path 326" d="M193.82,402.686c-3.637-13.392-9.7-37.3-15.013-57.8S168.669,305.84,165.1,292.431l-4.243-15.875-1.151-4.317c-.124-.483-.22-.857-.29-1.126s-.086-.387-.086-.387.049.126.124.376c.078.267.186.637.327,1.115l1.221,4.3c1.056,3.734,2.547,9.148,4.363,15.844,3.637,13.392,8.505,31.932,13.816,52.426s11.334,44.42,14.9,57.828" transform="translate(-159.332 -270.726)" fill="#e0e0e0"/>
            </g>
          </g>
        </g>
        <g id="Group_1238" data-name="Group 1238" transform="translate(10.364 56.352)">
          <g id="Group_1237" data-name="Group 1237">
            <g id="Group_1236" data-name="Group 1236">
              <path id="Path_327" data-name="Path 327" d="M152.269,327.261a4.078,4.078,0,0,1,.8.429c.5.3,1.218.746,2.1,1.309,1.754,1.13,4.136,2.753,6.732,4.591l6.63,4.729,2.016,1.419a4.094,4.094,0,0,1,.722.551,4.024,4.024,0,0,1-.8-.423c-.5-.3-1.217-.747-2.09-1.319-1.742-1.148-4.1-2.8-6.7-4.639l-6.661-4.679-2.025-1.41A4.089,4.089,0,0,1,152.269,327.261Z" transform="translate(-152.268 -327.259)" fill="#e0e0e0"/>
            </g>
          </g>
        </g>
        <g id="Group_1241" data-name="Group 1241" transform="translate(30.372 46.402)">
          <g id="Group_1240" data-name="Group 1240">
            <g id="Group_1239" data-name="Group 1239">
              <path id="Path_328" data-name="Path 328" d="M180.717,335.5c-.091-.058,3.038-5.117,6.987-11.3s7.226-11.146,7.317-11.088-3.037,5.115-6.988,11.3S180.808,335.556,180.717,335.5Z" transform="translate(-180.715 -313.112)" fill="#e0e0e0"/>
            </g>
          </g>
        </g>
        <g id="Group_1244" data-name="Group 1244" transform="translate(37.111 84.446)">
          <g id="Group_1243" data-name="Group 1243">
            <g id="Group_1242" data-name="Group 1242">
              <path id="Path_329" data-name="Path 329" d="M190.3,383.389a4.22,4.22,0,0,1,.667-.644l1.9-1.659c1.6-1.4,3.8-3.349,6.146-5.586s4.413-4.326,5.893-5.854l1.754-1.809a4.283,4.283,0,0,1,.677-.634,4.174,4.174,0,0,1-.564.736c-.383.456-.949,1.107-1.666,1.895-1.43,1.579-3.465,3.71-5.825,5.948s-4.59,4.162-6.236,5.513c-.826.672-1.5,1.209-1.978,1.566A4.2,4.2,0,0,1,190.3,383.389Z" transform="translate(-190.297 -367.203)" fill="#e0e0e0"/>
            </g>
          </g>
        </g>
        <g id="Group_1247" data-name="Group 1247" transform="translate(16.539 93.364)">
          <g id="Group_1246" data-name="Group 1246">
            <g id="Group_1245" data-name="Group 1245">
              <path id="Path_330" data-name="Path 330" d="M161.047,379.888a3.652,3.652,0,0,1,.833.2l2.225.689c1.874.6,4.454,1.447,7.3,2.41s5.409,1.855,7.26,2.519l2.185.805a3.684,3.684,0,0,1,.785.346,3.642,3.642,0,0,1-.833-.2l-2.225-.689c-1.874-.6-4.454-1.448-7.3-2.411s-5.407-1.855-7.259-2.519l-2.185-.806A3.6,3.6,0,0,1,161.047,379.888Z" transform="translate(-161.047 -379.883)" fill="#e0e0e0"/>
            </g>
          </g>
        </g>
        <g id="Group_1250" data-name="Group 1250" transform="translate(18.915 122.234)">
          <g id="Group_1249" data-name="Group 1249">
            <g id="Group_1248" data-name="Group 1248">
              <path id="Path_331" data-name="Path 331" d="M164.426,420.934a5.811,5.811,0,0,1,1.063.269l2.856.872c2.405.752,5.72,1.817,9.374,3.015s6.957,2.306,9.34,3.125l2.817.989a5.921,5.921,0,0,1,1.016.414,5.976,5.976,0,0,1-1.063-.269l-2.856-.872c-2.405-.752-5.721-1.817-9.376-3.016s-6.955-2.3-9.339-3.124l-2.816-.989A5.927,5.927,0,0,1,164.426,420.934Z" transform="translate(-164.426 -420.93)" fill="#e0e0e0"/>
            </g>
          </g>
        </g>
        <g id="Group_1253" data-name="Group 1253" transform="translate(44.807 109.414)">
          <g id="Group_1252" data-name="Group 1252">
            <g id="Group_1251" data-name="Group 1251">
              <path id="Path_332" data-name="Path 332" d="M201.239,423.825a6.724,6.724,0,0,1,.824-.838l2.328-2.19c1.964-1.851,4.665-4.418,7.569-7.336s5.47-5.622,7.311-7.595l2.183-2.335a6.861,6.861,0,0,1,.833-.827,6.718,6.718,0,0,1-.72.928c-.483.581-1.195,1.41-2.092,2.42-1.791,2.022-4.326,4.764-7.239,7.684S206.59,419.2,204.577,421c-1.009.9-1.833,1.616-2.414,2.1A6.808,6.808,0,0,1,201.239,423.825Z" transform="translate(-201.238 -402.703)" fill="#e0e0e0"/>
            </g>
          </g>
        </g>
      </g>
      <g id="Group_1255" data-name="Group 1255" transform="translate(12.191 0)">
        <path id="Path_333" data-name="Path 333" d="M90.6,81.014,83.74,78.872s-1.8,5.763-7.819,4a5.817,5.817,0,0,1-4.273-5.223,6.443,6.443,0,0,1,2.223-5.407c1.763-1.556,4.859-2.505,9.23-.247L87.93,56.517,81.142,54.4l-2.828,9.065s-10.286-.509-13.56,9.981c-3.131,10.037,5.143,15.176,9,16.378C76.7,90.743,86.955,93.163,90.6,81.014Z" transform="translate(-64.062 -44.753)" fill="#f5f5f5"/>
        <rect id="Rectangle_165" data-name="Rectangle 165" width="7.215" height="6.739" transform="matrix(-0.955, -0.298, 0.298, -0.955, 24.881, 8.582)" fill="#f5f5f5"/>
      </g>
      <g id="Group_1256" data-name="Group 1256" transform="translate(57.407 12.12)">
        <path id="Path_334" data-name="Path 334" d="M128.62,64.583l2.749-.724a2.416,2.416,0,0,1,1.779-2.982,2.3,2.3,0,0,1,2.528.852,2.547,2.547,0,0,1,.391,2.277c-.263.892-1.1,1.86-3.039,2.022l1.635,6.2,2.718-.717-.957-3.63a5.49,5.49,0,0,0,2.444-6.192c-1.061-4.019-4.911-4-6.454-3.595C131.233,58.4,127.289,59.748,128.62,64.583Z" transform="translate(-128.349 -57.916)" fill="#ebebeb"/>
        <rect id="Rectangle_166" data-name="Rectangle 166" width="2.853" height="2.664" transform="matrix(0.967, -0.255, 0.255, 0.967, 6.643, 15.588)" fill="#ebebeb"/>
      </g>
      <g id="Group_1257" data-name="Group 1257" transform="translate(283.975 86.368)">
        <path id="Path_335" data-name="Path 335" d="M451.543,167.086l2.673.968a2.416,2.416,0,0,1,3.16-1.439,2.3,2.3,0,0,1,1.594,2.139,2.548,2.548,0,0,1-.974,2.1c-.724.583-1.964.9-3.65-.068l-2.183,6.026,2.642.957,1.279-3.529a5.49,5.49,0,0,0,5.534-3.7c1.416-3.908-1.76-6.086-3.261-6.63C457.21,163.491,453.2,162.352,451.543,167.086Z" transform="translate(-450.798 -163.481)" fill="#ebebeb"/>
        <rect id="Rectangle_167" data-name="Rectangle 167" width="2.853" height="2.664" transform="translate(0.908 14.566) rotate(19.914)" fill="#ebebeb"/>
      </g>
      <g id="Group_1258" data-name="Group 1258" transform="translate(0 105.14)">
        <path id="Path_336" data-name="Path 336" d="M47.8,205.615l5.657-2.179s-1.83-4.749,3.073-6.736a4.9,4.9,0,0,1,5.558,1.214,5.432,5.432,0,0,1,1.362,4.736c-.35,1.952-1.9,4.2-5.969,5L62.4,220.4l5.594-2.155-2.879-7.471a11.7,11.7,0,0,0,3.733-13.695c-3.187-8.271-11.344-7.334-14.52-6.111C51.9,191.9,43.852,195.677,47.8,205.615Z" transform="translate(-46.729 -190.171)" fill="#f5f5f5"/>
        <rect id="Rectangle_168" data-name="Rectangle 168" width="6.083" height="5.681" transform="matrix(0.933, -0.359, 0.359, 0.933, 16.664, 32.863)" fill="#f5f5f5"/>
      </g>
      <g id="Group_1259" data-name="Group 1259" transform="translate(270.402 125.942)">
        <path id="Path_337" data-name="Path 337" d="M448.114,238.22l-4.008,1.544a3.651,3.651,0,0,1-2.178,4.774,3.476,3.476,0,0,1-3.938-.86,3.85,3.85,0,0,1-.966-3.356c.248-1.383,1.345-2.976,4.231-3.541l-3.482-9.038-3.963,1.527,2.04,5.294a8.294,8.294,0,0,0-2.645,9.7c2.258,5.862,8.039,5.2,10.289,4.331C445.213,247.935,450.914,245.261,448.114,238.22Z" transform="translate(-431.596 -222.119)" fill="#f5f5f5"/>
        <rect id="Rectangle_169" data-name="Rectangle 169" width="4.311" height="4.026" transform="translate(5.47 3.757) rotate(158.931)" fill="#f5f5f5"/>
      </g>
    </g>
    <g id="Floor" transform="translate(29.229 338.073)">
      <g id="Group_1260" data-name="Group 1260">
        <path id="Path_338" data-name="Path 338" d="M339.781,463.695c0,.1-69.525.183-155.268.183-85.774,0-155.284-.082-155.284-.183s69.51-.184,155.284-.184C270.257,463.511,339.781,463.593,339.781,463.695Z" transform="translate(-29.229 -463.511)" fill="#263238"/>
      </g>
    </g>
    <g id="Plant" transform="translate(46.78 215.996)">
      <g id="Group_1286" data-name="Group 1286">
        <g id="Group_1263" data-name="Group 1263" transform="translate(0 52.003)">
          <g id="Group_1262" data-name="Group 1262">
            <g id="Group_1261" data-name="Group 1261">
              <path id="Path_339" data-name="Path 339" d="M81.229,415.871c.667-2.586-1.029-5.183-2.93-7.059s-4.174-3.558-5.163-6.04c-1.6-4.02.552-9.225-2.182-12.579-1.609-1.973-4.493-2.633-5.921-4.741a10.776,10.776,0,0,1-1.285-3.767,38.264,38.264,0,0,0-9.516-17.806,33.208,33.208,0,0,0,3.733,17.161c1.108,2.109,2.467,4.164,2.834,6.518.6,3.822-1.537,7.759-.6,11.511,1.074,4.291,5.895,7.163,6.123,11.581.193,3.735-3.062,7.013-2.82,10.745a10.079,10.079,0,0,0,1.662,4.429c2.888,4.8,7.13,8.107,13.56,8l7.875.276Z" transform="translate(-54.182 -363.879)" fill="#e8505b"/>
            </g>
          </g>
        </g>
        <g id="Group_1267" data-name="Group 1267" transform="translate(0 52.003)" opacity="0.3">
          <g id="Group_1266" data-name="Group 1266">
            <g id="Group_1265" data-name="Group 1265">
              <g id="Group_1264" data-name="Group 1264">
                <path id="Path_340" data-name="Path 340" d="M81.229,415.871c.667-2.586-1.029-5.183-2.93-7.059s-4.174-3.558-5.163-6.04c-1.6-4.02.552-9.225-2.182-12.579-1.609-1.973-4.493-2.633-5.921-4.741a10.776,10.776,0,0,1-1.285-3.767,38.264,38.264,0,0,0-9.516-17.806,33.208,33.208,0,0,0,3.733,17.161c1.108,2.109,2.467,4.164,2.834,6.518.6,3.822-1.537,7.759-.6,11.511,1.074,4.291,5.895,7.163,6.123,11.581.193,3.735-3.062,7.013-2.82,10.745a10.079,10.079,0,0,0,1.662,4.429c2.888,4.8,7.13,8.107,13.56,8l7.875.276Z" transform="translate(-54.182 -363.879)"/>
              </g>
            </g>
          </g>
        </g>
        <g id="Group_1285" data-name="Group 1285" transform="translate(6.949)">
          <g id="Group_1276" data-name="Group 1276" transform="translate(23.073 24.949)">
            <g id="Group_1271" data-name="Group 1271">
              <g id="Group_1270" data-name="Group 1270">
                <g id="Group_1269" data-name="Group 1269">
                  <g id="Group_1268" data-name="Group 1268">
                    <path id="Path_341" data-name="Path 341" d="M100.859,422.9a6.292,6.292,0,0,0,2.168-.047,13.145,13.145,0,0,0,2.559-.644,10.849,10.849,0,0,0,3.161-1.731,4.412,4.412,0,0,0,1.3-1.732,8.151,8.151,0,0,0,.371-2.353,22.729,22.729,0,0,1,.184-2.547,7.02,7.02,0,0,1,.962-2.533c.928-1.631,2.47-3.176,2.968-5.39.539-2.178.153-4.536-.214-6.9s-.72-4.937.184-7.4c.845-2.463,2.572-4.687,3.436-7.464.859-2.8.459-5.821.641-8.8a11.668,11.668,0,0,1,1.026-4.373c.637-1.394,1.521-2.709,2.211-4.176,1.4-2.967,1.644-6.329,2.027-9.624q.28-2.491.565-5.032a24.621,24.621,0,0,1,.875-5.037,44.351,44.351,0,0,1,1.884-4.874,16.161,16.161,0,0,0,.914-2.546,25.565,25.565,0,0,0,.254-2.709,31.892,31.892,0,0,0-.21-5.452c-.214-1.817-.542-3.619-.737-5.44-.012-.108-.024-.215-.035-.314l-.041-.363-.323.162a12.162,12.162,0,0,0-4.239,3.578,19.289,19.289,0,0,0-2.605,4.8,59.179,59.179,0,0,0-2.453,10.313,28.006,28.006,0,0,1-3.236,9.525c-.863,1.4-1.907,2.683-2.82,4.051a11.131,11.131,0,0,0-1.955,4.489c-.466,3.332,1.369,6.258.987,9.207a10.219,10.219,0,0,1-1.437,4.088c-.715,1.258-1.556,2.425-2.353,3.6a23.15,23.15,0,0,0-2.114,3.634,11.5,11.5,0,0,0-.968,3.948c-.192,2.656.185,5.175-.01,7.554a17.369,17.369,0,0,1-1.943,6.473c-.952,1.938-2.012,3.69-2.9,5.389a27.761,27.761,0,0,0-1.194,2.509,12.357,12.357,0,0,0-.691,2.49,15.727,15.727,0,0,0-.058,4.5,11.328,11.328,0,0,0,2.253,5.733,5.488,5.488,0,0,0,.637.69,3.163,3.163,0,0,0,.517.439c.294.217.451.316.451.316a9.951,9.951,0,0,1-1.525-1.508,11.4,11.4,0,0,1-2.138-5.694,15.635,15.635,0,0,1,.1-4.43,12.159,12.159,0,0,1,.7-2.431,27.328,27.328,0,0,1,1.2-2.476c.895-1.684,1.965-3.429,2.939-5.379a17.684,17.684,0,0,0,2.012-6.587c.207-2.429-.159-4.958.041-7.551a11.124,11.124,0,0,1,.95-3.816,22.775,22.775,0,0,1,2.09-3.561c.8-1.165,1.647-2.336,2.382-3.621a10.632,10.632,0,0,0,1.5-4.254c.38-3.142-1.442-6.088-.969-9.185a10.687,10.687,0,0,1,1.888-4.293c.9-1.343,1.949-2.625,2.838-4.062a28.432,28.432,0,0,0,3.311-9.684,58.854,58.854,0,0,1,2.436-10.227,18.815,18.815,0,0,1,2.536-4.674,11.664,11.664,0,0,1,4.061-3.43l-.363-.2c.011.1.024.209.036.317.2,1.843.527,3.649.738,5.445a31.443,31.443,0,0,1,.209,5.368,25.6,25.6,0,0,1-.243,2.628,15.8,15.8,0,0,1-.883,2.455,44.832,44.832,0,0,0-1.9,4.928,25.1,25.1,0,0,0-.887,5.12q-.282,2.543-.558,5.036c-.376,3.31-.623,6.618-1.969,9.482-.665,1.426-1.547,2.744-2.2,4.184a12.132,12.132,0,0,0-1.056,4.534c-.172,3.039.224,6.01-.6,8.7s-2.535,4.915-3.4,7.456c-.929,2.568-.544,5.227-.169,7.582.38,2.371.762,4.679.255,6.773-.456,2.116-1.952,3.645-2.9,5.324a7.3,7.3,0,0,0-.977,2.633,22.7,22.7,0,0,0-.165,2.578,8,8,0,0,1-.336,2.289,4.224,4.224,0,0,1-1.222,1.658,10.832,10.832,0,0,1-3.085,1.74,13.6,13.6,0,0,1-2.524.684,10.113,10.113,0,0,1-1.6.155C101.047,422.889,100.859,422.9,100.859,422.9Z" transform="translate(-96.868 -325.415)" fill="#263238"/>
                  </g>
                </g>
              </g>
            </g>
            <g id="Group_1275" data-name="Group 1275" transform="translate(3.989 4.7)">
              <g id="Group_1274" data-name="Group 1274">
                <g id="Group_1273" data-name="Group 1273">
                  <g id="Group_1272" data-name="Group 1272">
                    <path id="Path_342" data-name="Path 342" d="M127.426,332.1a.939.939,0,0,0-.076.238l-.174.709c-.155.62-.34,1.557-.637,2.727s-1.023,2.486-1.635,4.114c-.635,1.613-1.279,3.484-1.872,5.586s-1.134,4.433-1.69,6.931a29.165,29.165,0,0,1-2.521,7.691c-.646,1.279-1.373,2.574-1.95,3.991a18.582,18.582,0,0,0-1.134,4.52,91.429,91.429,0,0,1-1.7,9.527c-1.58,6.455-3.083,12.6-4.453,18.2-1.4,5.577-2.667,10.6-3.733,14.842-1.037,4.2-1.879,7.61-2.474,10.016q-.41,1.732-.648,2.73c-.063.289-.115.523-.155.712a.9.9,0,0,0-.037.248.943.943,0,0,0,.087-.234l.2-.7c.179-.657.427-1.561.74-2.706l2.629-9.978c1.1-4.229,2.395-9.247,3.837-14.814,1.382-5.6,2.9-11.748,4.5-18.2a90.254,90.254,0,0,0,1.694-9.567,18.171,18.171,0,0,1,1.092-4.41c.556-1.38,1.272-2.668,1.918-3.961a29.382,29.382,0,0,0,2.514-7.811c.539-2.505,1.049-4.831,1.625-6.926s1.184-3.965,1.791-5.58c.579-1.622,1.27-2.958,1.561-4.163.273-1.2.423-2.126.546-2.758.05-.291.091-.528.124-.719A.918.918,0,0,0,127.426,332.1Z" transform="translate(-102.539 -332.097)" fill="#263238"/>
                  </g>
                </g>
              </g>
            </g>
          </g>
          <g id="Group_1284" data-name="Group 1284">
            <g id="Group_1279" data-name="Group 1279">
              <g id="Group_1278" data-name="Group 1278">
                <g id="Group_1277" data-name="Group 1277">
                  <path id="Path_343" data-name="Path 343" d="M92.517,412.4c5.144-3.057,6.62-12.339,4.475-17.925s-5.9-10.69-6.481-16.647c-.445-4.579,1.054-9.278-.013-13.752-1.439-6.04-7.335-10.717-7.267-16.925.038-3.484,2.02-6.761,1.862-10.241-.193-4.269-3.47-7.655-5.5-11.415-3.106-5.755-3.31-12.56-4.372-19.013s-3.522-13.364-9.241-16.536c-.844,5.479-2.286,9.231-1.834,16.653.163,2.666,3.259,7.768,3.681,13.61.252,3.491.426,6.988.64,10.483.207,3.4.428,6.862,1.646,10.044.934,2.438,2.434,4.652,3.128,7.169,1.3,4.735-.409,9.863.644,14.66.893,4.064,3.705,7.562,4.28,11.683.807,5.79-2.94,11.806-1.022,17.329.952,2.741,3.206,4.942,3.847,7.771.5,2.2-.045,4.52.4,6.726.724,3.554,7.5,6.314,11.123,6.094" transform="translate(-64.062 -289.942)" fill="#d99f12"/>
                </g>
              </g>
            </g>
            <g id="Group_1283" data-name="Group 1283" transform="translate(3.334 5.439)">
              <g id="Group_1282" data-name="Group 1282">
                <g id="Group_1281" data-name="Group 1281">
                  <g id="Group_1280" data-name="Group 1280">
                    <path id="Path_344" data-name="Path 344" d="M68.806,297.675a1.436,1.436,0,0,0,.022.309c.03.231.068.528.116.9.118.791.25,1.953.518,3.456.287,1.511,1.066,3.211,1.687,5.262.657,2.044,1.31,4.4,1.887,7.044s1.078,5.561,1.594,8.7a36.477,36.477,0,0,0,2.637,9.842c.722,1.644,1.531,3.29,2.139,5.044a22.65,22.65,0,0,1,1.085,5.558A112.135,112.135,0,0,0,82,355.779l4.442,22.887c1.44,7.01,2.737,13.325,3.829,18.642l2.624,12.56c.315,1.454.563,2.6.738,3.41.085.366.153.658.2.884a1.408,1.408,0,0,0,.087.3,1.4,1.4,0,0,0-.036-.308c-.039-.229-.091-.523-.155-.894-.153-.817-.37-1.966-.646-3.429-.589-3.007-1.43-7.3-2.467-12.591-1.061-5.323-2.322-11.645-3.722-18.663-1.353-7.036-2.839-14.766-4.4-22.881a113.653,113.653,0,0,1-1.514-11.944,23.054,23.054,0,0,0-1.122-5.67c-.626-1.791-1.447-3.444-2.169-5.075a36.335,36.335,0,0,1-2.649-9.724c-.533-3.138-1.047-6.068-1.658-8.712s-1.282-5.01-1.967-7.054c-.653-2.058-1.456-3.744-1.765-5.217-.293-1.475-.46-2.648-.61-3.429-.068-.37-.123-.664-.165-.893A1.35,1.35,0,0,0,68.806,297.675Z" transform="translate(-68.802 -297.675)" fill="#263238"/>
                  </g>
                </g>
              </g>
            </g>
          </g>
        </g>
      </g>
    </g>
    <g id="Speech_Bubble" data-name="Speech Bubble" transform="translate(279.281 50.107)">
      <g id="Group_1294" data-name="Group 1294">
        <g id="Group_1287" data-name="Group 1287" transform="translate(15.342 11.68)">
          <path id="Path_345" data-name="Path 345" d="M417.051,85.063h-2.8a2.38,2.38,0,0,1-2.443,2.393,2.267,2.267,0,0,1-2.194-1.446,2.51,2.51,0,0,1,.2-2.268c.475-.784,1.516-1.495,3.4-1.163V76.267h-2.768v3.7a5.406,5.406,0,0,0-3.882,5.283c0,4.094,3.671,5.045,5.243,5.045C413.01,90.293,417.1,90,417.051,85.063Z" transform="translate(-406.565 -72.343)" fill="#d99f12"/>
          <rect id="Rectangle_170" data-name="Rectangle 170" width="2.81" height="2.624" transform="translate(6.659 2.624) rotate(180)" fill="#d99f12"/>
        </g>
        <g id="Group_1293" data-name="Group 1293">
          <g id="Group_1292" data-name="Group 1292">
            <g id="Group_1291" data-name="Group 1291">
              <g id="Group_1290" data-name="Group 1290">
                <g id="Group_1289" data-name="Group 1289">
                  <g id="Group_1288" data-name="Group 1288">
                    <path id="Path_346" data-name="Path 346" d="M425.914,74.734a2.016,2.016,0,0,0,.006-.354c-.007-.257-.017-.6-.03-1.042-.011-.229-.011-.486-.034-.767q-.06-.423-.129-.919l-.154-1.072q-.139-.563-.3-1.2a19.392,19.392,0,0,0-2.531-5.8,20.48,20.48,0,0,0-15.4-9.408,21.142,21.142,0,0,0-2.807-.057c-.474.033-.957.024-1.436.093l-1.445.218a20.589,20.589,0,0,0-5.712,1.95,21.982,21.982,0,0,0-5.133,3.73,21.553,21.553,0,0,0-3.861,5.375,19.527,19.527,0,0,0-2.011,6.552,13.01,13.01,0,0,0-.148,1.747,15.723,15.723,0,0,0-.032,1.766,20.927,20.927,0,0,0,.447,3.538,20.678,20.678,0,0,0,2.964,7.043l-.022-.214-2.879,7.175-.171.425.442-.121,7.67-2.109-.189-.036a20.59,20.59,0,0,0,8.764,3.828,18.649,18.649,0,0,0,4.491.279,14.423,14.423,0,0,0,2.156-.2l1.049-.162c.345-.065.679-.17,1.016-.251a20.521,20.521,0,0,0,11.669-8,19.614,19.614,0,0,0,2.513-4.764l.384-1.073q.135-.53.259-1.018l.231-.932c.058-.3.089-.587.13-.858.069-.542.163-1.018.183-1.436s.025-.762.035-1.054c.006-.267.011-.48.015-.644a.993.993,0,0,0-.008-.218,1.014,1.014,0,0,0-.03.218c-.013.164-.03.375-.051.641q-.028.436-.07,1.048c-.032.414-.137.886-.217,1.423a20.4,20.4,0,0,1-15.134,16.314c-.331.079-.659.181-1,.242l-1.031.155a14.186,14.186,0,0,1-2.118.19,18.281,18.281,0,0,1-4.4-.291,20.213,20.213,0,0,1-8.574-3.775l-.086-.065-.1.028-7.675,2.093.271.3q1.412-3.506,2.888-7.171l.045-.113-.067-.1a20.253,20.253,0,0,1-2.895-6.886,20.559,20.559,0,0,1-.437-3.458,15.365,15.365,0,0,1,.031-1.727,12.547,12.547,0,0,1,.144-1.708,19.11,19.11,0,0,1,1.96-6.407,21.161,21.161,0,0,1,3.768-5.264,21.6,21.6,0,0,1,5.016-3.664,20.23,20.23,0,0,1,5.589-1.929l1.417-.219c.468-.07.942-.062,1.407-.1a20.222,20.222,0,0,1,17.966,9.208,19.515,19.515,0,0,1,2.575,5.71q.166.625.314,1.182l.174,1.061q.081.491.15.909c.031.279.038.535.056.762.032.437.057.78.075,1.036A1.929,1.929,0,0,0,425.914,74.734Z" transform="translate(-384.752 -54.081)" fill="#263238"/>
                  </g>
                </g>
              </g>
            </g>
          </g>
        </g>
      </g>
    </g>
    <g id="Question_Mark" data-name="Question Mark" transform="translate(93.869 77.557)">
      <g id="Group_1303" data-name="Group 1303">
        <g id="Group_1297" data-name="Group 1297">
          <g id="Group_1295" data-name="Group 1295" transform="translate(16.824)">
            <path id="Path_347" data-name="Path 347" d="M145.063,169.263h40.62s0-34.105,35.443-34.716c18.408-.316,27.951,11.741,31.829,20.978,4.5,10.727,3.14,22.952-2.893,32.9-6.889,11.359-21.727,22.773-49.1,17.95l-.26,90.5h40.165V243.222S297.2,228.66,297.2,166.581c0-59.4-48.033-72.229-73.847-73.053-14.366-.459-19.572-1.076-37.338,1.446C163.372,98.188,144.584,124.476,145.063,169.263Z" transform="translate(-145.054 -93.11)" fill="#e8505b"/>
            <rect id="Rectangle_171" data-name="Rectangle 171" width="40.762" height="38.071" transform="translate(55.534 222.629)" fill="#e8505b"/>
            <path id="Path_472" data-name="Path 472" d="M0,0H40.762V38.071H0Z" transform="translate(55.534 222.629)" fill="#131c4c"/>
            <path id="Path_348" data-name="Path 348" d="M145.063,169.263h40.62s0-34.105,35.443-34.716c18.408-.316,27.951,11.741,31.829,20.978,4.5,10.727,3.14,22.952-2.893,32.9-6.889,11.359-21.727,22.773-49.1,17.95l-.26,90.5h40.165V243.222S297.2,228.66,297.2,166.581c0-59.4-48.033-72.229-73.847-73.053-14.366-.459-19.572-1.076-37.338,1.446C163.372,98.188,144.584,124.476,145.063,169.263Z" transform="translate(-145.054 -93.11)" fill="#131c4c"/>
          </g>
          <g id="Group_1296" data-name="Group 1296" transform="translate(0 0.278)">
            <path id="Path_349" data-name="Path 349" d="M121.141,169.38h40.62s0-34.105,35.443-34.716c18.407-.317,27.951,11.741,31.829,20.978,4.5,10.727,3.14,22.952-2.894,32.9-6.889,11.359-21.987,21.684-49.362,16.861v91.586h40.165V243.34s56.332-14.562,56.332-76.641c0-59.4-53.266-73.193-76.066-73.193C179.772,93.506,120.375,97.721,121.141,169.38Z" transform="translate(-121.134 -93.506)" fill="#e8505b"/>
            <path id="Path_350" data-name="Path 350" d="M121.141,169.38h40.62s0-34.105,35.443-34.716c18.407-.317,27.951,11.741,31.829,20.978,4.5,10.727,3.14,22.952-2.894,32.9-6.889,11.359-21.987,21.684-49.362,16.861v91.586h40.165V243.34s56.332-14.562,56.332-76.641c0-59.4-53.266-73.193-76.066-73.193C179.772,93.506,120.375,97.721,121.141,169.38Z" transform="translate(-121.134 -93.506)" fill="#44529b"/>
            <rect id="Rectangle_173" data-name="Rectangle 173" width="40.762" height="38.071" transform="translate(55.532 222.35)" fill="#e8505b"/>
            <rect id="Rectangle_174" data-name="Rectangle 174" width="40.762" height="38.071" transform="translate(55.532 222.35)" fill="#44529b"/>
          </g>
        </g>
        <g id="Group_1298" data-name="Group 1298" transform="translate(40.385 41.212)">
          <path id="Path_351" data-name="Path 351" d="M218.826,152.119a3.772,3.772,0,0,1-.608-.037c-.4-.02-.976-.132-1.731-.14a35.393,35.393,0,0,0-6.369.264,45.639,45.639,0,0,0-9.195,2.163,39.249,39.249,0,0,0-5.123,2.2,27.239,27.239,0,0,0-5.01,3.245,24.85,24.85,0,0,0-4.1,4.332,40.079,40.079,0,0,0-6.711,13.367,35.173,35.173,0,0,0-1.222,6.256c-.087.75-.109,1.335-.129,1.732a3.823,3.823,0,0,1-.055.606,3.735,3.735,0,0,1-.019-.608c0-.4,0-.987.062-1.743a32.554,32.554,0,0,1,1.114-6.313,40.335,40.335,0,0,1,3.593-8.806,41.079,41.079,0,0,1,3.083-4.71,24.959,24.959,0,0,1,4.152-4.4,27.3,27.3,0,0,1,5.078-3.28,38.831,38.831,0,0,1,5.177-2.2,44.452,44.452,0,0,1,9.274-2.1,32.861,32.861,0,0,1,6.41-.149c.757.031,1.336.166,1.732.21A3.761,3.761,0,0,1,218.826,152.119Z" transform="translate(-178.552 -151.705)" fill="#263238"/>
        </g>
        <g id="Group_1299" data-name="Group 1299" transform="translate(73.284 0.292)">
          <path id="Path_352" data-name="Path 352" d="M293.9,127.607a.858.858,0,0,1-.132-.16l-.356-.489-1.336-1.9c-.293-.409-.6-.879-.968-1.367l-1.268-1.539-1.455-1.769c-.529-.614-1.146-1.212-1.761-1.867s-1.257-1.349-1.971-2.023l-2.271-2.053c-.4-.351-.783-.726-1.2-1.073l-1.309-1.03c-.893-.688-1.779-1.438-2.747-2.13a87.931,87.931,0,0,0-13.309-7.86l-3.706-1.676-3.683-1.429c-1.2-.5-2.422-.85-3.6-1.241-1.19-.369-2.335-.8-3.495-1.068l-3.364-.883c-1.09-.289-2.174-.46-3.208-.686-1.04-.194-2.033-.453-3.008-.574l-2.8-.4c-1.777-.3-3.408-.366-4.832-.509-.713-.056-1.376-.132-1.988-.16l-1.675-.045-2.32-.075-.6-.029a.858.858,0,0,1-.206-.023.875.875,0,0,1,.205-.015l.6-.007,2.324.006,1.68.013c.613.018,1.278.084,1.994.131,1.428.124,3.066.167,4.85.456l2.809.383c.98.115,1.977.367,3.022.556,1.039.219,2.128.385,3.223.67l3.38.872c1.165.268,2.317.693,3.512,1.06,1.189.389,2.418.741,3.621,1.236l3.7,1.43,3.723,1.682a86.368,86.368,0,0,1,13.351,7.918c.969.7,1.857,1.457,2.749,2.152l1.309,1.042c.421.351.808.73,1.2,1.085l2.267,2.078c.712.682,1.335,1.4,1.962,2.047.612.665,1.224,1.271,1.749,1.893L290,122.027l1.248,1.562c.362.5.66.973.945,1.39l1.283,1.939.325.509A.92.92,0,0,1,293.9,127.607Z" transform="translate(-225.328 -93.525)" fill="#263238"/>
        </g>
        <g id="Group_1300" data-name="Group 1300" transform="translate(95.975 121.584)">
          <path id="Path_353" data-name="Path 353" d="M299.243,265.978a2.807,2.807,0,0,1-.307.421L298,267.565c-.406.507-.913,1.119-1.533,1.8s-1.3,1.488-2.114,2.313c-.8.842-1.684,1.759-2.679,2.695-.969.965-2.068,1.926-3.211,2.952a87.975,87.975,0,0,1-16.429,11.327c-1.366.7-2.656,1.39-3.9,1.952-1.229.6-2.4,1.1-3.471,1.546-1.063.47-2.054.821-2.915,1.154s-1.611.594-2.229.792l-1.422.461a2.838,2.838,0,0,1-.5.137,2.761,2.761,0,0,1,.48-.207l1.4-.526c.61-.219,1.353-.495,2.2-.849s1.833-.717,2.886-1.2c1.062-.463,2.223-.974,3.442-1.582,1.236-.572,2.516-1.265,3.872-1.975,2.684-1.473,5.574-3.205,8.49-5.2,2.9-2.015,5.548-4.1,7.879-6.084,1.145-1.015,2.248-1.964,3.223-2.916,1-.923,1.891-1.827,2.7-2.654.827-.812,1.519-1.6,2.149-2.271s1.156-1.265,1.578-1.757l.988-1.12A2.778,2.778,0,0,1,299.243,265.978Z" transform="translate(-257.591 -265.978)" fill="#263238"/>
        </g>
        <g id="Group_1301" data-name="Group 1301" transform="translate(94.915 150.109)">
          <path id="Path_354" data-name="Path 354" d="M256.268,357c-.1,0-.184-11.3-.184-25.231s.082-25.233.184-25.233.183,11.3.183,25.233S256.369,357,256.268,357Z" transform="translate(-256.084 -306.534)" fill="#263238"/>
        </g>
        <g id="Group_1302" data-name="Group 1302" transform="translate(96.465 222.705)">
          <path id="Path_355" data-name="Path 355" d="M258.471,445.164c-.1,0-.184-7.928-.184-17.705s.082-17.707.184-17.707.183,7.926.183,17.707S258.571,445.164,258.471,445.164Z" transform="translate(-258.287 -409.752)" fill="#263238"/>
        </g>
      </g>
    </g>
    <g id="Character" transform="translate(227.242 62.695)">
      <g id="Group_1518" data-name="Group 1518" transform="translate(0 0)">
        <g id="Group_1320" data-name="Group 1320" transform="translate(0 45.025)">
          <path id="Path_356" data-name="Path 356" d="M315.349,190.591c-.71,1.416,1.919,2.558,3.435,3.017a19.176,19.176,0,0,0,10.807-1.025,9.679,9.679,0,0,0,3.671-4.117,28.851,28.851,0,0,0,1.864-5.267S318.508,184.286,315.349,190.591Z" transform="translate(-312.088 -149.999)" fill="#e8505b"/>
          <g id="Group_1304" data-name="Group 1304" transform="translate(3.142 33.199)" opacity="0.4">
            <path id="Path_357" data-name="Path 357" d="M315.349,190.591c-.71,1.416,1.919,2.558,3.435,3.017a19.176,19.176,0,0,0,10.807-1.025,9.679,9.679,0,0,0,3.671-4.117,28.851,28.851,0,0,0,1.864-5.267S318.508,184.286,315.349,190.591Z" transform="translate(-315.23 -183.198)"/>
          </g>
          <g id="Group_1306" data-name="Group 1306" transform="translate(49.121 31.203)">
            <path id="Path_358" data-name="Path 358" d="M381.687,185.245a15.935,15.935,0,0,0,9.38,2.945,6.651,6.651,0,0,0,4.466-1.4c.542-.5.947-1.13,1.505-1.606.379-.324.823-.57,1.18-.918a1.509,1.509,0,0,0,.518-1.335,2.784,2.784,0,0,0-.971-1.553c-1.909-1.083-4.186-1.044-6.379-.994a21.873,21.873,0,0,0-6.435,1.262c-1.7.573-3.484,1.381-4.347,2.954" transform="translate(-380.602 -180.36)" fill="#e8505b"/>
            <g id="Group_1305" data-name="Group 1305" transform="translate(0 0.01)" opacity="0.4">
              <path id="Path_359" data-name="Path 359" d="M398.735,182.931a2.946,2.946,0,0,0-1.248-1.413,11.232,11.232,0,0,0-6.1-1.134,21.874,21.874,0,0,0-6.435,1.262c-1.7.573-3.484,1.381-4.347,2.954l1.085.65a15.934,15.934,0,0,0,9.38,2.945,6.651,6.651,0,0,0,4.466-1.4c.542-.5.947-1.13,1.505-1.606.379-.324.823-.57,1.18-.918A1.509,1.509,0,0,0,398.735,182.931Z" transform="translate(-380.602 -180.374)"/>
            </g>
          </g>
          <path id="Path_360" data-name="Path 360" d="M328.527,197.332l35.062.459a.451.451,0,0,0,.435-.588l-4.112-12.83s.606-6.41,1.443-14.125c1.272-11.706,2.962-26.426,2.984-26.386-2.395-6.72-16.545-7.866-16.545-7.866l-16.128.959-.568-.946-4.641,2.158a21.454,21.454,0,0,0-2.912,1.642c-3.062,2.052-10.453,6.752-11.8,12-3.114,12.127,2.161,25.667,2.161,25.667l3.385-2.647a23.762,23.762,0,0,1,2.687-1.8l6.795,18.206a3.21,3.21,0,0,0-1.474,2.337,3.618,3.618,0,0,0,3.227,3.759" transform="translate(-310.763 -135.996)" fill="#e8505b"/>
          <g id="Group_1307" data-name="Group 1307" transform="translate(28.221 21.695)" opacity="0.3">
            <path id="Path_361" data-name="Path 361" d="M355.461,185.015c1.112-5.976.524-12.123-.068-18.173-1.947,4.95-1.876,10.529-3.936,15.433a6.6,6.6,0,0,0-.549,1.625,1.815,1.815,0,0,0,.468,1.586c.56.512,1.395.236,2.148.146a8.206,8.206,0,0,0,1.936-.615" transform="translate(-350.887 -166.842)"/>
          </g>
          <g id="Group_1308" data-name="Group 1308" transform="translate(19.408 49.257)" opacity="0.4">
            <path id="Path_362" data-name="Path 362" d="M338.829,210.479c2.831.981,5.807-.839,8.786-1.163a22.154,22.154,0,0,1,5.892.555,44.049,44.049,0,0,0,11.957.293,4.575,4.575,0,0,0,1.759-.454,2.122,2.122,0,0,0,.92-1.746c-6.621-.679-13.244-1.085-19.865-1.764a12.486,12.486,0,0,0-4.966.158c-2,.62-3.544,2.192-4.955,3.742" transform="translate(-338.357 -206.03)"/>
          </g>
          <path id="Path_363" data-name="Path 363" d="M396.181,170.473c-2.867-6.445-12.959-24.283-12.959-24.283l-7.817,9.8,1.824,19.237s4.127-4.608,15.668-4.7a5.657,5.657,0,0,1,4.3,2.262Z" transform="translate(-329.94 -139.02)" fill="#e8505b"/>
          <g id="Group_1309" data-name="Group 1309" transform="translate(17.023 19.538)">
            <path id="Path_364" data-name="Path 364" d="M337.26,172.285a26.608,26.608,0,0,1-1.317-4.207,26.621,26.621,0,0,1-.964-4.3,26.619,26.619,0,0,1,1.317,4.207A26.767,26.767,0,0,1,337.26,172.285Z" transform="translate(-334.965 -163.776)" fill="#263238"/>
          </g>
          <g id="Group_1310" data-name="Group 1310" transform="translate(44.873 15.664)">
            <path id="Path_365" data-name="Path 365" d="M374.565,158.269a4.738,4.738,0,0,1,.723.615,19.789,19.789,0,0,1,1.741,1.914,18.459,18.459,0,0,1,3.732,7.638,14.278,14.278,0,0,1,.224,4.712c-.181,1.439-.457,2.7-.634,3.776s-.3,1.94-.352,2.543a6.29,6.29,0,0,1-.1.94,3.759,3.759,0,0,1-.044-.948,22.278,22.278,0,0,1,.238-2.576c.144-1.08.394-2.357.554-3.776a14.472,14.472,0,0,0-.247-4.6,19.334,19.334,0,0,0-3.579-7.555C375.525,159.223,374.511,158.322,374.565,158.269Z" transform="translate(-374.563 -158.268)" fill="#263238"/>
          </g>
          <g id="Group_1311" data-name="Group 1311" transform="translate(19.343 54.096)">
            <path id="Path_366" data-name="Path 366" d="M356.638,218.616a3.274,3.274,0,0,1-.763.222,7.329,7.329,0,0,1-.916.177,12.32,12.32,0,0,1-1.227.15,18.176,18.176,0,0,1-3.22-.018,19.125,19.125,0,0,1-7.5-2.328,18.122,18.122,0,0,1-2.664-1.809,12.25,12.25,0,0,1-.927-.818,7.334,7.334,0,0,1-.653-.665,3.286,3.286,0,0,1-.5-.615c.053-.051.807.794,2.244,1.895a20.234,20.234,0,0,0,2.666,1.716,20.216,20.216,0,0,0,7.371,2.289,20.218,20.218,0,0,0,3.169.095C355.522,218.813,356.623,218.545,356.638,218.616Z" transform="translate(-338.264 -212.91)" fill="#263238"/>
          </g>
          <g id="Group_1312" data-name="Group 1312" transform="translate(46.319 55.791)">
            <path id="Path_367" data-name="Path 367" d="M378.844,215.32a2.484,2.484,0,0,1,.271,1.027,6.336,6.336,0,0,1-.189,2.563,4.469,4.469,0,0,1-1.378,2.178,1.942,1.942,0,0,1-.927.528c-.031-.053.311-.267.75-.717a4.983,4.983,0,0,0,1.2-2.094A13.67,13.67,0,0,0,378.844,215.32Z" transform="translate(-376.619 -215.32)" fill="#263238"/>
          </g>
          <g id="Group_1313" data-name="Group 1313" transform="translate(45.126 58.269)">
            <path id="Path_368" data-name="Path 368" d="M376.434,218.843a3.823,3.823,0,0,1-1.506,3.882c-.078-.077.579-.776.986-1.85C376.338,219.806,376.325,218.847,376.434,218.843Z" transform="translate(-374.922 -218.843)" fill="#263238"/>
          </g>
          <g id="Group_1314" data-name="Group 1314" transform="translate(37.864 35.121)">
            <path id="Path_369" data-name="Path 369" d="M367.093,185.936a14.233,14.233,0,0,1-1.251,1.8,14.3,14.3,0,0,1-1.229,1.815,6.527,6.527,0,0,1,2.481-3.615Z" transform="translate(-364.598 -185.93)" fill="#263238"/>
          </g>
          <g id="Group_1315" data-name="Group 1315" transform="translate(4.585 13.659)">
            <path id="Path_370" data-name="Path 370" d="M328.993,159.85a17.706,17.706,0,0,1-1.555-1.03,20.025,20.025,0,0,0-8.306-3.1,17.775,17.775,0,0,1-1.85-.241,6.488,6.488,0,0,1,1.879-.017,16.822,16.822,0,0,1,8.425,3.145A6.517,6.517,0,0,1,328.993,159.85Z" transform="translate(-317.282 -155.416)" fill="#263238"/>
          </g>
          <g id="Group_1316" data-name="Group 1316" transform="translate(47.055 6.933)">
            <path id="Path_371" data-name="Path 371" d="M383.9,145.856a30.536,30.536,0,0,0-3.554,3.325,30.515,30.515,0,0,0-2.671,4.069,4.337,4.337,0,0,1,.49-1.364,13.941,13.941,0,0,1,4.473-5.314A4.347,4.347,0,0,1,383.9,145.856Z" transform="translate(-377.666 -145.853)" fill="#263238"/>
          </g>
          <g id="Group_1317" data-name="Group 1317" transform="translate(18.472 1.141)">
            <path id="Path_372" data-name="Path 372" d="M357.361,137.618a1.338,1.338,0,0,1,.158.325,6.045,6.045,0,0,1,.328.987,8.342,8.342,0,0,1-.013,3.809,9.361,9.361,0,0,1-2.869,4.847,9.727,9.727,0,0,1-6.471,2.3,10.95,10.95,0,0,1-6.533-2.184,12.5,12.5,0,0,1-3.6-4.358,13.29,13.29,0,0,1-1.2-3.619,9.624,9.624,0,0,1-.126-1.028,1.334,1.334,0,0,1-.007-.362c.037,0,.08.491.273,1.362a14.412,14.412,0,0,0,1.288,3.529,12.516,12.516,0,0,0,3.567,4.205,10.739,10.739,0,0,0,6.334,2.088,9.481,9.481,0,0,0,6.247-2.192,9.24,9.24,0,0,0,2.839-4.654,8.63,8.63,0,0,0,.126-3.718C357.534,138.087,357.318,137.634,357.361,137.618Z" transform="translate(-337.026 -137.618)" fill="#263238"/>
          </g>
          <g id="Group_1318" data-name="Group 1318" transform="translate(37.88 35.359)" opacity="0.3">
            <path id="Path_373" data-name="Path 373" d="M368.007,187.283c-.011-.352-.056-.765-.361-.941a.692.692,0,0,0-.637.011,1.791,1.791,0,0,0-.509.421,8.6,8.6,0,0,0-1.879,3l3.448-.3C368.045,188.752,368.03,188.011,368.007,187.283Z" transform="translate(-364.62 -186.269)"/>
          </g>
          <g id="Group_1319" data-name="Group 1319" transform="translate(50.213 23.778)" opacity="0.3">
            <path id="Path_374" data-name="Path 374" d="M384.654,175.146a11.285,11.285,0,0,0-2.5-5.343,17.623,17.623,0,0,1,.153,10.947l.18-.466C383.446,178.337,384.918,177.117,384.654,175.146Z" transform="translate(-382.155 -169.803)"/>
          </g>
        </g>
        <g id="Group_1340" data-name="Group 1340" transform="translate(27.846 236.231)">
          <g id="Group_1321" data-name="Group 1321">
            <path id="Path_375" data-name="Path 375" d="M368.334,409.264l-2.1,31.547-13.716-.161-2.16-32.8Z" transform="translate(-350.355 -407.852)" fill="#ffbe9d"/>
          </g>
          <g id="Group_1339" data-name="Group 1339" transform="translate(1.185 28.479)">
            <g id="Group_1338" data-name="Group 1338">
              <g id="Group_1323" data-name="Group 1323">
                <g id="Group_1322" data-name="Group 1322">
                  <path id="Path_376" data-name="Path 376" d="M367.122,448.671l0,.912s15.46,6.222,15.622,9.157l-30.707-.18.478-10.216A17.565,17.565,0,0,0,367.122,448.671Z" transform="translate(-352.04 -448.344)" fill="#e8505b"/>
                </g>
              </g>
              <g id="Group_1326" data-name="Group 1326" transform="translate(2.667 3.235)">
                <g id="Group_1325" data-name="Group 1325">
                  <g id="Group_1324" data-name="Group 1324">
                    <path id="Path_377" data-name="Path 377" d="M356.732,452.994a1.254,1.254,0,0,0-.875,1.426,1.2,1.2,0,0,0,1.405.88,1.323,1.323,0,0,0,.919-1.515,1.25,1.25,0,0,0-1.564-.753" transform="translate(-355.832 -452.944)" fill="#fff"/>
                  </g>
                </g>
              </g>
              <g id="Group_1328" data-name="Group 1328" transform="translate(0 7.759)">
                <g id="Group_1327" data-name="Group 1327">
                  <path id="Path_378" data-name="Path 378" d="M352.04,461.833l.115-2.457,29.389,1.072s1.364.6,1.2,1.565Z" transform="translate(-352.04 -459.376)" fill="#263238"/>
                </g>
              </g>
              <g id="Group_1331" data-name="Group 1331" transform="translate(12.383 1.184)">
                <g id="Group_1330" data-name="Group 1330">
                  <g id="Group_1329" data-name="Group 1329">
                    <path id="Path_379" data-name="Path 379" d="M372.454,450.169c-.006.15-.756.214-1.5.691-.753.459-1.137,1.106-1.274,1.045-.138-.03.091-.925,1-1.488S372.488,450.032,372.454,450.169Z" transform="translate(-369.646 -450.028)" fill="#263238"/>
                  </g>
                </g>
              </g>
              <g id="Group_1334" data-name="Group 1334" transform="translate(16.357 2.615)">
                <g id="Group_1333" data-name="Group 1333">
                  <g id="Group_1332" data-name="Group 1332">
                    <path id="Path_380" data-name="Path 380" d="M377.344,452.124c.034.146-.617.4-1.13,1.028-.532.615-.664,1.3-.813,1.293-.141.023-.24-.856.413-1.629S377.341,451.981,377.344,452.124Z" transform="translate(-375.296 -452.062)" fill="#263238"/>
                  </g>
                </g>
              </g>
              <g id="Group_1337" data-name="Group 1337" transform="translate(20.034 3.962)">
                <g id="Group_1336" data-name="Group 1336">
                  <g id="Group_1335" data-name="Group 1335">
                    <path id="Path_381" data-name="Path 381" d="M380.7,456.557c-.136.031-.34-.719.049-1.538s1.093-1.142,1.156-1.016c.084.124-.373.562-.684,1.239C380.9,455.911,380.851,456.543,380.7,456.557Z" transform="translate(-380.525 -453.977)" fill="#263238"/>
                  </g>
                </g>
              </g>
            </g>
          </g>
        </g>
        <g id="Group_1447" data-name="Group 1447" transform="translate(7.32)">
          <path id="Path_382" data-name="Path 382" d="M359.348,78.925a4.983,4.983,0,0,0-1.88-5.617,8.164,8.164,0,0,0-6.093-1.2,24.249,24.249,0,0,0-6.008,2.076,6.782,6.782,0,0,0-11.512,3.759,4.31,4.31,0,0,0-5.107,5.661l9.507,3.339,10.383,18.264a8.306,8.306,0,0,0,12.223-11.044,7.126,7.126,0,0,0,1.459-1.8,7.278,7.278,0,0,0,3.36-4.5A7.683,7.683,0,0,0,359.348,78.925Z" transform="translate(-323.343 -71.979)" fill="#263238"/>
          <g id="Group_1441" data-name="Group 1441" transform="translate(0 4.95)">
            <g id="Group_1418" data-name="Group 1418" transform="translate(6.245)">
              <g id="Group_1417" data-name="Group 1417">
                <g id="Group_1415" data-name="Group 1415" transform="translate(0 1.805)">
                  <g id="Group_1414" data-name="Group 1414">
                    <g id="Group_1413" data-name="Group 1413">
                      <g id="Group_1412" data-name="Group 1412">
                        <g id="Group_1397" data-name="Group 1397">
                          <g id="Group_1396" data-name="Group 1396">
                            <g id="Group_1395" data-name="Group 1395">
                              <g id="Group_1347" data-name="Group 1347">
                                <g id="Group_1346" data-name="Group 1346">
                                  <g id="Group_1345" data-name="Group 1345">
                                    <g id="Group_1344" data-name="Group 1344">
                                      <g id="Group_1343" data-name="Group 1343">
                                        <g id="Group_1342" data-name="Group 1342">
                                          <g id="Group_1341" data-name="Group 1341">
                                            <path id="Path_383" data-name="Path 383" d="M353.515,119.854c-.59-2.973-1-5.009-1-4.988,0,0,5.606-2.183,5.219-10.013-.192-3.894-1.677-10.033-3.055-15.017-1.24-4.486-5.422-9.432-9.852-8l-13.394,6.542c-1.345.434-1.581,1.7-1.264,3.076l.022.672,5.212,21.563,2.2,9.637A8.141,8.141,0,0,0,346.7,129.5h0A8.142,8.142,0,0,0,353.515,119.854Z" transform="translate(-330.048 -81.583)" fill="#ffbe9d"/>
                                          </g>
                                        </g>
                                      </g>
                                    </g>
                                  </g>
                                </g>
                              </g>
                              <g id="Group_1363" data-name="Group 1363" transform="translate(20.114 11.283)">
                                <g id="Group_1354" data-name="Group 1354" transform="translate(2.488 1.477)">
                                  <g id="Group_1353" data-name="Group 1353">
                                    <g id="Group_1352" data-name="Group 1352">
                                      <g id="Group_1351" data-name="Group 1351">
                                        <g id="Group_1350" data-name="Group 1350">
                                          <g id="Group_1349" data-name="Group 1349">
                                            <g id="Group_1348" data-name="Group 1348">
                                              <path id="Path_384" data-name="Path 384" d="M364.128,100.427a.992.992,0,0,1-.731,1.177.949.949,0,0,1-1.186-.665,1,1,0,0,1,.73-1.178A.952.952,0,0,1,364.128,100.427Z" transform="translate(-362.184 -99.726)" fill="#263238"/>
                                            </g>
                                          </g>
                                        </g>
                                      </g>
                                    </g>
                                  </g>
                                </g>
                                <g id="Group_1362" data-name="Group 1362">
                                  <g id="Group_1361" data-name="Group 1361">
                                    <g id="Group_1360" data-name="Group 1360">
                                      <g id="Group_1359" data-name="Group 1359">
                                        <g id="Group_1358" data-name="Group 1358">
                                          <g id="Group_1357" data-name="Group 1357">
                                            <g id="Group_1356" data-name="Group 1356">
                                              <g id="Group_1355" data-name="Group 1355">
                                                <path id="Path_385" data-name="Path 385" d="M362.5,98.307c-.094.152-.945-.238-1.99-.016-1.047.207-1.7.906-1.842.8-.068-.045.007-.3.29-.613a2.722,2.722,0,0,1,1.442-.8,2.616,2.616,0,0,1,1.616.171C362.391,98.031,362.548,98.238,362.5,98.307Z" transform="translate(-358.646 -97.625)" fill="#263238"/>
                                              </g>
                                            </g>
                                          </g>
                                        </g>
                                      </g>
                                    </g>
                                  </g>
                                </g>
                              </g>
                              <g id="Group_1379" data-name="Group 1379" transform="translate(10.001 13.762)">
                                <g id="Group_1370" data-name="Group 1370" transform="translate(2.424 1.331)">
                                  <g id="Group_1369" data-name="Group 1369">
                                    <g id="Group_1368" data-name="Group 1368">
                                      <g id="Group_1367" data-name="Group 1367">
                                        <g id="Group_1366" data-name="Group 1366">
                                          <g id="Group_1365" data-name="Group 1365">
                                            <g id="Group_1364" data-name="Group 1364">
                                              <path id="Path_386" data-name="Path 386" d="M349.658,103.744a.993.993,0,0,1-.731,1.177.949.949,0,0,1-1.185-.666.993.993,0,0,1,.73-1.177A.95.95,0,0,1,349.658,103.744Z" transform="translate(-347.715 -103.043)" fill="#263238"/>
                                            </g>
                                          </g>
                                        </g>
                                      </g>
                                    </g>
                                  </g>
                                </g>
                                <g id="Group_1378" data-name="Group 1378">
                                  <g id="Group_1377" data-name="Group 1377">
                                    <g id="Group_1376" data-name="Group 1376">
                                      <g id="Group_1375" data-name="Group 1375">
                                        <g id="Group_1374" data-name="Group 1374">
                                          <g id="Group_1373" data-name="Group 1373">
                                            <g id="Group_1372" data-name="Group 1372">
                                              <g id="Group_1371" data-name="Group 1371">
                                                <path id="Path_387" data-name="Path 387" d="M348.123,101.832c-.094.152-.945-.238-1.99-.016s-1.7.906-1.842.8c-.068-.045.006-.3.29-.613a2.722,2.722,0,0,1,1.441-.8,2.623,2.623,0,0,1,1.617.171C348.012,101.556,348.17,101.763,348.123,101.832Z" transform="translate(-344.268 -101.15)" fill="#263238"/>
                                              </g>
                                            </g>
                                          </g>
                                        </g>
                                      </g>
                                    </g>
                                  </g>
                                </g>
                              </g>
                              <g id="Group_1387" data-name="Group 1387" transform="translate(16.84 12.445)">
                                <g id="Group_1386" data-name="Group 1386">
                                  <g id="Group_1385" data-name="Group 1385">
                                    <g id="Group_1384" data-name="Group 1384">
                                      <g id="Group_1383" data-name="Group 1383">
                                        <g id="Group_1382" data-name="Group 1382">
                                          <g id="Group_1381" data-name="Group 1381">
                                            <g id="Group_1380" data-name="Group 1380">
                                              <path id="Path_388" data-name="Path 388" d="M356.3,107.892a7.064,7.064,0,0,1,1.635-.663c.261-.084.5-.189.509-.381a1.386,1.386,0,0,0-.344-.754l-1.216-1.867A35.631,35.631,0,0,1,354,99.279a35.783,35.783,0,0,1,3.28,4.7l1.186,1.887a1.577,1.577,0,0,1,.358,1.019.685.685,0,0,1-.357.482,1.858,1.858,0,0,1-.44.158A6.975,6.975,0,0,1,356.3,107.892Z" transform="translate(-353.992 -99.278)" fill="#263238"/>
                                            </g>
                                          </g>
                                        </g>
                                      </g>
                                    </g>
                                  </g>
                                </g>
                              </g>
                              <g id="Group_1394" data-name="Group 1394" transform="translate(11.755 32.704)">
                                <g id="Group_1393" data-name="Group 1393">
                                  <g id="Group_1392" data-name="Group 1392">
                                    <g id="Group_1391" data-name="Group 1391">
                                      <g id="Group_1390" data-name="Group 1390">
                                        <g id="Group_1389" data-name="Group 1389">
                                          <g id="Group_1388" data-name="Group 1388">
                                            <path id="Path_389" data-name="Path 389" d="M357.477,128.66a19.7,19.7,0,0,1-10.716-.578s3.682,4.811,11.118,2.511Z" transform="translate(-346.761 -128.082)" fill="#eb996e"/>
                                          </g>
                                        </g>
                                      </g>
                                    </g>
                                  </g>
                                </g>
                              </g>
                            </g>
                          </g>
                        </g>
                        <g id="Group_1404" data-name="Group 1404" transform="translate(9.269 12.374)">
                          <g id="Group_1403" data-name="Group 1403">
                            <g id="Group_1402" data-name="Group 1402">
                              <g id="Group_1401" data-name="Group 1401">
                                <g id="Group_1400" data-name="Group 1400">
                                  <g id="Group_1399" data-name="Group 1399">
                                    <g id="Group_1398" data-name="Group 1398">
                                      <path id="Path_390" data-name="Path 390" d="M348.012,99.755c-.069.3-1.145.294-2.371.6-1.232.277-2.192.764-2.388.525-.089-.115.053-.407.425-.736a4.25,4.25,0,0,1,3.626-.854C347.783,99.415,348.041,99.613,348.012,99.755Z" transform="translate(-343.228 -99.176)" fill="#263238"/>
                                    </g>
                                  </g>
                                </g>
                              </g>
                            </g>
                          </g>
                        </g>
                        <g id="Group_1411" data-name="Group 1411" transform="translate(19.314 7.926)">
                          <g id="Group_1410" data-name="Group 1410">
                            <g id="Group_1409" data-name="Group 1409">
                              <g id="Group_1408" data-name="Group 1408">
                                <g id="Group_1407" data-name="Group 1407">
                                  <g id="Group_1406" data-name="Group 1406">
                                    <g id="Group_1405" data-name="Group 1405">
                                      <path id="Path_391" data-name="Path 391" d="M361.767,93.565c-.167.283-1.071.215-2.1.419-1.033.173-1.859.556-2.111.35-.113-.1-.026-.369.307-.673a3.367,3.367,0,0,1,1.621-.746,3.326,3.326,0,0,1,1.771.127C361.668,93.209,361.838,93.429,361.767,93.565Z" transform="translate(-357.51 -92.852)" fill="#263238"/>
                                    </g>
                                  </g>
                                </g>
                              </g>
                            </g>
                          </g>
                        </g>
                      </g>
                    </g>
                  </g>
                </g>
                <g id="Group_1416" data-name="Group 1416" transform="translate(4.277)">
                  <path id="Path_392" data-name="Path 392" d="M336.536,82.576a5.3,5.3,0,0,0,7.182,3.852c1.114-.452,2.262-1.3,3.393-.892,1.189.43,1.562,2.011,2.666,2.628,1.577.883,3.477-.646,5.278-.5,1.391.117,2.469,1.2,3.557,2.072s2.6,1.6,3.83.943A15.689,15.689,0,0,0,361.2,87.3a5.278,5.278,0,0,0-2.576-2.436,19.792,19.792,0,0,1-1.878-.627c-1.27-.653-1.839-2.128-2.764-3.215a5.807,5.807,0,0,0-4.927-1.974c-1.523.157-2.967.923-4.5.858-1.131-.048-2.214-.551-3.346-.532-2.2.037-3.859,1.967-5.082,3.8" transform="translate(-336.129 -79.017)" fill="#263238"/>
                </g>
              </g>
            </g>
            <path id="Path_393" data-name="Path 393" d="M339.51,85.094c-1.007-.075-3.079-.287-3.76-1.006a5.934,5.934,0,0,0-5.656-1.855,4.9,4.9,0,0,0-3.53,4.686,7.039,7.039,0,0,0-5.134,5.044,8.161,8.161,0,0,0,1.757,7.389,14.623,14.623,0,0,1,1.154,1.672,11.953,11.953,0,0,0-1.251,1.9c-1.607,3.558,2.756,4.921,2.756,4.921.012,2.392,2.216,2.381,3.631,2.374,1.36-.006,2.2,3.764,3.3,3.618l-1.118-11.649a1.455,1.455,0,0,0,.516.094c2.667.047,1.971-5,1.107-6.3a15.112,15.112,0,0,0,2-3.218,10.9,10.9,0,0,0,.1-5.392C336.309,87.229,339.952,85.126,339.51,85.094Z" transform="translate(-321.17 -79.924)" fill="#263238"/>
            <g id="Group_1440" data-name="Group 1440" transform="translate(6.431 21.137)">
              <g id="Group_1428" data-name="Group 1428">
                <g id="Group_1427" data-name="Group 1427">
                  <g id="Group_1426" data-name="Group 1426">
                    <g id="Group_1425" data-name="Group 1425">
                      <g id="Group_1424" data-name="Group 1424">
                        <g id="Group_1423" data-name="Group 1423">
                          <g id="Group_1422" data-name="Group 1422">
                            <g id="Group_1421" data-name="Group 1421">
                              <g id="Group_1420" data-name="Group 1420">
                                <g id="Group_1419" data-name="Group 1419">
                                  <path id="Path_394" data-name="Path 394" d="M334.766,110.808a2.258,2.258,0,0,0-3.626-1.21c-.675.6-1.078,1.617-.652,3.315,1.136,4.527,5.447,2.453,5.423,2.322C335.9,115.154,335.253,112.678,334.766,110.808Z" transform="translate(-330.313 -109.069)" fill="#ffbe9d"/>
                                </g>
                              </g>
                            </g>
                          </g>
                        </g>
                      </g>
                    </g>
                  </g>
                </g>
              </g>
              <g id="Group_1439" data-name="Group 1439" transform="translate(1.255 1.408)">
                <g id="Group_1438" data-name="Group 1438">
                  <g id="Group_1437" data-name="Group 1437">
                    <g id="Group_1436" data-name="Group 1436">
                      <g id="Group_1435" data-name="Group 1435">
                        <g id="Group_1434" data-name="Group 1434">
                          <g id="Group_1433" data-name="Group 1433">
                            <g id="Group_1432" data-name="Group 1432">
                              <g id="Group_1431" data-name="Group 1431">
                                <g id="Group_1430" data-name="Group 1430">
                                  <g id="Group_1429" data-name="Group 1429">
                                    <path id="Path_395" data-name="Path 395" d="M334.627,114.46c-.024-.009-.065.075-.184.17a.813.813,0,0,1-.587.16c-.522-.056-1.115-.714-1.342-1.525a2.7,2.7,0,0,1-.063-1.184.94.94,0,0,1,.442-.754.414.414,0,0,1,.52.1c.092.111.087.209.112.211s.079-.1,0-.279a.521.521,0,0,0-.249-.239.617.617,0,0,0-.466-.006,1.144,1.144,0,0,0-.648.909,2.772,2.772,0,0,0,.043,1.331c.258.9.94,1.642,1.642,1.666a.867.867,0,0,0,.691-.3C334.646,114.572,334.644,114.465,334.627,114.46Z" transform="translate(-332.097 -111.071)" fill="#eb996e"/>
                                  </g>
                                </g>
                              </g>
                            </g>
                          </g>
                        </g>
                      </g>
                    </g>
                  </g>
                </g>
              </g>
            </g>
          </g>
          <g id="Group_1442" data-name="Group 1442" transform="translate(13.418 7.9)">
            <path id="Path_396" data-name="Path 396" d="M362,96.813c-.028-.034.409-.316.987-1.023a6.656,6.656,0,0,0,1.414-3.517,6.476,6.476,0,0,0-.253-2.608,5.6,5.6,0,0,0-1.608-2.5,6.61,6.61,0,0,0-6.465-1.258c-.212.068-.408.174-.608.257-.192.1-.373.213-.553.314l-.279.157,0-.31a2.286,2.286,0,0,0-.569-1.478,3.634,3.634,0,0,0-1.3-.928,4.794,4.794,0,0,0-3.019-.221c-1.941.44-3.588,1.328-5.143,1.507a4.974,4.974,0,0,1-3.508-.7,2.862,2.862,0,0,1-.688-.7,1.232,1.232,0,0,1-.156-.3,4.037,4.037,0,0,0,.921.9,4.954,4.954,0,0,0,3.4.57,12.2,12.2,0,0,0,2.362-.682,21.317,21.317,0,0,1,2.746-.9,6.092,6.092,0,0,1,1.59-.159,4.9,4.9,0,0,1,1.639.377,3.98,3.98,0,0,1,1.433,1.018,2.648,2.648,0,0,1,.66,1.714l-.283-.153c.191-.109.385-.229.59-.337.213-.089.423-.2.648-.274a6.912,6.912,0,0,1,6.815,1.353,5.869,5.869,0,0,1,1.672,2.66,6.657,6.657,0,0,1,.219,2.726,6.576,6.576,0,0,1-1.562,3.581,4.7,4.7,0,0,1-.784.727A1.407,1.407,0,0,1,362,96.813Z" transform="translate(-340.247 -83.212)" fill="#455a64"/>
          </g>
          <g id="Group_1443" data-name="Group 1443" transform="translate(13.976 2.944)">
            <path id="Path_397" data-name="Path 397" d="M361.314,78.823a5.015,5.015,0,0,0-1.457-.5,3.839,3.839,0,0,0-1.732.157,3.418,3.418,0,0,0-1.782,1.3l-.172.249-.105-.281a5.291,5.291,0,0,0-4.29-3.186,6.833,6.833,0,0,0-4.124,1.192,18.277,18.277,0,0,1-3.269,1.692,5.142,5.142,0,0,1-2.474.29,3.116,3.116,0,0,1-.656-.18c-.143-.062-.215-.1-.21-.112.011-.033.314.094.884.151a5.374,5.374,0,0,0,2.37-.393,19.758,19.758,0,0,0,3.187-1.739,11.2,11.2,0,0,1,1.97-.962,5.368,5.368,0,0,1,2.362-.3,5.548,5.548,0,0,1,4.547,3.437l-.278-.033a3.637,3.637,0,0,1,1.967-1.364,3.886,3.886,0,0,1,1.838-.091,3.3,3.3,0,0,1,1.1.421C361.217,78.713,361.323,78.812,361.314,78.823Z" transform="translate(-341.041 -76.166)" fill="#455a64"/>
          </g>
          <path id="Path_398" data-name="Path 398" d="M355.608,114.325a1.532,1.532,0,0,0-1.236-.359,1.81,1.81,0,0,0-1.185.865l-.018.027c-.011.02-.029.037-.039.058l.017-.012a.868.868,0,0,0-.132.531,1.277,1.277,0,0,0,.735.951,1.616,1.616,0,0,0,1.843-.267A1.32,1.32,0,0,0,355.608,114.325Z" transform="translate(-330.616 -84.432)" fill="#e8505b"/>
          <g id="Group_1444" data-name="Group 1444" transform="translate(22.164 30.183)">
            <path id="Path_399" data-name="Path 399" d="M355.861,116.791c-.054.011-.123-.209-.31-.5a2.206,2.206,0,0,0-2.283-1.039c-.345.053-.556.145-.584.1s.147-.219.521-.348a2.081,2.081,0,0,1,2.576,1.172C355.929,116.537,355.905,116.786,355.861,116.791Z" transform="translate(-352.682 -114.893)" fill="#263238"/>
          </g>
          <g id="Group_1445" data-name="Group 1445" transform="translate(8.261 31.888)">
            <path id="Path_400" data-name="Path 400" d="M335.642,118.38c.034-.022.2.352-.063.885a1.433,1.433,0,0,1-.75.678,1.455,1.455,0,0,1-1.91-1.2,1.433,1.433,0,0,1,.287-.969c.367-.468.776-.479.772-.438.024.055-.309.16-.556.583a1.266,1.266,0,0,0-.167.788,1.173,1.173,0,0,0,1.462.92,1.266,1.266,0,0,0,.639-.491C335.631,118.727,335.582,118.382,335.642,118.38Z" transform="translate(-332.916 -117.318)" fill="#e8505b"/>
          </g>
          <g id="Group_1446" data-name="Group 1446" transform="translate(7.01 31.367)">
            <path id="Path_401" data-name="Path 401" d="M332.739,117.889c.04.018-.021.24-.327.389a.887.887,0,0,1-.585.058.937.937,0,0,1-.643-1.189.888.888,0,0,1,.368-.458c.293-.174.511-.1.505-.061s-.173.091-.347.267a.669.669,0,0,0,.617,1.14C332.569,117.984,332.7,117.856,332.739,117.889Z" transform="translate(-331.137 -116.577)" fill="#e8505b"/>
          </g>
        </g>
        <g id="Group_1456" data-name="Group 1456" transform="translate(7.949 36.401)">
          <path id="Path_402" data-name="Path 402" d="M344.392,199.4s17.414,1.01,27.707,1.1c7.973.073,11.526-2.045,13.121-7.167,1.338-4.3-1.537-12.549-1.537-12.549-5.391.027-8.719.77-12.188,2.4l.925,3.771-28.077,2.421Z" transform="translate(-328.674 -140.662)" fill="#ffbe9d"/>
          <g id="Group_1448" data-name="Group 1448" transform="translate(43.58 46.192)">
            <path id="Path_403" data-name="Path 403" d="M390.046,193.541a10.154,10.154,0,0,0-6.018-4.1,2.483,2.483,0,0,1,1.117.1,7.451,7.451,0,0,1,4.4,3A2.494,2.494,0,0,1,390.046,193.541Z" transform="translate(-384.028 -189.41)" fill="#eb996e"/>
          </g>
          <g id="Group_1455" data-name="Group 1455">
            <path id="Path_404" data-name="Path 404" d="M331.407,173.994h0a33.683,33.683,0,0,0-9.342,3.937l4.206,11.439a6.457,6.457,0,0,0,9.119,3.651c5.3-3.026,7.164-11.861,7.164-11.861l5.821-25.234-9.643-6.042-7.325,24.111" transform="translate(-322.065 -131.492)" fill="#ffbe9d"/>
            <g id="Group_1454" data-name="Group 1454" transform="translate(7.699)">
              <path id="Path_405" data-name="Path 405" d="M344.98,142.187l.39-8.3-2.154-8.406c-.12-.466-.178-1.047.2-1.33a1.022,1.022,0,0,1,1.3.041c.589.6,3.4,7.986,3.4,7.986a43.1,43.1,0,0,1,5.029-2.69c.762-.125,1.711,2.171,1.77,2.353a13.383,13.383,0,0,1,.008,1.542s2.639.079,2.875.441a9.062,9.062,0,0,1,.3,2.239s1.116.358,1.3,1.2.539,2.238.013,2.543-1.637.916-1.637.916-.447,4.306-.563,4.7a26.709,26.709,0,0,1-2.589,2.8Z" transform="translate(-336.011 -123.795)" fill="#ffbe9d"/>
              <g id="Group_1449" data-name="Group 1449">
                <path id="Path_406" data-name="Path 406" d="M333.011,185.436c.011-.023.262.15.808.327a5.5,5.5,0,0,0,2.486.2,6.935,6.935,0,0,0,3.6-1.66,16.689,16.689,0,0,0,3.347-4.237,19.021,19.021,0,0,0,1.3-2.906,29.776,29.776,0,0,0,.9-3.371c.552-2.37,1.147-4.922,1.779-7.634l4.217-18.024.011-.049.037-.036c.484-.475.971-.964,1.452-1.466.24-.252.48-.507.71-.769a4.92,4.92,0,0,0,.319-.4c.082-.084.085-.255.117-.434.191-1.408.339-2.863.5-4.328l.01-.093.082-.046,1.341-.751c.1-.06.252-.134.316-.185a.389.389,0,0,0,.127-.236,2.245,2.245,0,0,0,.008-.729,10.946,10.946,0,0,0-.312-1.529,1.883,1.883,0,0,0-1.12-.9l-.122-.045,0-.122c-.018-.407-.045-.826-.091-1.243-.024-.208-.051-.418-.094-.618a1.214,1.214,0,0,0-.081-.261c-.022-.046-.012-.011-.044-.041a.7.7,0,0,0-.118-.05,12.417,12.417,0,0,0-2.576-.29l-.184-.009.006-.181c.013-.434.032-.919.012-1.374a1.447,1.447,0,0,0-.164-.471c-.075-.169-.157-.337-.241-.5a6.032,6.032,0,0,0-.575-.929,1.554,1.554,0,0,0-.357-.35.342.342,0,0,0-.374-.043,9.115,9.115,0,0,0-.992.454c-1.313.683-2.588,1.429-3.839,2.172l-.184.109-.078-.2-1.969-4.931-.964-2.413a1,1,0,0,0-.773-.724.783.783,0,0,0-.915.336.818.818,0,0,0-.107.5c.02.157.1.394.143.586q.16.609.319,1.212.316,1.206.628,2.39l1.219,4.643.006.025v.025c-.14,2.888-.274,5.659-.4,8.3v.019l-.006.018c-2.657,8.649-4.862,15.822-6.407,20.85-.776,2.492-1.386,4.451-1.808,5.8l-.487,1.522c-.112.343-.181.517-.181.517s.039-.183.136-.531l.443-1.535,1.729-5.828c1.515-5.037,3.677-12.223,6.284-20.888l-.006.037c.12-2.639.246-5.411.376-8.3l0,.049q-.6-2.272-1.229-4.64l-.633-2.389-.321-1.21c-.05-.215-.114-.378-.154-.638a1.177,1.177,0,0,1,.152-.716,1.089,1.089,0,0,1,.57-.479,1.357,1.357,0,0,1,.727-.023,1.441,1.441,0,0,1,.644.328,1.422,1.422,0,0,1,.379.606q.479,1.2.966,2.412l1.974,4.93-.262-.089c1.257-.748,2.53-1.493,3.859-2.186a9.339,9.339,0,0,1,1.044-.476.8.8,0,0,1,.355-.05.767.767,0,0,1,.333.133,1.912,1.912,0,0,1,.445.43,6.374,6.374,0,0,1,.614.989c.088.171.172.343.25.519a1.722,1.722,0,0,1,.2.6c.021.5,0,.967-.011,1.412l-.178-.19a12.4,12.4,0,0,1,2.686.312,1.007,1.007,0,0,1,.181.079.451.451,0,0,1,.181.184,1.484,1.484,0,0,1,.116.357c.048.222.075.439.1.654.047.431.075.852.092,1.271l-.127-.167a2.223,2.223,0,0,1,1.344,1.111,10.628,10.628,0,0,1,.337,1.628,2.559,2.559,0,0,1-.017.855.747.747,0,0,1-.255.435,3.734,3.734,0,0,1-.359.213l-1.348.753.092-.139c-.158,1.469-.307,2.917-.5,4.342l-.045.273a.7.7,0,0,1-.13.307,4.787,4.787,0,0,1-.347.432c-.236.269-.479.527-.722.78-.487.506-.976.994-1.464,1.472l.048-.084-4.269,18.012-1.814,7.625a29.739,29.739,0,0,1-.93,3.392,19.214,19.214,0,0,1-1.339,2.932,16.7,16.7,0,0,1-3.424,4.257,7,7,0,0,1-3.7,1.649,5.419,5.419,0,0,1-2.52-.255,3.721,3.721,0,0,1-.6-.271A1.23,1.23,0,0,1,333.011,185.436Z" transform="translate(-333.011 -123.734)" fill="#eb996e"/>
              </g>
              <g id="Group_1450" data-name="Group 1450" transform="translate(15.269 9.374)">
                <path id="Path_407" data-name="Path 407" d="M358.362,137.263c0,.052-.238.078-.61.1a7.039,7.039,0,0,0-1.4.166,2.769,2.769,0,0,0-1.194.638c-.257.24-.369.444-.421.421s-.013-.269.228-.594a2.367,2.367,0,0,1,1.295-.82,4.089,4.089,0,0,1,1.5-.07C358.139,137.149,358.365,137.214,358.362,137.263Z" transform="translate(-354.72 -137.062)" fill="#eb996e"/>
              </g>
              <g id="Group_1451" data-name="Group 1451" transform="translate(16.772 8.805)">
                <path id="Path_408" data-name="Path 408" d="M356.932,137.1c-.094-.036-.1-.253-.013-.485s.234-.392.329-.357.1.253.013.485S357.027,137.136,356.932,137.1Z" transform="translate(-356.857 -136.253)" fill="#eb996e"/>
              </g>
              <g id="Group_1452" data-name="Group 1452" transform="translate(18.656 12.096)">
                <path id="Path_409" data-name="Path 409" d="M363.086,141.042a6.6,6.6,0,0,1-2.088.289,1.426,1.426,0,0,0-1.162.559c-.186.287-.124.526-.177.541-.034.032-.224-.237-.054-.658a1.149,1.149,0,0,1,.5-.558,2.229,2.229,0,0,1,.846-.248A5.94,5.94,0,0,1,363.086,141.042Z" transform="translate(-359.536 -140.932)" fill="#eb996e"/>
              </g>
              <g id="Group_1453" data-name="Group 1453" transform="translate(21.495 14.737)">
                <path id="Path_410" data-name="Path 410" d="M363.815,144.687c.1,0,.16.524.131,1.161s-.134,1.149-.235,1.145-.16-.525-.131-1.162S363.714,144.682,363.815,144.687Z" transform="translate(-363.573 -144.687)" fill="#eb996e"/>
              </g>
            </g>
          </g>
        </g>
        <g id="Group_1458" data-name="Group 1458" transform="translate(40.309 66.036)">
          <path id="Path_411" data-name="Path 411" d="M368.074,169.915l.625-2.156a.589.589,0,0,1,.986-.248l.816.833.51-2.028a.589.589,0,0,1,1.1-.111l1.151,2.4Z" transform="translate(-368.074 -165.869)" fill="#fff"/>
          <g id="Group_1457" data-name="Group 1457" transform="translate(0.145 3.634)">
            <path id="Path_412" data-name="Path 412" d="M373.337,171.061a18.595,18.595,0,0,1-5.056,1.252,18.594,18.594,0,0,1,5.056-1.252Z" transform="translate(-368.28 -171.036)" fill="#fff"/>
          </g>
        </g>
        <g id="Group_1459" data-name="Group 1459" transform="translate(1.8 57.672)">
          <path id="Path_413" data-name="Path 413" d="M315.207,153.977c.017.014-.262.27-.625.836a7.15,7.15,0,0,0-.954,2.656,19.192,19.192,0,0,0-.127,4.214c.077,1.592.206,3.34.4,5.169a90.714,90.714,0,0,0,1.484,9.3c.25,1.179.475,2.129.632,2.785l.181.755c.04.173.053.266.053.266s-.032-.088-.082-.258c-.059-.214-.128-.46-.208-.749-.173-.652-.414-1.6-.677-2.777a82.4,82.4,0,0,1-1.529-9.305c-.195-1.832-.32-3.583-.39-5.178a18.788,18.788,0,0,1,.16-4.238,6.994,6.994,0,0,1,1.008-2.669A4.234,4.234,0,0,1,315.207,153.977Z" transform="translate(-313.322 -153.977)" fill="#fff"/>
        </g>
        <g id="Group_1460" data-name="Group 1460" transform="translate(3.685 48.109)">
          <path id="Path_414" data-name="Path 414" d="M330.8,140.382a.889.889,0,0,1-.158.086l-.464.222c-.4.192-.983.475-1.682.861a60.617,60.617,0,0,0-5.285,3.3c-2.008,1.381-3.789,2.685-5.089,3.614l-1.544,1.093-.426.29a.853.853,0,0,1-.154.093.831.831,0,0,1,.136-.117l.409-.312,1.516-1.131c1.284-.95,3.056-2.269,5.067-3.652a52.817,52.817,0,0,1,5.319-3.273c.706-.376,1.3-.645,1.707-.821l.476-.2A.772.772,0,0,1,330.8,140.382Z" transform="translate(-316.002 -140.381)" fill="#fff"/>
        </g>
        <g id="Group_1461" data-name="Group 1461" transform="translate(38.983 46.97)">
          <path id="Path_415" data-name="Path 415" d="M379.234,144.477a.57.57,0,0,1-.117-.089l-.317-.274a12.582,12.582,0,0,0-1.232-.919,25.03,25.03,0,0,0-4.521-2.288,45.938,45.938,0,0,0-4.821-1.6c-.627-.174-1.138-.3-1.491-.389l-.407-.1a.552.552,0,0,1-.14-.046.569.569,0,0,1,.146.018l.413.077c.357.07.874.183,1.505.345a39.047,39.047,0,0,1,4.849,1.568,22.938,22.938,0,0,1,4.525,2.339A8.934,8.934,0,0,1,379.234,144.477Z" transform="translate(-366.188 -138.762)" fill="#fff"/>
        </g>
        <g id="Group_1462" data-name="Group 1462" transform="translate(16.085 100.365)">
          <path id="Path_416" data-name="Path 416" d="M336.232,220.685a1,1,0,0,1-.274-.094,4.647,4.647,0,0,1-.7-.373,3.394,3.394,0,0,1-1.53-2.071,4.055,4.055,0,0,1,.272-2.574,3.551,3.551,0,0,1,.407-.68.961.961,0,0,1,.2-.214,8.2,8.2,0,0,0-.508.935,4.165,4.165,0,0,0-.224,2.5,3.423,3.423,0,0,0,1.445,2.019C335.858,220.508,336.244,220.66,336.232,220.685Z" transform="translate(-333.633 -214.679)" fill="#fff"/>
        </g>
        <g id="Group_1463" data-name="Group 1463" transform="translate(16.437 98.757)">
          <path id="Path_417" data-name="Path 417" d="M334.142,212.392a6.093,6.093,0,0,1,.529,1.808,6.093,6.093,0,0,1-.529-1.808Z" transform="translate(-334.133 -212.392)" fill="#fff"/>
        </g>
        <g id="Group_1517" data-name="Group 1517" transform="translate(8.486 106.361)">
          <g id="Group_1464" data-name="Group 1464">
            <path id="Path_418" data-name="Path 418" d="M340.3,373.291l21.455-.108-.389-74.172-.2-75.447-29.057-.361-5.223,9.848a35.361,35.361,0,0,0-4.02,12.763c-.365,3.408,2.189,14.524,3.081,17.353l8,25.363Z" transform="translate(-322.829 -223.203)" fill="#263238"/>
            <path id="Path_419" data-name="Path 419" d="M376.965,223.825l23.573,64.264a29.644,29.644,0,0,1-2.906,25.108l-27.37,53.422-15.389-19.252,22.9-47.857L357.585,266.8l3.4-42.909,9.509-.153Z" transform="translate(-332.335 -223.362)" fill="#263238"/>
          </g>
          <g id="Group_1465" data-name="Group 1465" transform="translate(36.37 21.992)">
            <path id="Path_420" data-name="Path 420" d="M374.545,254.471s.018.112.033.33c.015.234.035.555.061.969.046.869.113,2.121.2,3.726.158,3.253.383,7.931.663,13.705.267,5.792.584,12.681.936,20.328.172,3.826.352,7.842.54,12.005.134,2.08.072,4.2.1,6.354q.009,3.228.02,6.545c.03,17.676.057,33.676.076,45.276-.008,5.781-.014,10.464-.019,13.72-.01,1.606-.018,2.86-.024,3.73-.006.414-.011.736-.015.97-.006.219-.018.331-.018.331s-.013-.112-.02-.331l-.02-.97c-.011-.87-.026-2.123-.045-3.73-.023-3.256-.057-7.939-.1-13.719-.047-11.6-.112-27.6-.183-45.27q-.01-3.315-.018-6.545c-.023-2.152.039-4.273-.092-6.354-.179-4.162-.353-8.178-.518-12-.322-7.648-.613-14.537-.857-20.329-.23-5.775-.416-10.454-.546-13.709-.056-1.606-.1-2.858-.13-3.728-.011-.414-.019-.736-.025-.97C374.537,254.584,374.545,254.471,374.545,254.471Z" transform="translate(-374.54 -254.471)" fill="#455a64"/>
          </g>
          <g id="Group_1466" data-name="Group 1466" transform="translate(35.821 1.731)">
            <path id="Path_421" data-name="Path 421" d="M373.776,225.664a2.669,2.669,0,0,1,.148.7c.073.452.16,1.109.254,1.923.188,1.627.385,3.882.5,6.379s.118,4.762.077,6.4c-.02.819-.048,1.481-.079,1.938a2.668,2.668,0,0,1-.086.709,21.835,21.835,0,0,1-.094-2.647c-.026-1.635-.073-3.892-.185-6.382s-.269-4.742-.39-6.372A21.783,21.783,0,0,1,373.776,225.664Z" transform="translate(-373.759 -225.664)" fill="#455a64"/>
          </g>
          <g id="Group_1467" data-name="Group 1467" transform="translate(30.333 2.993)">
            <path id="Path_422" data-name="Path 422" d="M366.733,227.644a1.724,1.724,0,0,0-.475.8.911.911,0,0,0,.273.857.936.936,0,0,0,1.6-.732.912.912,0,0,0-.471-.767,1.712,1.712,0,0,0-.918-.163c-.009-.019.068-.094.25-.146a1.2,1.2,0,0,1,1.476,1.059,1.259,1.259,0,0,1-2.169.993,1.2,1.2,0,0,1,.163-1.809C366.619,227.634,366.725,227.624,366.733,227.644Z" transform="translate(-365.956 -227.459)" fill="#455a64"/>
          </g>
          <g id="Group_1468" data-name="Group 1468" transform="translate(8.592 1.905)">
            <path id="Path_423" data-name="Path 423" d="M346.308,225.911a2.1,2.1,0,0,1,.193.673,6.67,6.67,0,0,1,.063,1.911,7.7,7.7,0,0,1-.812,2.725,7.214,7.214,0,0,1-5.5,3.946,7.706,7.706,0,0,1-2.841-.1,6.674,6.674,0,0,1-1.791-.67,2.09,2.09,0,0,1-.576-.4,12.118,12.118,0,0,0,2.419.814,7.384,7.384,0,0,0,8.842-6.346A12.206,12.206,0,0,0,346.308,225.911Z" transform="translate(-335.045 -225.911)" fill="#455a64"/>
          </g>
          <g id="Group_1469" data-name="Group 1469" transform="translate(41.749 1.844)">
            <path id="Path_424" data-name="Path 424" d="M387.89,232.042a2.846,2.846,0,0,1-1.351-.16,6.279,6.279,0,0,1-4.264-4.7,2.846,2.846,0,0,1-.029-1.36c.065,0,.069.517.281,1.3a6.8,6.8,0,0,0,4.094,4.511C387.382,231.924,387.9,231.978,387.89,232.042Z" transform="translate(-382.187 -225.825)" fill="#455a64"/>
          </g>
          <g id="Group_1470" data-name="Group 1470" transform="translate(46.995 75.23)">
            <path id="Path_425" data-name="Path 425" d="M398.482,332.28a4.454,4.454,0,0,1-1.243.989,5.744,5.744,0,0,1-1.6.7,3.857,3.857,0,0,1-2.159-.057,6.283,6.283,0,0,1-3.005-2.391,5.574,5.574,0,0,1-.824-1.353,8.671,8.671,0,0,1,1.028,1.194,6.665,6.665,0,0,0,2.913,2.2,4.51,4.51,0,0,0,3.52-.518A14.536,14.536,0,0,1,398.482,332.28Z" transform="translate(-389.647 -330.165)" fill="#455a64"/>
          </g>
          <g id="Group_1471" data-name="Group 1471" transform="translate(46.314 75.623)">
            <path id="Path_426" data-name="Path 426" d="M392.825,336.551a34.869,34.869,0,0,1-4.142-5.824,34.958,34.958,0,0,1,4.142,5.824Z" transform="translate(-388.677 -330.724)" fill="#455a64"/>
          </g>
          <g id="Group_1472" data-name="Group 1472" transform="translate(13.602 22.539)">
            <path id="Path_427" data-name="Path 427" d="M342.982,257.2c-.094.038-.344-.367-.559-.9s-.313-1-.219-1.041.344.367.559.9S343.076,257.159,342.982,257.2Z" transform="translate(-342.168 -255.249)" fill="#fafafa"/>
          </g>
          <g id="Group_1473" data-name="Group 1473" transform="translate(27.851 24.876)">
            <path id="Path_428" data-name="Path 428" d="M362.611,260.127c-.1,0-.184-.348-.184-.778s.082-.779.184-.779.183.349.183.779S362.712,260.127,362.611,260.127Z" transform="translate(-362.427 -258.571)" fill="#fafafa"/>
          </g>
          <g id="Group_1474" data-name="Group 1474" transform="translate(22.178 31.881)">
            <path id="Path_429" data-name="Path 429" d="M354.621,270.476c-.1.007-.212-.423-.249-.96s.016-.978.117-.985.212.423.249.961S354.723,270.47,354.621,270.476Z" transform="translate(-354.361 -268.531)" fill="#fafafa"/>
          </g>
          <g id="Group_1475" data-name="Group 1475" transform="translate(10.782 38.193)">
            <path id="Path_430" data-name="Path 430" d="M339.587,278.585c-.084.062-.373-.2-.75-.468s-.709-.471-.676-.57.466-.038.892.274S339.669,278.529,339.587,278.585Z" transform="translate(-338.159 -277.506)" fill="#fafafa"/>
          </g>
          <g id="Group_1476" data-name="Group 1476" transform="translate(30.211 44.97)">
            <path id="Path_431" data-name="Path 431" d="M365.811,288.318c-.084-.056.022-.363.236-.685s.457-.538.542-.483-.022.363-.237.686S365.895,288.374,365.811,288.318Z" transform="translate(-365.782 -287.142)" fill="#fafafa"/>
          </g>
          <g id="Group_1477" data-name="Group 1477" transform="translate(18.902 45.498)">
            <path id="Path_432" data-name="Path 432" d="M349.887,290.486c-.1,0-.184-.581-.184-1.3s.082-1.3.184-1.3.183.58.183,1.3S349.988,290.486,349.887,290.486Z" transform="translate(-349.703 -287.892)" fill="#fafafa"/>
          </g>
          <g id="Group_1478" data-name="Group 1478" transform="translate(14.034 54.924)">
            <path id="Path_433" data-name="Path 433" d="M344.218,302.351c-.059.082-.427-.084-.821-.37s-.665-.585-.606-.667.427.084.821.37S344.277,302.269,344.218,302.351Z" transform="translate(-342.783 -301.293)" fill="#fafafa"/>
          </g>
          <g id="Group_1479" data-name="Group 1479" transform="translate(25.565 58.678)">
            <path id="Path_434" data-name="Path 434" d="M360.35,306.68c.041.093-.187.283-.509.427s-.618.184-.658.092.187-.283.509-.427S360.308,306.588,360.35,306.68Z" transform="translate(-359.177 -306.631)" fill="#fafafa"/>
          </g>
          <g id="Group_1480" data-name="Group 1480" transform="translate(17.768 68.971)">
            <path id="Path_435" data-name="Path 435" d="M349.408,323.862c-.091.045-.454-.5-.812-1.215s-.575-1.333-.485-1.379.454.5.812,1.215S349.5,323.817,349.408,323.862Z" transform="translate(-348.091 -321.265)" fill="#fafafa"/>
          </g>
          <g id="Group_1481" data-name="Group 1481" transform="translate(31.512 68.451)">
            <path id="Path_436" data-name="Path 436" d="M367.657,322.476c-.089-.048.07-.522.357-1.059s.591-.934.68-.886-.071.521-.357,1.059S367.746,322.523,367.657,322.476Z" transform="translate(-367.632 -320.526)" fill="#fafafa"/>
          </g>
          <g id="Group_1482" data-name="Group 1482" transform="translate(25.673 78.827)">
            <path id="Path_437" data-name="Path 437" d="M359.747,337.747c-.1-.015-.1-.57-.2-1.231s-.279-1.186-.186-1.234.435.451.548,1.177S359.842,337.767,359.747,337.747Z" transform="translate(-359.331 -335.28)" fill="#fafafa"/>
          </g>
          <g id="Group_1483" data-name="Group 1483" transform="translate(18.941 86.083)">
            <path id="Path_438" data-name="Path 438" d="M351.07,347.033c-.075.068-.426-.2-.784-.59s-.588-.768-.513-.836.426.2.784.59S351.145,346.965,351.07,347.033Z" transform="translate(-349.759 -345.596)" fill="#fafafa"/>
          </g>
          <g id="Group_1484" data-name="Group 1484" transform="translate(34.406 88.434)">
            <path id="Path_439" data-name="Path 439" d="M371.759,350.387c-.072-.07.186-.45.577-.847s.767-.661.838-.59-.186.45-.577.847S371.831,350.458,371.759,350.387Z" transform="translate(-371.747 -348.939)" fill="#fafafa"/>
          </g>
          <g id="Group_1485" data-name="Group 1485" transform="translate(26.195 96.862)">
            <path id="Path_440" data-name="Path 440" d="M360.148,363.26c-.1-.015-.1-.551,0-1.2s.259-1.158.359-1.142.1.551,0,1.2S360.248,363.276,360.148,363.26Z" transform="translate(-360.072 -360.921)" fill="#fafafa"/>
          </g>
          <g id="Group_1486" data-name="Group 1486" transform="translate(19.708 101.914)">
            <path id="Path_441" data-name="Path 441" d="M351.93,369.913c-.087.051-.395-.312-.686-.81s-.457-.944-.37-1,.395.312.686.81S352.017,369.862,351.93,369.913Z" transform="translate(-350.85 -368.103)" fill="#fafafa"/>
          </g>
          <g id="Group_1487" data-name="Group 1487" transform="translate(32.174 109.415)">
            <path id="Path_442" data-name="Path 442" d="M370.395,378.786c.058.082-.3.44-.8.8s-.954.583-1.013.5.3-.44.8-.8S370.336,378.7,370.395,378.786Z" transform="translate(-368.574 -378.769)" fill="#fafafa"/>
          </g>
          <g id="Group_1488" data-name="Group 1488" transform="translate(22.959 114.239)">
            <path id="Path_443" data-name="Path 443" d="M355.508,388.228c-.1-.035.027-.6.086-1.3s.041-1.279.143-1.3.29.575.222,1.329S355.6,388.265,355.508,388.228Z" transform="translate(-355.471 -385.628)" fill="#fafafa"/>
          </g>
          <g id="Group_1489" data-name="Group 1489" transform="translate(26.329 126.161)">
            <path id="Path_444" data-name="Path 444" d="M361.32,403.885c-.079.063-.376-.176-.662-.534s-.455-.7-.376-.763.376.177.662.534S361.4,403.822,361.32,403.885Z" transform="translate(-360.262 -402.578)" fill="#fafafa"/>
          </g>
          <g id="Group_1490" data-name="Group 1490" transform="translate(21.144 132.521)">
            <path id="Path_445" data-name="Path 445" d="M354.334,413.7c-.084.057-.471-.361-.864-.934s-.646-1.084-.563-1.141.471.361.864.934S354.417,413.644,354.334,413.7Z" transform="translate(-352.891 -411.621)" fill="#fafafa"/>
          </g>
          <g id="Group_1491" data-name="Group 1491" transform="translate(35.751 124.611)">
            <path id="Path_446" data-name="Path 446" d="M373.725,401.416c-.095-.036-.084-.3.023-.583s.271-.49.366-.454.084.3-.023.583S373.82,401.451,373.725,401.416Z" transform="translate(-373.66 -400.374)" fill="#fafafa"/>
          </g>
          <g id="Group_1492" data-name="Group 1492" transform="translate(29.954 140.308)">
            <path id="Path_447" data-name="Path 447" d="M365.443,425.027c-.093-.048.084-.549.22-1.176s.194-1.153.3-1.158.212.557.059,1.238S365.527,425.076,365.443,425.027Z" transform="translate(-365.417 -422.693)" fill="#fafafa"/>
          </g>
          <g id="Group_1493" data-name="Group 1493" transform="translate(33.069 32.517)">
            <path id="Path_448" data-name="Path 448" d="M370.55,270.859c-.092.043-.315-.241-.5-.632s-.258-.744-.167-.787.315.24.5.632S370.642,270.816,370.55,270.859Z" transform="translate(-369.846 -269.435)" fill="#fafafa"/>
          </g>
          <g id="Group_1494" data-name="Group 1494" transform="translate(22.051 12.021)">
            <path id="Path_449" data-name="Path 449" d="M356.143,240.309c.056.089-.44.485-.962,1.047s-.89,1.078-.983,1.028.151-.679.716-1.279S356.1,240.224,356.143,240.309Z" transform="translate(-354.18 -240.294)" fill="#fafafa"/>
          </g>
          <g id="Group_1495" data-name="Group 1495" transform="translate(31.781 9.951)">
            <path id="Path_450" data-name="Path 450" d="M368.937,239.176c-.1.021-.267-.4-.511-.879s-.474-.867-.4-.936.459.239.724.772S369.034,239.16,368.937,239.176Z" transform="translate(-368.014 -237.352)" fill="#fafafa"/>
          </g>
          <g id="Group_1496" data-name="Group 1496" transform="translate(5.594 16.972)">
            <path id="Path_451" data-name="Path 451" d="M330.818,249.284c-.094-.037,0-.5.214-1.042s.461-.944.556-.907,0,.5-.215,1.042S330.911,249.322,330.818,249.284Z" transform="translate(-330.782 -247.334)" fill="#fafafa"/>
          </g>
          <g id="Group_1497" data-name="Group 1497" transform="translate(4.939 28.233)">
            <path id="Path_452" data-name="Path 452" d="M331.416,264.656c-.065.077-.466-.15-.9-.508s-.726-.712-.661-.789.466.15.9.508S331.48,264.579,331.416,264.656Z" transform="translate(-329.85 -263.344)" fill="#fafafa"/>
          </g>
          <g id="Group_1498" data-name="Group 1498" transform="translate(23.704 2.305)">
            <path id="Path_453" data-name="Path 453" d="M357.1,227.78c-.094.037-.286-.222-.43-.58s-.183-.679-.089-.717.286.222.43.58S357.193,227.742,357.1,227.78Z" transform="translate(-356.53 -226.48)" fill="#fafafa"/>
          </g>
          <g id="Group_1499" data-name="Group 1499" transform="translate(41.217 6.983)">
            <path id="Path_454" data-name="Path 454" d="M381.5,234.947c-.1-.022-.089-.445.02-.946s.279-.89.377-.868.09.445-.02.946S381.6,234.968,381.5,234.947Z" transform="translate(-381.431 -233.132)" fill="#fafafa"/>
          </g>
          <g id="Group_1500" data-name="Group 1500" transform="translate(45.254 14.627)">
            <path id="Path_455" data-name="Path 455" d="M387.2,246.207c-.094-.039.034-.563.284-1.172s.53-1.071.624-1.033-.034.563-.285,1.172S387.295,246.246,387.2,246.207Z" transform="translate(-387.17 -244)" fill="#fafafa"/>
          </g>
          <g id="Group_1501" data-name="Group 1501" transform="translate(41.241 20.982)">
            <path id="Path_456" data-name="Path 456" d="M382.655,255.373c-.091.045-.426-.441-.748-1.086s-.51-1.2-.42-1.249.425.441.748,1.085S382.745,255.327,382.655,255.373Z" transform="translate(-381.465 -253.035)" fill="#fafafa"/>
          </g>
          <g id="Group_1502" data-name="Group 1502" transform="translate(48.485 28.116)">
            <path id="Path_457" data-name="Path 457" d="M391.806,264.867c-.094-.037-.026-.443.153-.909s.4-.814.5-.777.026.442-.153.909S391.9,264.9,391.806,264.867Z" transform="translate(-391.764 -263.178)" fill="#fafafa"/>
          </g>
          <g id="Group_1503" data-name="Group 1503" transform="translate(42.396 35.113)">
            <path id="Path_458" data-name="Path 458" d="M383.791,274.173c-.086.053-.3-.136-.48-.422s-.255-.562-.169-.616.3.136.48.422S383.876,274.12,383.791,274.173Z" transform="translate(-383.107 -273.126)" fill="#fafafa"/>
          </g>
          <g id="Group_1504" data-name="Group 1504" transform="translate(42.545 47.439)">
            <path id="Path_459" data-name="Path 459" d="M385.016,292.476c-.075.069-.512-.282-.978-.784s-.783-.964-.709-1.032.512.282.978.784S385.09,292.407,385.016,292.476Z" transform="translate(-383.319 -290.652)" fill="#fafafa"/>
          </g>
          <g id="Group_1505" data-name="Group 1505" transform="translate(49.939 39.914)">
            <path id="Path_460" data-name="Path 460" d="M395.273,281.775c-.079.063-.464-.293-.857-.795s-.649-.959-.57-1.021.464.293.857.8S395.352,281.712,395.273,281.775Z" transform="translate(-393.831 -279.952)" fill="#fafafa"/>
          </g>
          <g id="Group_1506" data-name="Group 1506" transform="translate(55.271 49.92)">
            <path id="Path_461" data-name="Path 461" d="M401.438,296.384c-.091-.044.068-.572.357-1.18s.6-1.066.687-1.023-.068.571-.357,1.18S401.53,296.427,401.438,296.384Z" transform="translate(-401.412 -294.179)" fill="#fafafa"/>
          </g>
          <g id="Group_1507" data-name="Group 1507" transform="translate(45.281 59.094)">
            <path id="Path_462" data-name="Path 462" d="M388.9,308.8c-.089.054-.416-.336-.869-.75s-.864-.712-.817-.805.572.079,1.066.537S388.984,308.754,388.9,308.8Z" transform="translate(-387.209 -307.222)" fill="#fafafa"/>
          </g>
          <g id="Group_1508" data-name="Group 1508" transform="translate(45.933 69.31)">
            <path id="Path_463" data-name="Path 463" d="M389.693,321.93c0,.1-.349.183-.779.183s-.778-.082-.778-.183.348-.183.778-.183S389.693,321.829,389.693,321.93Z" transform="translate(-388.136 -321.747)" fill="#fafafa"/>
          </g>
          <g id="Group_1509" data-name="Group 1509" transform="translate(56.026 64.953)">
            <path id="Path_464" data-name="Path 464" d="M402.509,317.628c-.089-.055.092-.493.227-1.046s.188-1.023.292-1.029.219.5.063,1.118S402.59,317.683,402.509,317.628Z" transform="translate(-402.486 -315.553)" fill="#fafafa"/>
          </g>
          <g id="Group_1510" data-name="Group 1510" transform="translate(63.704 67.662)">
            <path id="Path_465" data-name="Path 465" d="M414.253,321.728c-.1.033-.355-.459-.58-1.1s-.33-1.188-.234-1.221.355.459.58,1.1S414.348,321.694,414.253,321.728Z" transform="translate(-413.403 -319.405)" fill="#fafafa"/>
          </g>
          <g id="Group_1511" data-name="Group 1511" transform="translate(63.179 79.612)">
            <path id="Path_466" data-name="Path 466" d="M412.676,338.864c-.09-.046.127-.637.484-1.318s.719-1.195.809-1.149-.127.637-.485,1.319S412.766,338.911,412.676,338.864Z" transform="translate(-412.656 -336.395)" fill="#fafafa"/>
          </g>
          <g id="Group_1512" data-name="Group 1512" transform="translate(54.457 86.873)">
            <path id="Path_467" data-name="Path 467" d="M401.235,349.037c-.094.039-.382-.449-.645-1.088s-.4-1.19-.306-1.229.382.449.645,1.089S401.329,349,401.235,349.037Z" transform="translate(-400.255 -346.718)" fill="#fafafa"/>
          </g>
          <g id="Group_1513" data-name="Group 1513" transform="translate(45.544 91.747)">
            <path id="Path_468" data-name="Path 468" d="M388.88,353.832c0,.1-.29.184-.648.184s-.648-.082-.648-.184.29-.183.648-.183S388.88,353.731,388.88,353.832Z" transform="translate(-387.583 -353.649)" fill="#fafafa"/>
          </g>
          <g id="Group_1514" data-name="Group 1514" transform="translate(51.196 101.267)">
            <path id="Path_469" data-name="Path 469" d="M396.192,369.131c-.1.027-.293-.388-.436-.925s-.181-.994-.083-1.021.293.388.437.926S396.29,369.106,396.192,369.131Z" transform="translate(-395.618 -367.184)" fill="#fafafa"/>
          </g>
          <g id="Group_1515" data-name="Group 1515" transform="translate(45.513 98.149)">
            <path id="Path_470" data-name="Path 470" d="M387.57,364.055c-.087-.052.017-.385.231-.743s.46-.606.546-.554-.017.384-.232.743S387.657,364.107,387.57,364.055Z" transform="translate(-387.539 -362.751)" fill="#fafafa"/>
          </g>
          <g id="Group_1516" data-name="Group 1516" transform="translate(45.061 109.699)">
            <path id="Path_471" data-name="Path 471" d="M387.249,381.378c-.1.012-.24-.473-.312-1.081s-.048-1.112.052-1.124.24.472.312,1.081S387.35,381.366,387.249,381.378Z" transform="translate(-386.896 -379.173)" fill="#fafafa"/>
          </g>
        </g>
      </g>
    </g>
  </g>
</svg>
