<svg xmlns="http://www.w3.org/2000/svg" width="120" height="120" viewBox="0 0 120 120">
  <g id="Group_1545" data-name="Group 1545" transform="translate(-681 -22)">
    <circle id="Ellipse_983" data-name="Ellipse 983" cx="60" cy="60" r="60" transform="translate(681 22)" fill="#dff9ee"/>
    <circle id="Ellipse_1008" data-name="Ellipse 1008" cx="4.5" cy="4.5" r="4.5" transform="translate(707 63)" fill="#fff"/>
    <circle id="Ellipse_1009" data-name="Ellipse 1009" cx="3" cy="3" r="3" transform="translate(795 94)" fill="#d99f12"/>
    <circle id="Ellipse_1010" data-name="Ellipse 1010" cx="6" cy="6" r="6" transform="translate(757 22)" fill="#131c4c"/>
    <g id="Group_1544" data-name="Group 1544" transform="translate(-427 -889)">
      <g id="Path_553" data-name="Path 553" transform="translate(1140 945)" fill="none">
        <path d="M4,0H40.723C49.982,10.148,44.832,4.93,50,9.955V54a4,4,0,0,1-4,4H4a4,4,0,0,1-4-4V4A4,4,0,0,1,4,0Z" stroke="none"/>
        <path d="M 4 1 C 2.345790863037109 1 1 2.345790863037109 1 4 L 1 54 C 1 55.65420913696289 2.345790863037109 57 4 57 L 46 57 C 47.65420913696289 57 49 55.65420913696289 49 54 L 49 10.37735366821289 C 48.25703430175781 9.656295776367188 47.74851608276367 9.167564392089844 47.39836883544922 8.831050872802734 C 46.49694061279297 7.964691162109375 46.46923828125 7.935981750488281 45.91646957397461 7.295150756835938 C 45.31904602050781 6.6025390625 44.09223175048828 5.180248260498047 40.28156661987305 1 L 4 1 M 4 0 L 40.72298049926758 0 C 49.982421875 10.14812850952148 44.83203125 4.930301666259766 50 9.954608917236328 L 50 54 C 50 56.20914077758789 48.20914077758789 58 46 58 L 4 58 C 1.790859222412109 58 0 56.20914077758789 0 54 L 0 4 C 0 1.790859222412109 1.790859222412109 0 4 0 Z" stroke="none" fill="#131c4c"/>
      </g>
      <g id="Path_554" data-name="Path 554" transform="translate(1146 939)" fill="#dff9ee">
        <path d="M 46 57.5 L 4 57.5 C 2.070090055465698 57.5 0.5 55.92990875244141 0.5 54 L 0.5 4 C 0.5 2.070090055465698 2.070090055465698 0.5 4 0.5 L 40.50230407714844 0.5 C 44.43452072143555 4.811572074890137 45.68849182128906 6.26533842086792 46.29507827758789 6.968570232391357 C 46.83797836303711 7.597959995269775 46.85152816772461 7.611999988555908 47.74483871459961 8.470549583435059 C 48.11870956420898 8.829870223999023 48.67288589477539 9.362482070922852 49.5 10.16592216491699 L 49.5 54 C 49.5 55.92990875244141 47.92990875244141 57.5 46 57.5 Z" stroke="none"/>
        <path d="M 4 1 C 2.345790863037109 1 1 2.345790863037109 1 4 L 1 54 C 1 55.65420913696289 2.345790863037109 57 4 57 L 46 57 C 47.65420913696289 57 49 55.65420913696289 49 54 L 49 10.37735366821289 C 48.25703430175781 9.656295776367188 47.74851608276367 9.167564392089844 47.39836883544922 8.831050872802734 C 46.49694061279297 7.964691162109375 46.46923828125 7.935981750488281 45.91646957397461 7.295150756835938 C 45.31904602050781 6.6025390625 44.09223175048828 5.180248260498047 40.28156661987305 1 L 4 1 M 4 0 L 40.72298049926758 0 C 49.982421875 10.14812850952148 44.83203125 4.930301666259766 50 9.954608917236328 L 50 54 C 50 56.20914077758789 48.20914077758789 58 46 58 L 4 58 C 1.790859222412109 58 0 56.20914077758789 0 54 L 0 4 C 0 1.790859222412109 1.790859222412109 0 4 0 Z" stroke="none" fill="#131c4c"/>
      </g>
      <line id="Line_54" data-name="Line 54" x2="32.049" transform="translate(1154.5 951.5)" fill="none" stroke="#131c4c" stroke-width="1"/>
      <line id="Line_55" data-name="Line 55" x2="32.049" transform="translate(1154.5 958.5)" fill="none" stroke="#131c4c" stroke-width="1"/>
      <line id="Line_56" data-name="Line 56" x2="32.049" transform="translate(1154.5 966.5)" fill="none" stroke="#131c4c" stroke-width="1"/>
      <g id="star-circle" transform="translate(1172 972)">
        <path id="Path_555" data-name="Path 555" d="M7.5,9.8l.242-.437a.5.5,0,0,0-.484,0ZM5.337,11l-.494-.08a.5.5,0,0,0,.736.518ZM5.75,8.467l.493.08a.5.5,0,0,0-.135-.429l-.358.35ZM4,6.674l-.075-.495a.5.5,0,0,0-.283.844L4,6.673ZM6.418,6.3l.076.495a.5.5,0,0,0,.377-.282ZM7.5,4l.453-.212a.5.5,0,0,0-.906,0ZM8.582,6.3l-.453.213a.5.5,0,0,0,.377.282ZM11,6.674l.358.349a.5.5,0,0,0-.283-.844ZM9.25,8.467l-.358-.349a.5.5,0,0,0-.135.43l.493-.08ZM9.663,11l-.242.438a.5.5,0,0,0,.736-.519ZM7.258,9.367,5.095,10.562l.484.876,2.163-1.2ZM5.83,11.08l.413-2.532-.986-.161-.414,2.532.987.162Zm.278-2.962L4.358,6.324l-.716.7,1.75,1.793Zm-2.033-.95L6.494,6.8,6.343,5.81l-2.418.37.15.988Zm2.8-.651L7.953,4.212l-.906-.424-1.081,2.3.905.425Zm.176-2.305L8.13,6.517l.9-.425-1.081-2.3-.906.424ZM8.507,6.8l2.418.369.15-.989L8.657,5.811Zm2.135-.475L8.892,8.119l.716.7,1.75-1.793ZM8.757,8.548l.413,2.533.987-.162L9.743,8.387l-.986.16ZM9.9,10.562l-2.163-1.2-.484.875,2.163,1.2.484-.876ZM7.5,14A6.5,6.5,0,0,1,1,7.5H0A7.5,7.5,0,0,0,7.5,15ZM14,7.5A6.5,6.5,0,0,1,7.5,14v1A7.5,7.5,0,0,0,15,7.5ZM7.5,1A6.5,6.5,0,0,1,14,7.5h1A7.5,7.5,0,0,0,7.5,0Zm0-1A7.5,7.5,0,0,0,0,7.5H1A6.5,6.5,0,0,1,7.5,1Z" fill="#131c4c"/>
      </g>
      <path id="Path_556" data-name="Path 556" d="M-16611.021,979.5l2.527-1.374,2.309,1.8,2.117-1.8,2.338,1.8" transform="translate(17774)" fill="none" stroke="#131c4c" stroke-width="1"/>
      <path id="Path_557" data-name="Path 557" d="M-16611.021,979.5l2.527-1.374,2.309,1.8,2.117-1.8,2.338,1.8" transform="translate(17774 4)" fill="none" stroke="#131c4c" stroke-width="1"/>
    </g>
  </g>
</svg>
