<svg xmlns="http://www.w3.org/2000/svg" width="208.17" height="127.951" viewBox="0 0 208.17 127.951">
  <g id="Group_3476" data-name="Group 3476" transform="translate(-1518.961 -440.845)">
    <g id="Group_3475" data-name="Group 3475" transform="translate(1524.539 440.845)">
      <g id="Group_3442" data-name="Group 3442" transform="translate(62.281 15.249)">
        <path id="Path_2003" data-name="Path 2003" d="M2099.345,563.9a32.792,32.792,0,0,0-32.8,32.8c0,18.111,32.8,58.371,32.8,58.371s14.9-18.29,24.587-35.753c4.715-8.446,8.213-16.711,8.213-22.618A32.807,32.807,0,0,0,2099.345,563.9Zm0,47.775a15.44,15.44,0,1,1,3.342-.389A14.2,14.2,0,0,1,2099.345,611.672Z" transform="translate(-2066.545 -563.897)" fill="#b8c1c9"/>
      </g>
      <g id="Group_3458" data-name="Group 3458" transform="translate(14.77 88.808)">
        <path id="Path_2004" data-name="Path 2004" d="M2003.266,1157.473h-35.2v29.807h39.442Z" transform="translate(-1932.757 -1157.473)" fill="#016eb9"/>
        <path id="Path_2005" data-name="Path 2005" d="M1957.646,1165.707h-39.9v28.787h44.034Z" transform="translate(-1888.678 -1164.687)" fill="#131f2d"/>
        <g id="Group_3446" data-name="Group 3446" transform="translate(51.761 24.307)">
          <g id="Group_3445" data-name="Group 3445" transform="translate(0 0)">
            <g id="Group_3444" data-name="Group 3444">
              <g id="Group_3443" data-name="Group 3443">
                <rect id="Rectangle_312" data-name="Rectangle 312" width="5.425" height="5.501" transform="translate(5.425 5.501) rotate(180)" fill="#b8c1c9"/>
                <rect id="Rectangle_313" data-name="Rectangle 313" width="3.284" height="5.501" transform="translate(8.483 5.501) rotate(180)" fill="#657285"/>
              </g>
            </g>
          </g>
        </g>
        <g id="Group_3450" data-name="Group 3450" transform="translate(51.473 17.396)">
          <g id="Group_3449" data-name="Group 3449" transform="translate(0 0)">
            <g id="Group_3448" data-name="Group 3448">
              <g id="Group_3447" data-name="Group 3447">
                <rect id="Rectangle_314" data-name="Rectangle 314" width="8.997" height="6.987" transform="translate(8.997 6.987) rotate(180)" fill="#b8c1c9"/>
                <rect id="Rectangle_315" data-name="Rectangle 315" width="2.484" height="5.425" transform="translate(11.255 6.987) rotate(180)" fill="#657285"/>
              </g>
            </g>
          </g>
        </g>
        <rect id="Rectangle_316" data-name="Rectangle 316" width="12.609" height="5.593" rx="2.796" transform="translate(1.513 26.295)" fill="#b8c1c9"/>
        <path id="Path_2006" data-name="Path 2006" d="M2055.011,1393.966a5.055,5.055,0,1,1,5.055,5.055A5.055,5.055,0,0,1,2055.011,1393.966Z" transform="translate(-2008.929 -1360.23)" fill="#131f2d"/>
        <path id="Path_2007" data-name="Path 2007" d="M2192.165,1393.966a5.055,5.055,0,1,1,5.054,5.055A5.054,5.054,0,0,1,2192.165,1393.966Z" transform="translate(-2129.086 -1360.23)" fill="#131f2d"/>
        <path id="Path_2008" data-name="Path 2008" d="M1709.258,1393.966a5.055,5.055,0,1,1,5.055,5.055A5.055,5.055,0,0,1,1709.258,1393.966Z" transform="translate(-1706.023 -1360.23)" fill="#131f2d"/>
        <path id="Path_2009" data-name="Path 2009" d="M1729.459,1411.663a2.551,2.551,0,1,1,2.551,2.551A2.551,2.551,0,0,1,1729.459,1411.663Z" transform="translate(-1723.721 -1377.928)" fill="#d36e2a"/>
        <path id="Path_2010" data-name="Path 2010" d="M1729.459,1411.663a2.551,2.551,0,1,1,2.551,2.551A2.551,2.551,0,0,1,1729.459,1411.663Z" transform="translate(-1723.721 -1377.928)" fill="#657285"/>
        <path id="Path_2011" data-name="Path 2011" d="M1743.663,1424.108a.791.791,0,1,1,.791.791A.791.791,0,0,1,1743.663,1424.108Z" transform="translate(-1736.165 -1390.372)" fill="#b8c1c9"/>
        <path id="Path_2012" data-name="Path 2012" d="M1736.715,1438.471a.306.306,0,1,1,.306.306A.306.306,0,0,1,1736.715,1438.471Z" transform="translate(-1730.078 -1403.38)" fill="#b8c1c9"/>
        <path id="Path_2013" data-name="Path 2013" d="M1733.834,1420.123a.306.306,0,1,1,.306.306A.306.306,0,0,1,1733.834,1420.123Z" transform="translate(-1727.554 -1387.306)" fill="#b8c1c9"/>
        <path id="Path_2014" data-name="Path 2014" d="M1761.007,1420.123a.306.306,0,1,1,.306.306A.306.306,0,0,1,1761.007,1420.123Z" transform="translate(-1751.359 -1387.306)" fill="#b8c1c9"/>
        <path id="Path_2015" data-name="Path 2015" d="M1758.948,1438.471a.306.306,0,1,1,.306.306A.306.306,0,0,1,1758.948,1438.471Z" transform="translate(-1749.556 -1403.38)" fill="#b8c1c9"/>
        <path id="Path_2016" data-name="Path 2016" d="M1747.575,1411.805a.306.306,0,1,1,.306.306A.306.306,0,0,1,1747.575,1411.805Z" transform="translate(-1739.592 -1380.019)" fill="#b8c1c9"/>
        <path id="Path_2017" data-name="Path 2017" d="M2074.453,1411.663a2.551,2.551,0,1,1,2.551,2.551A2.551,2.551,0,0,1,2074.453,1411.663Z" transform="translate(-2025.962 -1377.928)" fill="#d36e2a"/>
        <path id="Path_2018" data-name="Path 2018" d="M2074.453,1411.663a2.551,2.551,0,1,1,2.551,2.551A2.551,2.551,0,0,1,2074.453,1411.663Z" transform="translate(-2025.962 -1377.928)" fill="#657285"/>
        <path id="Path_2019" data-name="Path 2019" d="M2088.657,1424.108a.791.791,0,1,1,.791.791A.791.791,0,0,1,2088.657,1424.108Z" transform="translate(-2038.406 -1390.372)" fill="#b8c1c9"/>
        <path id="Path_2020" data-name="Path 2020" d="M2081.709,1438.471a.306.306,0,1,1,.306.306A.306.306,0,0,1,2081.709,1438.471Z" transform="translate(-2032.318 -1403.38)" fill="#b8c1c9"/>
        <path id="Path_2021" data-name="Path 2021" d="M2080.784,1420.123a.306.306,0,1,1,.306.306A.306.306,0,0,1,2080.784,1420.123Z" transform="translate(-2031.508 -1387.306)" fill="#b8c1c9"/>
        <path id="Path_2022" data-name="Path 2022" d="M2103.942,1438.471a.306.306,0,1,1,.306.306A.306.306,0,0,1,2103.942,1438.471Z" transform="translate(-2051.796 -1403.38)" fill="#b8c1c9"/>
        <path id="Path_2023" data-name="Path 2023" d="M2073.656,1411.805a.306.306,0,1,1,.306.306A.306.306,0,0,1,2073.656,1411.805Z" transform="translate(-2025.264 -1380.019)" fill="#b8c1c9"/>
        <path id="Path_2024" data-name="Path 2024" d="M1825.145,1393.966a5.054,5.054,0,1,1,5.054,5.055A5.054,5.054,0,0,1,1825.145,1393.966Z" transform="translate(-1807.549 -1360.23)" fill="#131f2d"/>
        <path id="Path_2025" data-name="Path 2025" d="M1749.593,1179.978s2.743-4.137,5.913-4.171l-.283,4.476Z" transform="translate(-1741.36 -1173.535)" fill="#657285"/>
        <path id="Path_2026" data-name="Path 2026" d="M1724.787,1227.318h-21.951l1.827-14.827a4.809,4.809,0,0,1,4.773-4.221h15.351Z" transform="translate(-1700.397 -1201.975)" fill="#b8c1c9"/>
        <path id="Path_2027" data-name="Path 2027" d="M1733.487,1232.579h-6.156l.815-5.854a2.44,2.44,0,0,1,2.416-2.1h3.115Z" transform="translate(-1721.857 -1216.301)" fill="#657285"/>
        <path id="Path_2028" data-name="Path 2028" d="M1737.526,1235.359h-4.053a1.012,1.012,0,0,1-1-1.145l.538-4.051a2.1,2.1,0,0,1,2.044-1.866h2.635Z" transform="translate(-1726.352 -1219.52)" fill="#eaeaea"/>
        <path id="Path_2029" data-name="Path 2029" d="M1822.415,1187.281h-42.222l1.883-29.807h37.843Z" transform="translate(-1768.168 -1157.473)" fill="#016eb9"/>
        <path id="Path_2030" data-name="Path 2030" d="M1831.724,1194.143h-39.019l1.74-27.547h34.972l1.869,22.328Z" transform="translate(-1779.13 -1165.466)" fill="#00a3fe"/>
        <path id="Path_2031" data-name="Path 2031" d="M1698.989,1361.976h-13.394c-1.179.078-1.294.662-1.294.662l-1.145,5.54a.369.369,0,0,0,.387.344h3.368a.524.524,0,0,0,.457-.353,5.587,5.587,0,0,1,.866-.869,5.449,5.449,0,0,1,3.212-.95,6.245,6.245,0,0,1,4.147,1.381h3.4c.41,0,.746-.214.746-.475v-4.8C1699.734,1362.19,1699.4,1361.976,1698.989,1361.976Z" transform="translate(-1683.156 -1336.633)" fill="#657285"/>
        <path id="Path_2032" data-name="Path 2032" d="M2065.766,1419.123h-4.245a3.931,3.931,0,0,0-.532-1.367c-1.283-2.057-4.284-2.685-5.994-2.878a12.5,12.5,0,0,0-1.25-.085h7.3a5.356,5.356,0,0,1,3.779,2.3A6.235,6.235,0,0,1,2065.766,1419.123Z" transform="translate(-2007.82 -1382.906)" fill="#016eb9"/>
        <path id="Path_2033" data-name="Path 2033" d="M2201.354,1419.123h-4.245a3.944,3.944,0,0,0-.639-1.529c-1.939-2.8-7.138-2.8-7.138-2.8h7.3a5.325,5.325,0,0,1,3.4,1.807A6.306,6.306,0,0,1,2201.354,1419.123Z" transform="translate(-2126.605 -1382.906)" fill="#016eb9"/>
        <path id="Rectangle_317" data-name="Rectangle 317" d="M1.445,0H61.938a1.445,1.445,0,0,1,1.445,1.445v0a1.445,1.445,0,0,1-1.445,1.445H1.446A1.446,1.446,0,0,1,0,1.445v0A1.445,1.445,0,0,1,1.445,0Z" transform="translate(12.414 29.808)" fill="#016eb9"/>
        <rect id="Rectangle_318" data-name="Rectangle 318" width="12.609" height="6.403" rx="3.202" transform="translate(15.096 30.534)" fill="#016eb9"/>
        <g id="Group_3452" data-name="Group 3452" transform="translate(2.316 11.224)">
          <path id="Path_2034" data-name="Path 2034" d="M1702.365,1265.681s-.549,2.949-.521,3.43a.8.8,0,0,0,.826.715Z" transform="translate(-1701.842 -1263.495)" fill="#00a3fe"/>
          <rect id="Rectangle_319" data-name="Rectangle 319" width="2.043" height="4.391" rx="1.021" transform="translate(0.5 1.94)" fill="#657285"/>
          <rect id="Rectangle_320" data-name="Rectangle 320" width="1.662" height="3.932" rx="0.831" transform="translate(0.727 2.186)" fill="#eaeaea"/>
          <g id="Group_3451" data-name="Group 3451" transform="translate(1.454)">
            <path id="Path_2035" data-name="Path 2035" d="M1713.64,1250.062a.075.075,0,0,1-.068-.08v-1.239a.092.092,0,0,1,0-.01.784.784,0,0,1,.828-.69c.679.021.971,0,.974,0a.073.073,0,0,1,.072.075.077.077,0,0,1-.064.085c-.012,0-.3.021-.987,0a.627.627,0,0,0-.688.545v1.234A.075.075,0,0,1,1713.64,1250.062Z" transform="translate(-1713.572 -1248.042)" fill="#00a3fe"/>
          </g>
        </g>
        <path id="Path_2036" data-name="Path 2036" d="M1761.383,1299.762h-1.242a.317.317,0,0,1-.316-.316h0a.317.317,0,0,1,.316-.316h1.242a.317.317,0,0,1,.316.316h0A.317.317,0,0,1,1761.383,1299.762Z" transform="translate(-1750.324 -1281.575)" fill="#657285"/>
        <g id="Group_3456" data-name="Group 3456" transform="translate(60.766 24.382)">
          <g id="Group_3455" data-name="Group 3455" transform="translate(0 0)">
            <g id="Group_3454" data-name="Group 3454">
              <g id="Group_3453" data-name="Group 3453">
                <rect id="Rectangle_321" data-name="Rectangle 321" width="5.425" height="5.425" transform="translate(5.425 5.425) rotate(180)" fill="#b8c1c9"/>
                <rect id="Rectangle_322" data-name="Rectangle 322" width="2.484" height="5.425" transform="translate(7.684 5.425) rotate(180)" fill="#657285"/>
              </g>
            </g>
          </g>
        </g>
        <g id="Group_3457" data-name="Group 3457" transform="translate(21.733 13.207)">
          <path id="Path_2037" data-name="Path 2037" d="M1859.86,1264.049a1.847,1.847,0,0,1,.623.095,1.189,1.189,0,0,1,.441.269,1.174,1.174,0,0,1,.271.422,1.874,1.874,0,0,1,.114.552,6.636,6.636,0,0,1,0,.718,1.875,1.875,0,0,1-.114.552,1.189,1.189,0,0,1-.269.422,1.169,1.169,0,0,1-.434.269,1.773,1.773,0,0,1-.608.095h-1.221a.132.132,0,0,1-.131-.131v-3.131a.133.133,0,0,1,.131-.131Zm.795,1.338a.978.978,0,0,0-.061-.288.658.658,0,0,0-.15-.233.682.682,0,0,0-.25-.155,1.032,1.032,0,0,0-.359-.056h-.65v2.181h.674a.958.958,0,0,0,.344-.056.682.682,0,0,0,.242-.153.644.644,0,0,0,.148-.233,1,1,0,0,0,.061-.291A6.636,6.636,0,0,0,1860.655,1265.387Z" transform="translate(-1858.532 -1264.049)" fill="#fff"/>
          <path id="Path_2038" data-name="Path 2038" d="M1888.326,1266.836a.133.133,0,0,1,.131.131v.344a.132.132,0,0,1-.131.131H1886.2a.132.132,0,0,1-.131-.131v-3.131a.133.133,0,0,1,.131-.131h2.089a.133.133,0,0,1,.131.131v.344a.132.132,0,0,1-.131.131h-1.566v.771h1.459a.132.132,0,0,1,.131.131v.344a.132.132,0,0,1-.131.131h-1.459v.8Z" transform="translate(-1882.655 -1264.049)" fill="#fff"/>
          <path id="Path_2039" data-name="Path 2039" d="M1912.454,1266.836a.132.132,0,0,1,.131.131v.344a.132.132,0,0,1-.131.131h-2.123a.132.132,0,0,1-.131-.131v-3.131a.133.133,0,0,1,.131-.131h.393a.133.133,0,0,1,.131.131v2.656Z" transform="translate(-1903.797 -1264.049)" fill="#fff"/>
          <path id="Path_2040" data-name="Path 2040" d="M1933.329,1267.442a.132.132,0,0,1-.131-.131v-3.131a.133.133,0,0,1,.131-.131h.393a.133.133,0,0,1,.131.131v3.131a.132.132,0,0,1-.131.131Z" transform="translate(-1923.945 -1264.049)" fill="#fff"/>
          <path id="Path_2041" data-name="Path 2041" d="M1944.1,1266.482l.815-2.312a.253.253,0,0,1,.051-.08.138.138,0,0,1,.109-.041h.368a.133.133,0,0,1,.131.131v.017a.117.117,0,0,1-.01.031l-1.086,3.049a.349.349,0,0,1-.068.124.152.152,0,0,1-.116.041h-.388a.152.152,0,0,1-.116-.041.347.347,0,0,1-.068-.124l-1.086-3.049a.12.12,0,0,1-.01-.031v-.017a.133.133,0,0,1,.131-.131h.368a.138.138,0,0,1,.109.041.26.26,0,0,1,.051.08Z" transform="translate(-1932.203 -1264.049)" fill="#fff"/>
          <path id="Path_2042" data-name="Path 2042" d="M1972.809,1266.836a.132.132,0,0,1,.131.131v.344a.132.132,0,0,1-.131.131h-2.128a.133.133,0,0,1-.131-.131v-3.131a.133.133,0,0,1,.131-.131h2.089a.133.133,0,0,1,.131.131v.344a.133.133,0,0,1-.131.131H1971.2v.771h1.459a.132.132,0,0,1,.131.131v.344a.132.132,0,0,1-.131.131H1971.2v.8Z" transform="translate(-1956.668 -1264.049)" fill="#fff"/>
          <path id="Path_2043" data-name="Path 2043" d="M1996.064,1264.049a1.342,1.342,0,0,1,.921.281.992.992,0,0,1,.315.78,1.082,1.082,0,0,1-.162.6.959.959,0,0,1-.478.371l.669,1.2a.121.121,0,0,1,.015.053.108.108,0,0,1-.107.107h-.412a.193.193,0,0,1-.143-.046.326.326,0,0,1-.065-.085l-.635-1.129h-.645v1.129a.132.132,0,0,1-.131.131h-.393a.132.132,0,0,1-.131-.131v-3.131a.133.133,0,0,1,.131-.131Zm-.727,1.527h.7a.865.865,0,0,0,.441-.1.391.391,0,0,0,.165-.368.38.38,0,0,0-.165-.364.906.906,0,0,0-.441-.092h-.7Z" transform="translate(-1977.811 -1264.049)" fill="#fff"/>
          <path id="Path_2044" data-name="Path 2044" d="M2020.634,1264.049a.133.133,0,0,1,.131.131.1.1,0,0,1-.01.044l-1.149,2.021v1.066a.132.132,0,0,1-.131.131h-.388a.132.132,0,0,1-.131-.131v-1.066l-1.149-2.021a.1.1,0,0,1-.01-.044.133.133,0,0,1,.131-.131h.364a.2.2,0,0,1,.145.048.274.274,0,0,1,.058.073l.785,1.372.785-1.372a.272.272,0,0,1,.058-.073.2.2,0,0,1,.145-.048Z" transform="translate(-1998.062 -1264.049)" fill="#fff"/>
        </g>
      </g>
      <path id="Path_2045" data-name="Path 2045" d="M3056.655,927.358a8.028,8.028,0,0,0-8.028,8.028c0,4.434,8.028,14.292,8.028,14.292s8.029-9.858,8.029-14.292A8.028,8.028,0,0,0,3056.655,927.358Zm0,11.7a3.753,3.753,0,1,1,3.753-3.753A3.753,3.753,0,0,1,3056.655,939.057Z" transform="translate(-2864.642 -867.067)" fill="#657285"/>
      <path id="Path_2046" data-name="Path 2046" d="M1570.742,1078.843a6.77,6.77,0,0,0-6.77,6.77c0,3.739,6.77,12.052,6.77,12.052s6.77-8.313,6.77-12.052A6.77,6.77,0,0,0,1570.742,1078.843Zm0,9.866a3.165,3.165,0,1,1,3.165-3.165A3.165,3.165,0,0,1,1570.742,1088.709Z" transform="translate(-1563.972 -999.779)" fill="#00a3fe"/>
      <g id="Group_3463" data-name="Group 3463" transform="translate(39.628 40.683)">
        <g id="Group_3462" data-name="Group 3462" transform="translate(0)">
          <g id="Group_3461" data-name="Group 3461">
            <g id="Group_3459" data-name="Group 3459" transform="translate(14.424 38.815)">
              <path id="Path_2047" data-name="Path 2047" d="M2008.146,1439.443h-8a1.369,1.369,0,0,1,1.238-.924c1.235-.2,3.376-.918,3.853-2.5.015-.051.029-.1.041-.156.379-1.688,3.135.517,3.135.517s.008.068.02.183C2008.494,1437.182,2008.656,1439.159,2008.146,1439.443Z" transform="translate(-2000.143 -1391.499)" fill="#a0462d"/>
              <path id="Path_2048" data-name="Path 2048" d="M2012.783,1099.759s.419,5.223.911,11.5c.669,8.529,1.473,19.006,1.553,20.99.137,3.447.689,8.959.689,8.959a4.334,4.334,0,0,0,3.928.758,90.187,90.187,0,0,0,3-16.2l.031-.411c.62-8.476,1.585-26.325,1.585-26.325Z" transform="translate(-2011.217 -1096.968)" fill="#364154"/>
              <path id="Path_2049" data-name="Path 2049" d="M2012.783,1099.759s.419,5.223.911,11.5l9.171,14.511.031-.411c.62-8.476,1.585-26.325,1.585-26.325Z" transform="translate(-2011.217 -1096.968)" fill="#131f2d"/>
              <path id="Path_2050" data-name="Path 2050" d="M2028.211,1085.763s7.546,18.917,12.508,27.806,6.512,11.371,6.512,11.371,2.843-1.137,3.1-1.912c0,0-1.9-17.162-5.22-21.346-1.878-2.364-4.083-9.458-4.187-11.939s-.672-7.391-.672-7.391Z" transform="translate(-2024.733 -1082.352)" fill="#364154"/>
            </g>
            <path id="Path_2051" data-name="Path 2051" d="M2051.424,830.22s-5.106,2.5-8.049,1.574a6.974,6.974,0,0,1,1.993-1.619c-.1-.6-.181-1.121-.226-1.562a14.667,14.667,0,0,1-.124-1.6l1.97-1.573,1.868-1.506A7.687,7.687,0,0,0,2051.424,830.22Z" transform="translate(-2023.594 -817.146)" fill="#ff7955"/>
            <path id="Path_2052" data-name="Path 2052" d="M2024.314,892.862c.011.317-.656.679-.951.815a20.614,20.614,0,0,1-6.532,1.879c-2.729.283-5.955-.34-7.064-.317a.458.458,0,0,1-.306-.125c-.079-.057-.136-3.4-.079-7.6,0-.17,0-.34.011-.509v-.057c.023-1.642.079-3.362.158-5.083a57.284,57.284,0,0,1,.951-9.442,10.251,10.251,0,0,1,3.192-5.094l1.019-.906a4.826,4.826,0,0,0,3.17-.385c1.177-.577,2.465-1.225,2.669-1.067,1.54,1.143,2.561,3.738,3.116,7.021a36.924,36.924,0,0,1,.464,6.227c0,.815-.022,1.653-.068,2.479a79.4,79.4,0,0,0,.158,10.63C2024.269,891.991,2024.3,892.5,2024.314,892.862Z" transform="translate(-1993.793 -853.078)" fill="#00a3fe"/>
            <path id="Path_2053" data-name="Path 2053" d="M2042.245,941.143c-24.736-.034-4.562-18.442-4.562-18.442l4.008-.894a36.964,36.964,0,0,1,.464,6.227c0,.815-.023,1.653-.068,2.479A79.423,79.423,0,0,0,2042.245,941.143Z" transform="translate(-2011.814 -902.887)" fill="#016eb9"/>
            <g id="Group_3460" data-name="Group 3460" transform="translate(0 22.755)">
              <rect id="Rectangle_323" data-name="Rectangle 323" width="15.38" height="15.38" transform="translate(15.38 15.38) rotate(180)" fill="#b8c1c9"/>
              <rect id="Rectangle_324" data-name="Rectangle 324" width="7.041" height="15.38" transform="translate(21.782 15.38) rotate(180)" fill="#657285"/>
            </g>
            <path id="Path_2054" data-name="Path 2054" d="M1958.724,1004.561l-.916-.294A1.931,1.931,0,0,0,1955,1003.1s-.879.466-.492,1.018.317.261.846,1.056a1.725,1.725,0,0,0,2.035.872l.761.022Z" transform="translate(-1945.655 -973.889)" fill="#ff7955"/>
            <path id="Path_2055" data-name="Path 2055" d="M1992.416,874.594a19.274,19.274,0,0,1-.365,19.2c-1.863,3.214-15.932.159-15.932.159s-.548-.991.92-2.034c0,0,9.367-1.586,10.484-1.851.991-.236.33-9.34,1.462-11.981A6.655,6.655,0,0,1,1992.416,874.594Z" transform="translate(-1964.585 -861.525)" fill="#00a3fe"/>
            <path id="Path_2056" data-name="Path 2056" d="M2060.494,836.2a6.8,6.8,0,0,1-3.747,3.057,14.654,14.654,0,0,1-.125-1.6l1.97-1.573Z" transform="translate(-2035.199 -827.791)" fill="#ef6343"/>
            <path id="Path_2057" data-name="Path 2057" d="M2042.655,791.263s4.871.809,5.328-2.232,1.394-4.985-1.7-5.63-3.87.424-4.27,1.4S2041.4,790.974,2042.655,791.263Z" transform="translate(-2022.13 -781.462)" fill="#ff7955"/>
            <path id="Path_2058" data-name="Path 2058" d="M2041.373,776.915a5.041,5.041,0,0,0-4.536-4.727c-3.04-.448-2.787-2.65-2.439-3.052a34.282,34.282,0,0,1,6.29.628C2044.258,770.663,2041.9,776.31,2041.373,776.915Z" transform="translate(-2015.552 -769.136)" fill="#131f2d"/>
          </g>
        </g>
        <path id="Path_2059" data-name="Path 2059" d="M2172.534,1413.582l-.236-.3-2.683,1.5c-.025.513-.039,1.106-.01,1.626a4.456,4.456,0,0,1-.064,1.053c-.056.266-.34,1.4-1.17,1.7-.943.338-1.019,1.063.591,1.051l.84,0a2.237,2.237,0,0,0,2.136-1.652,3.81,3.81,0,0,1,.652-1.262,4.688,4.688,0,0,0,1.082-1.472C2173.947,1414.891,2172.534,1413.582,2172.534,1413.582Z" transform="translate(-2132.511 -1333.453)" fill="#a0462d"/>
      </g>
      <g id="Group_3472" data-name="Group 3472" transform="translate(90.233 51.506)">
        <g id="Group_3464" data-name="Group 3464" transform="translate(10.586 40.178)">
          <path id="Path_2060" data-name="Path 2060" d="M2386.639,1190.487l.529-.431-7.09-9.266-2.559-.107Z" transform="translate(-2377.519 -1180.683)" fill="#016eb9"/>
        </g>
        <g id="Group_3465" data-name="Group 3465" transform="translate(21.424 40.178)">
          <path id="Path_2061" data-name="Path 2061" d="M2472.526,1190.487l.438-.431-5.866-9.266-2.117-.107Z" transform="translate(-2464.981 -1180.683)" fill="#016eb9"/>
        </g>
        <g id="Group_3469" data-name="Group 3469" transform="translate(0 20.763)">
          <path id="Path_2062" data-name="Path 2062" d="M2831.265,1042.412a3.11,3.11,0,1,0-3.109,3.184A3.147,3.147,0,0,0,2831.265,1042.412Z" transform="translate(-2759.002 -1037.343)" fill="#00a3fe"/>
          <path id="Path_2063" data-name="Path 2063" d="M2556.944,1381.277h31.615a.629.629,0,0,0,.625-.629v-2.988a.629.629,0,0,0-.625-.629h-27.928a.629.629,0,0,0-.625.629Z" transform="translate(-2524.123 -1333.283)" fill="#00a3fe"/>
          <path id="Path_2064" data-name="Path 2064" d="M2421.109,1325.616a9.448,9.448,0,1,0-9.448,9.448A9.448,9.448,0,0,0,2421.109,1325.616Z" transform="translate(-2388.566 -1279.963)" fill="#131f2d"/>
          <path id="Path_2065" data-name="Path 2065" d="M2449.222,1358.364a4.816,4.816,0,1,0-4.816,4.816A4.816,4.816,0,0,0,2449.222,1358.364Z" transform="translate(-2421.312 -1312.711)" fill="#657285"/>
          <g id="Group_3466" data-name="Group 3466" transform="translate(61.895 31.664)">
            <path id="Path_2066" data-name="Path 2066" d="M2801.322,1280.175a13.989,13.989,0,0,1,18.058,11.246,1.823,1.823,0,0,1-1.805,2.091h-.061a1.161,1.161,0,0,1-1.153-1.056,10.864,10.864,0,0,0-21.677,1.056h-3.125A14.012,14.012,0,0,1,2801.322,1280.175Z" transform="translate(-2791.558 -1279.522)" fill="#00a3fe"/>
          </g>
          <g id="Group_3467" data-name="Group 3467" transform="translate(57.161 9.973)">
            <path id="Path_2067" data-name="Path 2067" d="M2753.354,1138.261l4.735,1.906c3.278-6.375,6.626-9.5,9.49-11.046,5.151-2.777,8.736-.425,7.529-2.612l-8.836-18.645a8.117,8.117,0,0,0-7.34-3.343,2.64,2.64,0,0,0-2.251,3.463,32.192,32.192,0,0,1,1.6,10.239A46.619,46.619,0,0,1,2753.354,1138.261Z" transform="translate(-2753.354 -1104.486)" fill="#00a3fe"/>
          </g>
          <path id="Path_2068" data-name="Path 2068" d="M2780.728,1044.4l3.566-1.362c.485,0,1.411.438,1.411-.047l-.528-8.709a.885.885,0,0,0-.882-.882h-2.3c-.485,0-2.43.931-2.293,2.673l-.612,8.779C2779.09,1045.337,2780.242,1044.4,2780.728,1044.4Z" transform="translate(-2718.74 -1032.237)" fill="#00a3fe"/>
          <path id="Rectangle_325" data-name="Rectangle 325" d="M1.679,0H24.57a1.679,1.679,0,0,1,1.679,1.679v0A1.679,1.679,0,0,1,24.57,3.358H1.679A1.679,1.679,0,0,1,0,1.679v0A1.679,1.679,0,0,1,1.679,0Z" transform="translate(26.249 19.847) rotate(180)" fill="#016eb9"/>
          <circle id="Ellipse_2114" data-name="Ellipse 2114" cx="9.448" cy="9.448" r="9.448" transform="translate(66.436 36.205)" fill="#131f2d"/>
          <path id="Path_2069" data-name="Path 2069" d="M2865.578,1358.368a4.791,4.791,0,0,0,.555,2.246q.034.065.072.129a4.816,4.816,0,1,0,6.04-6.821c-.018-.008-.037-.016-.055-.023a4.817,4.817,0,0,0-6.611,4.469Z" transform="translate(-2794.51 -1312.714)" fill="#657285"/>
          <path id="Path_2070" data-name="Path 2070" d="M2523.058,1221.866s-2.44,9.674,5.789,18.593l-20.236-1.468,2.576-19.526Z" transform="translate(-2481.779 -1195.244)" fill="#00a3fe"/>
          <path id="Path_2071" data-name="Path 2071" d="M2324.763,1256.648a1.254,1.254,0,0,0,1.25,1.25h30.31a1.254,1.254,0,0,0,1.25-1.25l-.4-19.824-10.206-.625C2333.368,1236.2,2324.763,1243.052,2324.763,1256.648Z" transform="translate(-2320.715 -1209.904)" fill="#00a3fe"/>
          <path id="Path_2072" data-name="Path 2072" d="M2825.047,1028.9a4.881,4.881,0,0,0,4.89,4.889v-9.777A4.889,4.889,0,0,0,2825.047,1028.9Z" transform="translate(-2759.002 -1024.013)" fill="#016eb9"/>
          <g id="Group_3468" data-name="Group 3468" transform="translate(57.99 2.977)">
            <path id="Path_2073" data-name="Path 2073" d="M2760.384,1050.6c.019,0,.222-.04.241-.043l5.379-1.492a.518.518,0,0,0,.33-.591c-.031-.285-.229-.482-.443-.44l-5.391,1.053c-.214.042-.384.366-.434.646C2759.981,1050.206,2760.193,1050.6,2760.384,1050.6Z" transform="translate(-2760.046 -1048.033)" fill="#131f2d"/>
          </g>
          <path id="Path_2074" data-name="Path 2074" d="M2836.823,1135.024q-.074.452-.141.874l.042-.02a10.863,10.863,0,0,1,15.471,8.759,1.161,1.161,0,0,0,1.153,1.056h.061a1.823,1.823,0,0,0,1.805-2.091,14.025,14.025,0,0,0-10.747-11.554l-.056-.013-8.836-18.645a8.091,8.091,0,0,0-3.114-2.6,36.916,36.916,0,0,1,4.695,21.563q-.1,1.125-.274,2.291C2836.862,1134.772,2836.843,1134.9,2836.823,1135.024Z" transform="translate(-2765.497 -1100.04)" fill="#00a3fe"/>
          <path id="Rectangle_326" data-name="Rectangle 326" d="M2.4,0H18.826a2.4,2.4,0,0,1,2.4,2.4v0a2.4,2.4,0,0,1-2.4,2.4H2.4A2.4,2.4,0,0,1,0,2.4v0A2.4,2.4,0,0,1,2.4,0Z" transform="translate(20.98 21.82)" fill="#a0462d"/>
          <path id="Path_2075" data-name="Path 2075" d="M2344.138,1301.9H2373.3s1.779-10.8-4.783-14.442a9.8,9.8,0,0,0-5.729-.969C2355.966,1287.154,2347.381,1292.931,2344.138,1301.9Z" transform="translate(-2337.689 -1253.903)" fill="#016eb9"/>
          <path id="Path_2076" data-name="Path 2076" d="M2825.71,1070.716a4.891,4.891,0,0,0,4.807,3.99v-2.728C2829.081,1072.035,2827.011,1071.879,2825.71,1070.716Z" transform="translate(-2759.583 -1064.928)" fill="#016eb9"/>
          <path id="Path_2077" data-name="Path 2077" d="M2836.823,1135.024q-.074.452-.141.874l.042-.02c1.745-1.614,5.431-3.043,7.744-3.83l-.056-.013-8.836-18.645a8.091,8.091,0,0,0-3.114-2.6,36.916,36.916,0,0,1,4.695,21.563q-.1,1.125-.274,2.291C2836.862,1134.772,2836.843,1134.9,2836.823,1135.024Z" transform="translate(-2765.497 -1100.04)" fill="#016eb9"/>
        </g>
        <g id="Group_3470" data-name="Group 3470" transform="translate(1.656 24.804)">
          <rect id="Rectangle_327" data-name="Rectangle 327" width="15.095" height="12.447" transform="translate(7.548)" fill="#a0462d"/>
          <rect id="Rectangle_328" data-name="Rectangle 328" width="15.095" height="12.447" transform="translate(0 0)" fill="#b05638"/>
          <path id="Path_2078" data-name="Path 2078" d="M2471.2,1123.437H2468.8l.211-.673-.211-.481h2.392Z" transform="translate(-2448.561 -1114.147)" fill="#364154"/>
          <path id="Path_2079" data-name="Path 2079" d="M2305.462,1071h2.392l-.211-.673.211-.481h-2.392Z" transform="translate(-2305.462 -1068.208)" fill="#131f2d"/>
          <path id="Path_2080" data-name="Path 2080" d="M2305.462,1132.75h2.392l-.211-.673.211-.481h-2.392Z" transform="translate(-2305.462 -1122.305)" fill="#131f2d"/>
        </g>
        <g id="Group_3471" data-name="Group 3471" transform="translate(29.407)">
          <path id="Path_2081" data-name="Path 2081" d="M2559.429,922.113c-2.61,1.06-7.38-1.206-7.38-1.206a6.692,6.692,0,0,0,1.885-4.057c.016-.134.027-.27.035-.41l1.349-.48,2.312,1.574a17.962,17.962,0,0,1-.026,2.129q-.021.354-.056.762A4.685,4.685,0,0,1,2559.429,922.113Z" transform="translate(-2549.242 -908.589)" fill="#ff7955"/>
          <path id="Path_2082" data-name="Path 2082" d="M2570.957,917.535a17.962,17.962,0,0,1-.026,2.129,5.524,5.524,0,0,1-3.669-2.813c.016-.134.027-.27.035-.41l1.349-.48Z" transform="translate(-2562.569 -908.589)" fill="#ef6343"/>
          <path id="Path_2083" data-name="Path 2083" d="M2569.682,883.539s-4.495-.147-4.36-2.944-.355-4.7,2.52-4.726,3.381,1.07,3.563,2.014S2570.854,883.5,2569.682,883.539Z" transform="translate(-2560.867 -873.465)" fill="#ff7955"/>
          <path id="Path_2084" data-name="Path 2084" d="M2556.3,869.046a2.1,2.1,0,0,1,.331-1.544s-.327-.912.024-1.117.534.575.688.428a3.826,3.826,0,0,0,1.043-1.747c.209-.911,3.326-.258,3.694-.148s-2.068-4.435-4.7-3.359-2.828,2.427-2.524,3.521S2555.139,868.821,2556.3,869.046Z" transform="translate(-2551.613 -860.784)" fill="#131f2d"/>
          <path id="Path_2085" data-name="Path 2085" d="M2532.568,1128.754s.312,5.49,1.562,7.054,25.209.957,25.209.957.1-3.52-.833-4.426-5.312-3.505-19.281-4.979Z" transform="translate(-2532.176 -1093.791)" fill="#131f2d"/>
          <path id="Path_2086" data-name="Path 2086" d="M2529.472,955.723c.391,4.716-.124,11.889.32,13.131.382,1.072,4.74.434,6.478.077.644-.133,1.424-.322,2.229-.546,2.246-.624,4.694-1.516,4.956-2.178a.421.421,0,0,0,.024-.076.53.53,0,0,0,0-.277c-.064-.25-.267-.515-.383-.974a2.83,2.83,0,0,1-.081-.565c-.041-.854-.039-1.847-.068-2.916,0-.1-.006-.2-.009-.3a4.043,4.043,0,0,0-.02-.411v-.049c0-.025,0-.05,0-.075-.038-1.318-.115-2.7-.2-4.076-.028-.428-.058-.854-.092-1.275-.01-.149-.023-.3-.034-.444-.023-.275-.046-.548-.071-.817a30.7,30.7,0,0,0-.809-5.179,8.308,8.308,0,0,0-2.976-4.124l-.829-.639a5.3,5.3,0,0,1-3.009-.359c-1.07-.457-1.439-.784-1.626-.66C2530.789,944.709,2529.011,949.957,2529.472,955.723Z" transform="translate(-2529.399 -932.251)" fill="#00a3fe"/>
          <path id="Path_2087" data-name="Path 2087" d="M2679.029,1341.234s.212,3.417.873,3.467c.088.006,3.354.006,3.354.006l4.168-.024a1.353,1.353,0,0,0-1.246-1.217,5.65,5.65,0,0,1-4-2.679C2681.406,1339.093,2679.029,1341.234,2679.029,1341.234Z" transform="translate(-2660.487 -1280.197)" fill="#a0462d"/>
          <path id="Path_2088" data-name="Path 2088" d="M2671.917,1204.312a4.6,4.6,0,0,0,2.448.7,6.6,6.6,0,0,0,1.15-.046,5.467,5.467,0,0,0,1.471-.376l4.423-18.563s-4.792-4.186-7.292-1.583a4.4,4.4,0,0,0-.842,1.7C2671.689,1191.256,2671.917,1204.312,2671.917,1204.312Z" transform="translate(-2654.245 -1143.052)" fill="#131f2d"/>
          <path id="Path_2089" data-name="Path 2089" d="M2586.274,1016.864s3.1,11.357,6.645,12.742a2.851,2.851,0,0,1-.081-.565c-.041-.854-.039-1.847-.068-2.916,0-.1-.006-.2-.009-.3a4.041,4.041,0,0,0-.02-.41v-.049c0-.025,0-.05,0-.075-.038-1.318-.115-2.7-.2-4.076-.028-.428-.059-.854-.092-1.275A7.481,7.481,0,0,0,2586.274,1016.864Z" transform="translate(-2579.226 -996.976)" fill="#016eb9"/>
          <path id="Path_2090" data-name="Path 2090" d="M2735.176,1045.914a9.044,9.044,0,0,0,1.7,0c.347-.1,1.979-1.076,2.57-.868s2.083,1.736,1.7,2.431a1.96,1.96,0,0,1-1.337-.642c-.643-.66-1.337-.208-1.267-.121s1.076.486.9.66a2.951,2.951,0,0,1-1.806-.069,10.775,10.775,0,0,0-2.639.052Z" transform="translate(-2709.52 -1021.651)" fill="#ff7955"/>
          <path id="Path_2091" data-name="Path 2091" d="M2565.89,968.352s8.4,7.161,10.611,7.851,10.024,2.209,10.024,2.209.215,1.85-.518,2.544c0,0-10.038-.582-11.288-.847s-10.564-5.091-11.324-5.456S2562.754,967.762,2565.89,968.352Z" transform="translate(-2558.841 -954.454)" fill="#00a3fe"/>
          <path id="Path_2092" data-name="Path 2092" d="M2550.27,860.951v.043a.3.3,0,0,0,.131.261.168.168,0,0,0,.082.023h10.65c.118,0,.214-.128.214-.284v-.043c0-.156-.1-.284-.214-.284l-2.378-.305a4.422,4.422,0,0,0-2.947-3.705h0a3.873,3.873,0,0,0-1.192-.187,4.315,4.315,0,0,0-4.163,4.106c0,.027,0,.053-.006.08l-.045.033A.3.3,0,0,0,2550.27,860.951Z" transform="translate(-2547.684 -856.47)" fill="#00a3fe"/>
          <path id="Path_2093" data-name="Path 2093" d="M2555.157,860.576c-.794-4.2,1.849-3.93,1.938-3.92a3.873,3.873,0,0,0-1.192-.187,4.315,4.315,0,0,0-4.163,4.106Z" transform="translate(-2548.972 -856.47)" fill="#016eb9"/>
        </g>
      </g>
      <g id="Group_3473" data-name="Group 3473" transform="translate(101.035)">
        <path id="Path_2094" data-name="Path 2094" d="M2379.621,514.265a.355.355,0,0,1-.184-.66c.008,0,.19-.114.538-.308a.355.355,0,1,1,.346.621c-.337.188-.516.3-.518.3A.352.352,0,0,1,2379.621,514.265Z" transform="translate(-2379.265 -504.279)" fill="#364154"/>
        <path id="Path_2095" data-name="Path 2095" d="M2482.417,495.285h0a.355.355,0,0,1-.353-.357q0-.111,0-.229c0-.324,0-.657-.012-.991a.355.355,0,1,1,.71-.016c.008.339.012.678.012,1.007q0,.119,0,.232A.355.355,0,0,1,2482.417,495.285Zm-.055-2.46a.355.355,0,0,1-.355-.338c-.019-.4-.044-.813-.074-1.22a.355.355,0,1,1,.708-.051c.03.413.055.829.075,1.237a.355.355,0,0,1-.338.372Zm-.178-2.454a.355.355,0,0,1-.353-.322c-.039-.4-.082-.811-.13-1.215a.355.355,0,0,1,.706-.083c.048.409.093.823.131,1.231a.355.355,0,0,1-.32.387Zm-.287-2.443a.355.355,0,0,1-.351-.306c-.056-.4-.118-.809-.183-1.208a.355.355,0,1,1,.7-.114c.066.4.128.816.185,1.223a.355.355,0,0,1-.3.4A.36.36,0,0,1,2481.9,487.928Zm-.394-2.427a.355.355,0,0,1-.349-.291c-.073-.4-.152-.8-.235-1.2a.355.355,0,0,1,.7-.144c.083.4.163.812.238,1.214a.356.356,0,0,1-.35.42Zm-.5-2.407a.355.355,0,0,1-.346-.276c-.091-.4-.187-.795-.287-1.187a.355.355,0,1,1,.689-.174c.1.4.2.8.29,1.2a.355.355,0,0,1-.266.426A.361.361,0,0,1,2481,483.094Zm-.6-2.383a.355.355,0,0,1-.342-.261c-.108-.392-.222-.786-.339-1.173a.355.355,0,1,1,.68-.2c.118.392.233.792.343,1.188a.356.356,0,0,1-.343.45Zm-.708-2.354a.356.356,0,0,1-.338-.245c-.125-.385-.257-.775-.39-1.157a.355.355,0,1,1,.67-.235c.135.388.269.782.4,1.172a.356.356,0,0,1-.338.465Zm-.812-2.32a.355.355,0,0,1-.333-.23c-.142-.379-.291-.762-.442-1.138a.355.355,0,1,1,.659-.265c.153.381.3.769.448,1.153a.355.355,0,0,1-.332.48Zm-.917-2.28a.355.355,0,0,1-.326-.215c-.161-.374-.327-.749-.495-1.116a.355.355,0,1,1,.646-.3c.17.371.339.752.5,1.131a.355.355,0,0,1-.326.5Zm-1.022-2.234a.355.355,0,0,1-.32-.2c-.177-.364-.361-.731-.547-1.091a.355.355,0,0,1,.631-.326c.188.365.375.737.554,1.106a.355.355,0,0,1-.319.511Zm-1.127-2.183a.355.355,0,0,1-.312-.185c-.2-.356-.4-.714-.6-1.063a.355.355,0,0,1,.615-.356c.2.354.409.717.607,1.078a.355.355,0,0,1-.311.526Zm-1.231-2.126a.355.355,0,0,1-.3-.17c-.211-.344-.429-.692-.65-1.032a.355.355,0,0,1,.6-.386c.223.346.445.7.659,1.047a.355.355,0,0,1-.3.541Zm-1.333-2.063a.355.355,0,0,1-.294-.155c-.229-.335-.464-.671-.7-1a.355.355,0,1,1,.577-.415c.239.332.478.673.709,1.013a.355.355,0,0,1-.293.556Zm-1.434-1.995a.354.354,0,0,1-.283-.141c-.244-.322-.5-.646-.748-.963a.355.355,0,1,1,.556-.443c.256.322.511.651.759.977a.355.355,0,0,1-.283.57Zm-1.53-1.922a.354.354,0,0,1-.272-.127c-.259-.309-.526-.62-.794-.925a.355.355,0,1,1,.533-.469c.272.309.543.625.806.938a.355.355,0,0,1-.272.583Zm-1.623-1.844a.355.355,0,0,1-.261-.114c-.274-.3-.556-.594-.839-.885a.355.355,0,1,1,.51-.5c.287.3.573.6.851.9a.355.355,0,0,1-.261.6Zm-1.711-1.762a.354.354,0,0,1-.249-.1c-.288-.282-.584-.566-.881-.843a.355.355,0,0,1,.485-.519c.3.281.6.569.893.855a.355.355,0,0,1-.249.609Zm-1.794-1.677a.355.355,0,0,1-.236-.09c-.3-.27-.612-.539-.92-.8a.355.355,0,0,1,.46-.542c.312.265.626.538.933.812a.355.355,0,0,1-.236.62Zm-1.872-1.59a.353.353,0,0,1-.224-.079c-.313-.253-.635-.508-.957-.757a.355.355,0,1,1,.434-.562c.326.252.652.51.97.767a.355.355,0,0,1-.224.631Zm-1.944-1.5a.352.352,0,0,1-.21-.069c-.326-.24-.659-.48-.99-.712a.355.355,0,1,1,.408-.581c.336.236.673.479,1,.722a.355.355,0,0,1-.211.641Zm-2.01-1.412a.354.354,0,0,1-.2-.06c-.336-.225-.679-.45-1.021-.668a.355.355,0,0,1,.383-.6c.346.221.694.449,1.034.677a.355.355,0,0,1-.2.65Zm-2.069-1.322a.353.353,0,0,1-.185-.052c-.346-.211-.7-.421-1.049-.624a.355.355,0,1,1,.357-.614c.354.206.711.419,1.061.632a.355.355,0,0,1-.185.659Zm-64.657-.18a.355.355,0,0,1-.165-.67c.354-.185.726-.374,1.1-.561a.355.355,0,0,1,.315.637c-.373.185-.739.371-1.089.554A.354.354,0,0,1,2392.607,449.946Zm62.533-1.054a.352.352,0,0,1-.172-.045c-.356-.2-.718-.393-1.074-.581a.355.355,0,0,1,.331-.628c.361.19.727.388,1.087.588a.355.355,0,0,1-.172.666Zm-60.33-.038a.355.355,0,0,1-.152-.676c.368-.174.745-.348,1.122-.518a.355.355,0,1,1,.292.648c-.373.168-.747.341-1.111.512A.352.352,0,0,1,2394.811,448.854Zm2.241-1.011a.355.355,0,0,1-.141-.681c.375-.162.759-.324,1.138-.48a.355.355,0,1,1,.271.657c-.376.155-.755.315-1.127.475A.352.352,0,0,1,2397.052,447.843Zm55.916-.1a.355.355,0,0,1-.159-.038c-.364-.182-.733-.363-1.1-.536a.355.355,0,0,1,.305-.642c.368.175.742.358,1.11.542a.355.355,0,0,1-.159.673Zm-53.643-.84a.355.355,0,0,1-.13-.686c.383-.151.771-.3,1.152-.444a.355.355,0,0,1,.25.665c-.378.142-.762.29-1.142.44A.356.356,0,0,1,2399.325,446.905Zm51.424-.215a.352.352,0,0,1-.146-.031c-.37-.166-.746-.331-1.119-.489a.355.355,0,0,1,.278-.654c.377.16.758.327,1.133.5a.355.355,0,0,1-.146.679Zm-49.124-.651a.355.355,0,0,1-.12-.69c.388-.139.78-.276,1.165-.408a.355.355,0,0,1,.229.672c-.381.13-.77.266-1.155.4A.355.355,0,0,1,2401.625,446.04Zm46.863-.31a.355.355,0,0,1-.132-.025c-.376-.151-.759-.3-1.138-.441a.355.355,0,1,1,.25-.665c.384.144.771.294,1.152.447a.355.355,0,0,1-.132.685Zm-44.537-.485a.355.355,0,0,1-.11-.693c.391-.127.787-.252,1.177-.372a.355.355,0,0,1,.209.679c-.387.119-.78.243-1.167.369A.358.358,0,0,1,2403.951,445.245Zm42.237-.379a.354.354,0,0,1-.118-.02c-.385-.135-.774-.267-1.156-.392a.355.355,0,1,1,.221-.675c.386.127.78.26,1.17.4a.355.355,0,0,1-.117.691Zm-39.888-.344a.355.355,0,0,1-.1-.7c.4-.115.8-.228,1.188-.336a.355.355,0,0,1,.188.685c-.39.107-.786.219-1.177.333A.356.356,0,0,1,2406.3,444.522Zm37.553-.421a.354.354,0,0,1-.1-.016c-.386-.117-.78-.233-1.172-.343a.355.355,0,0,1,.192-.684c.4.111.8.228,1.187.347a.355.355,0,0,1-.1.7Zm-35.183-.229a.355.355,0,0,1-.088-.7c.4-.1.8-.2,1.2-.3a.355.355,0,1,1,.166.691c-.4.1-.8.195-1.187.3A.353.353,0,0,1,2408.671,443.873Zm32.818-.436a.348.348,0,0,1-.089-.011c-.394-.1-.793-.2-1.186-.292a.355.355,0,0,1,.163-.692c.4.094.8.193,1.2.3a.355.355,0,0,1-.088.7Zm-30.429-.139a.355.355,0,0,1-.077-.7c.4-.09.81-.178,1.207-.26a.355.355,0,1,1,.144.7c-.394.081-.8.168-1.2.258A.366.366,0,0,1,2411.06,443.3Zm28.037-.424a.356.356,0,0,1-.074-.008c-.395-.084-.8-.166-1.2-.242a.355.355,0,0,1,.134-.7c.4.077.812.16,1.211.245a.355.355,0,0,1-.074.7Zm-25.631-.073a.355.355,0,0,1-.066-.7c.4-.077.814-.151,1.215-.22a.355.355,0,0,1,.121.7c-.4.069-.8.142-1.2.218A.357.357,0,0,1,2413.467,442.8Zm23.218-.389a.352.352,0,0,1-.06-.005c-.4-.068-.807-.133-1.206-.192a.355.355,0,1,1,.1-.7c.4.06.814.126,1.22.195a.355.355,0,0,1-.059.706Zm-20.8-.029a.355.355,0,0,1-.054-.706c.407-.063.818-.124,1.222-.179a.355.355,0,0,1,.1.7c-.4.055-.806.115-1.21.178A.363.363,0,0,1,2415.888,442.382Zm18.366-.332a.349.349,0,0,1-.045,0c-.4-.051-.808-.1-1.213-.142a.355.355,0,0,1,.075-.707c.409.044.822.092,1.227.144a.355.355,0,0,1-.045.708Zm-15.932,0a.355.355,0,0,1-.042-.708c.41-.049.823-.1,1.228-.137a.355.355,0,1,1,.073.707c-.4.041-.809.087-1.215.136Zm2.445-.251a.355.355,0,0,1-.03-.709c.413-.035.827-.066,1.232-.093a.355.355,0,0,1,.047.709c-.4.027-.81.058-1.219.092Zm11.044-.007h-.031c-.4-.035-.812-.066-1.218-.093a.355.355,0,0,1,.047-.709c.411.027.825.059,1.232.094a.355.355,0,0,1-.03.709Zm-8.593-.156a.355.355,0,0,1-.017-.71c.413-.02.828-.036,1.234-.048a.355.355,0,0,1,.021.71c-.4.012-.813.028-1.221.048Zm6.141-.007h-.017c-.4-.019-.816-.034-1.221-.045a.355.355,0,0,1,.02-.71c.41.011.825.027,1.235.046a.355.355,0,0,1-.016.71Zm-3.685-.066a.355.355,0,0,1,0-.71q.616-.007,1.236,0a.355.355,0,0,1,0,.71h0q-.614,0-1.222,0Z" transform="translate(-2390.642 -440.845)" fill="#364154"/>
        <path id="Path_2096" data-name="Path 2096" d="M3116.824,885.532h-.031a.356.356,0,0,1-.324-.384s.018-.21.034-.593a.355.355,0,0,1,.71.03c-.017.4-.035.614-.035.623A.356.356,0,0,1,3116.824,885.532Z" transform="translate(-3025.111 -829.27)" fill="#364154"/>
      </g>
      <g id="Group_3474" data-name="Group 3474" transform="translate(6.13 35.722)">
        <path id="Path_2097" data-name="Path 2097" d="M2037.856,733.6l-.033,0-.481-.054a.283.283,0,0,1,.062-.563l.484.055a.283.283,0,0,1-.032.564Z" transform="translate(-1984.589 -732.496)" fill="#364154"/>
        <path id="Path_2098" data-name="Path 2098" d="M1614.935,766.84l-.037,0a.283.283,0,0,1-.244-.317c.041-.316.088-.643.14-.974a.283.283,0,0,1,.559.087c-.051.326-.1.649-.138.96A.283.283,0,0,1,1614.935,766.84Zm.3-1.929a.3.3,0,0,1-.05,0,.283.283,0,0,1-.229-.329c.057-.318.119-.642.183-.964a.283.283,0,0,1,.555.112c-.064.317-.125.638-.181.952A.283.283,0,0,1,1615.235,764.911Zm.385-1.911a.288.288,0,0,1-.062-.007.283.283,0,0,1-.215-.338c.07-.316.145-.637.222-.954a.283.283,0,0,1,.55.134c-.077.314-.151.631-.22.943A.283.283,0,0,1,1615.62,763Zm.461-1.892a.288.288,0,0,1-.073-.009.283.283,0,0,1-.2-.346c.083-.314.17-.632.26-.944a.283.283,0,1,1,.544.155c-.088.309-.175.623-.257.933A.283.283,0,0,1,1616.081,761.108Zm.535-1.872a.283.283,0,0,1-.271-.366c.1-.311.2-.625.3-.933a.283.283,0,0,1,.538.177c-.1.3-.2.615-.293.922A.283.283,0,0,1,1616.615,759.236Zm.608-1.849a.28.28,0,0,1-.094-.016.283.283,0,0,1-.174-.361c.108-.307.22-.616.333-.92a.283.283,0,0,1,.531.2c-.112.3-.223.606-.329.909A.283.283,0,0,1,1617.223,757.386Zm.681-1.823a.283.283,0,0,1-.263-.388c.12-.3.245-.607.37-.906a.283.283,0,1,1,.522.22c-.124.3-.247.6-.366.9A.283.283,0,0,1,1617.9,755.563Zm.754-1.794a.283.283,0,0,1-.258-.4c.133-.3.27-.6.407-.89a.283.283,0,1,1,.512.241c-.136.289-.272.585-.4.879A.283.283,0,0,1,1618.659,753.77Zm.829-1.76a.283.283,0,0,1-.253-.409c.145-.292.3-.586.445-.872a.283.283,0,0,1,.5.263c-.148.282-.3.572-.44.861A.283.283,0,0,1,1619.487,752.01Zm.9-1.723a.283.283,0,0,1-.248-.42c.158-.286.321-.572.484-.851a.283.283,0,1,1,.489.285c-.16.275-.321.558-.477.84A.283.283,0,0,1,1620.391,750.287Zm.98-1.68a.283.283,0,0,1-.241-.431c.171-.279.347-.557.522-.828a.283.283,0,1,1,.475.307c-.173.267-.346.542-.515.817A.283.283,0,0,1,1621.371,748.607Zm1.056-1.633a.283.283,0,0,1-.234-.442c.184-.27.373-.54.561-.8a.283.283,0,0,1,.46.33c-.185.259-.371.525-.553.792A.283.283,0,0,1,1622.428,746.974Zm1.133-1.58a.283.283,0,0,1-.226-.453c.2-.26.4-.52.6-.775a.283.283,0,0,1,.443.352c-.2.251-.4.508-.591.764A.282.282,0,0,1,1623.561,745.394Zm1.209-1.523a.283.283,0,0,1-.217-.464c.208-.249.422-.5.637-.744a.283.283,0,1,1,.425.374c-.212.241-.423.488-.628.733A.282.282,0,0,1,1624.769,743.871Zm1.284-1.46a.283.283,0,0,1-.208-.475c.221-.239.448-.478.674-.71a.283.283,0,1,1,.406.4c-.223.229-.446.464-.664.7A.283.283,0,0,1,1626.053,742.411Zm1.356-1.392a.283.283,0,0,1-.2-.486c.234-.228.473-.454.71-.674a.283.283,0,1,1,.384.416c-.234.217-.469.44-.7.664A.282.282,0,0,1,1627.409,741.019Zm1.427-1.32a.283.283,0,0,1-.187-.5c.244-.214.494-.428.745-.636a.283.283,0,1,1,.362.435c-.247.205-.493.416-.733.626A.282.282,0,0,1,1628.836,739.7Zm1.494-1.243a.283.283,0,0,1-.175-.505c.255-.2.517-.4.777-.6a.283.283,0,0,1,.339.454c-.256.191-.514.389-.765.587A.282.282,0,0,1,1630.331,738.456Zm1.558-1.162a.283.283,0,0,1-.164-.514c.266-.188.538-.374.807-.554a.283.283,0,0,1,.314.471c-.266.177-.533.361-.795.546A.281.281,0,0,1,1631.888,737.294Zm1.616-1.079a.283.283,0,0,1-.151-.522c.272-.172.553-.344.835-.511a.283.283,0,0,1,.289.487c-.277.165-.554.334-.822.5A.281.281,0,0,1,1633.5,736.216Zm1.67-.993a.283.283,0,0,1-.139-.53c.283-.158.572-.316.86-.467a.283.283,0,1,1,.264.5c-.284.15-.569.3-.847.461A.282.282,0,0,1,1635.175,735.223Zm1.719-.906a.283.283,0,0,1-.126-.537c.289-.143.586-.286.882-.424a.283.283,0,1,1,.239.513c-.292.136-.585.276-.87.418A.282.282,0,0,1,1636.893,734.316Zm1.762-.819a.283.283,0,0,1-.113-.543c.3-.13.6-.258.9-.38a.283.283,0,0,1,.214.524c-.3.121-.6.247-.889.375A.282.282,0,0,1,1638.655,733.5Zm1.8-.733a.283.283,0,0,1-.1-.548c.3-.115.611-.228.918-.337a.283.283,0,1,1,.189.534c-.3.107-.608.219-.906.332A.284.284,0,0,1,1640.454,732.764Zm1.832-.648a.283.283,0,0,1-.088-.552c.309-.1.623-.2.932-.294a.283.283,0,1,1,.165.542c-.305.093-.615.191-.921.291A.282.282,0,0,1,1642.286,732.116Zm1.859-.565a.283.283,0,0,1-.076-.556c.311-.087.629-.173.944-.254a.283.283,0,0,1,.141.548c-.311.08-.625.164-.932.25A.282.282,0,0,1,1644.145,731.551Zm1.882-.484a.283.283,0,0,1-.065-.559c.315-.074.636-.146.954-.214a.283.283,0,1,1,.118.554c-.314.067-.632.138-.942.211A.286.286,0,0,1,1646.026,731.067Zm1.9-.407a.283.283,0,0,1-.053-.561c.317-.061.641-.121.961-.176a.283.283,0,1,1,.1.558c-.317.055-.637.113-.95.174A.3.3,0,0,1,1647.926,730.66Zm1.914-.332a.283.283,0,0,1-.043-.563c.319-.049.645-.1.967-.14a.283.283,0,1,1,.076.561c-.318.043-.641.09-.956.138A.284.284,0,0,1,1649.84,730.328Zm1.926-.261a.283.283,0,0,1-.032-.564c.321-.038.647-.073.971-.105a.283.283,0,0,1,.056.563c-.32.032-.643.067-.961.1Zm14.553-.021h-.028c-.324-.032-.649-.062-.965-.09a.283.283,0,0,1,.049-.564c.318.028.645.058.971.09a.283.283,0,0,1-.027.565Zm-1.937-.169h-.021c-.319-.024-.644-.046-.967-.067a.283.283,0,0,1,.035-.565c.325.02.653.043.973.067a.283.283,0,0,1-.021.565Zm-10.682,0a.283.283,0,0,1-.023-.565c.32-.027.648-.051.974-.072a.283.283,0,1,1,.037.565c-.322.021-.647.045-.964.072Zm8.741-.118h-.014c-.321-.016-.647-.03-.968-.042a.283.283,0,1,1,.021-.566c.323.012.652.026.975.042a.283.283,0,0,1-.014.566Zm-6.8-.01a.283.283,0,0,1-.014-.566c.324-.016.652-.03.975-.041a.283.283,0,0,1,.019.566c-.32.011-.645.025-.966.041Zm4.859-.061h-.007c-.323-.008-.649-.013-.968-.016a.283.283,0,1,1,.005-.566c.322,0,.65.008.976.016a.283.283,0,0,1-.006.566Zm-2.916-.006a.283.283,0,0,1-.005-.566c.32-.006.648-.01.976-.012h0a.283.283,0,0,1,0,.566c-.325,0-.651.006-.967.012Z" transform="translate(-1614.501 -729.101)" fill="#364154"/>
        <path id="Path_2099" data-name="Path 2099" d="M1613.72,1037.866h-.017a.283.283,0,0,1-.266-.3c0-.007.01-.177.041-.494a.283.283,0,1,1,.563.055c-.03.3-.04.471-.04.473A.283.283,0,0,1,1613.72,1037.866Z" transform="translate(-1613.437 -998.683)" fill="#364154"/>
      </g>
    </g>
    <path id="Path_2100" data-name="Path 2100" d="M1726.9,1469.016H1519.2a.278.278,0,0,1-.234-.306h0a.278.278,0,0,1,.234-.306h207.7a.278.278,0,0,1,.234.306h0A.278.278,0,0,1,1726.9,1469.016Z" transform="translate(0 -900.221)" fill="#131f2d"/>
  </g>
</svg>
